<?xml version="1.0" encoding="UTF-8"?>
<svg width="293px" height="236px" viewBox="0 0 293 236" version="1.1" xmlns="http://www.w3.org/2000/svg" xmlns:xlink="http://www.w3.org/1999/xlink">
    <!-- Generator: Sketch 50.2 (55047) - http://www.bohemiancoding.com/sketch -->
    <title>Group 3</title>
    <desc>Created with Sketch.</desc>
    <defs>
        <linearGradient x1="50%" y1="0%" x2="50%" y2="100%" id="linearGradient-1">
            <stop stop-color="#F7FAFE" offset="0%"></stop>
            <stop stop-color="#E1ECF6" offset="100%"></stop>
        </linearGradient>
        <path d="M45.1776019,198.946094 C50.7266903,219.741571 83.4938738,256.046184 112.714786,222.090508 C141.935697,188.134833 164.336008,202.578339 187.384937,213.037875 C210.433865,223.497411 240.127001,236.969982 247.313254,222.090508 C258.057522,199.843999 207.029077,165.388633 247.313254,116.020483 C285.360445,69.393754 304.417417,50.4409743 285.77101,22.2315871 C272.101906,1.55215916 244.030197,10.4968915 234.111201,7.08462931 C221.164471,2.63078742 224.101614,0 215.547938,0 C170.750753,4.51324255e-15 176.773404,44.6499365 137.915364,39.1439374 C93.6641402,32.87375 87.4848076,12.2313852 59.6805671,22.2315871 C31.8763266,32.231789 63.0449317,89.5747658 35.0900206,104.920953 C7.13510948,120.26714 -11.0629607,129.095948 7.60733323,150.14415 C26.2776271,171.192352 39.6285134,178.150618 45.1776019,198.946094 Z" id="path-2"></path>
        <linearGradient x1="93.1430807%" y1="50%" x2="1.86584501%" y2="50%" id="linearGradient-4">
            <stop stop-color="#EFF5FB" offset="0%"></stop>
            <stop stop-color="#6F97E8" offset="100%"></stop>
        </linearGradient>
        <polygon id="path-5" points="9 0 67.4130859 5.68434189e-14 81.6308594 31.4512232 23.2177734 31.4512232"></polygon>
        <polygon id="path-7" points="11 0 91.794888 5.68434189e-14 110 40 29.205112 40"></polygon>
        <linearGradient x1="50%" y1="100%" x2="50%" y2="3.061617e-15%" id="linearGradient-9">
            <stop stop-color="#ECEFF4" offset="0%"></stop>
            <stop stop-color="#D4DAE5" offset="100%"></stop>
        </linearGradient>
        <linearGradient x1="50%" y1="100%" x2="50%" y2="3.061617e-15%" id="linearGradient-10">
            <stop stop-color="#E3EBFA" offset="0%"></stop>
            <stop stop-color="#C6D7F4" offset="100%"></stop>
        </linearGradient>
        <linearGradient x1="93.1430807%" y1="50%" x2="1.86584501%" y2="50%" id="linearGradient-11">
            <stop stop-color="#EFF5FB" offset="0%"></stop>
            <stop stop-color="#FF6A20" offset="100%"></stop>
        </linearGradient>
        <linearGradient x1="27.8590635%" y1="0%" x2="72.8068572%" y2="96.7542022%" id="linearGradient-12">
            <stop stop-color="#E2EBFC" offset="0%"></stop>
            <stop stop-color="#BDCCF5" offset="100%"></stop>
        </linearGradient>
        <linearGradient x1="22.7535036%" y1="-18.9689965%" x2="93.9145766%" y2="117.364425%" id="linearGradient-13">
            <stop stop-color="#D0DFF3" offset="0%"></stop>
            <stop stop-color="#A3BBE3" offset="100%"></stop>
        </linearGradient>
        <linearGradient x1="18.0906271%" y1="5.45340867%" x2="100%" y2="95.5578932%" id="linearGradient-14">
            <stop stop-color="#D0DFF3" offset="0%"></stop>
            <stop stop-color="#A3BBE3" offset="100%"></stop>
        </linearGradient>
        <linearGradient x1="17.7291725%" y1="17.8538208%" x2="83.6650214%" y2="87.2760297%" id="linearGradient-15">
            <stop stop-color="#E4EDFA" offset="0%"></stop>
            <stop stop-color="#C5D6F4" offset="100%"></stop>
        </linearGradient>
        <linearGradient x1="50%" y1="100%" x2="50%" y2="3.061617e-15%" id="linearGradient-16">
            <stop stop-color="#E4EDFA" offset="0%"></stop>
            <stop stop-color="#C5D6F4" offset="100%"></stop>
        </linearGradient>
        <linearGradient x1="55.3538603%" y1="-49.000651%" x2="55.353862%" y2="100%" id="linearGradient-17">
            <stop stop-color="#E4EDFA" offset="0%"></stop>
            <stop stop-color="#C1CFF5" offset="100%"></stop>
        </linearGradient>
        <linearGradient x1="50%" y1="34.152238%" x2="36.8316334%" y2="87.5636248%" id="linearGradient-18">
            <stop stop-color="#FFD9C7" offset="0%"></stop>
            <stop stop-color="#F5B7AB" offset="100%"></stop>
        </linearGradient>
        <linearGradient x1="-1.11022302e-14%" y1="50%" x2="73.608557%" y2="55.8193812%" id="linearGradient-19">
            <stop stop-color="#555E8B" offset="0%"></stop>
            <stop stop-color="#2A3357" offset="100%"></stop>
        </linearGradient>
        <linearGradient x1="16.7101233%" y1="54.2737481%" x2="70.1215101%" y2="67.4421147%" id="linearGradient-20">
            <stop stop-color="#FFD9C7" offset="0%"></stop>
            <stop stop-color="#F5B7AB" offset="100%"></stop>
        </linearGradient>
        <linearGradient x1="10.3186924%" y1="8.00674295%" x2="36.3790822%" y2="50%" id="linearGradient-21">
            <stop stop-color="#FDB761" offset="0%"></stop>
            <stop stop-color="#FB8032" offset="100%"></stop>
        </linearGradient>
        <linearGradient x1="-1.11022302e-14%" y1="50%" x2="100%" y2="50%" id="linearGradient-22">
            <stop stop-color="#E4EDFA" offset="0%"></stop>
            <stop stop-color="#C5D6F4" offset="100%"></stop>
        </linearGradient>
        <linearGradient x1="50%" y1="0%" x2="50%" y2="100%" id="linearGradient-23">
            <stop stop-color="#FAD961" offset="0%"></stop>
            <stop stop-color="#F76B1C" offset="100%"></stop>
        </linearGradient>
        <linearGradient x1="55.3538603%" y1="-49.000651%" x2="55.353862%" y2="100%" id="linearGradient-24">
            <stop stop-color="#E4ECF8" offset="0%"></stop>
            <stop stop-color="#CDD8F5" offset="100%"></stop>
        </linearGradient>
        <linearGradient x1="50%" y1="0%" x2="50%" y2="100%" id="linearGradient-25">
            <stop stop-color="#D3DEF6" offset="0%"></stop>
            <stop stop-color="#B8C8ED" offset="100%"></stop>
        </linearGradient>
    </defs>
    <g id="Page-1" stroke="none" stroke-width="1" fill="none" fill-rule="evenodd">
        <g id="注册-手机新用户" transform="translate(-37.000000, -95.000000)">
            <g id="Group-3" transform="translate(37.000000, 95.000000)">
                <g id="人物">
                    <mask id="mask-3" fill="white">
                        <use xlink:href="#path-2"></use>
                    </mask>
                    <use id="Path-40" fill="url(#linearGradient-1)" xlink:href="#path-2"></use>
                    <g id="Group-2" mask="url(#mask-3)" opacity="0.24">
                        <g transform="translate(182.000000, 33.000000)" id="Rectangle-15-Copy-13">
                            <polygon fill="url(#linearGradient-4)" points="1.6436257 0 59.9018555 0 58.3236084 3.04223633 0 3.04223633"></polygon>
                            <polygon fill="#6F97E8" points="1.6436257 0 4.05419922 0 2.47595215 3.04223633 0 3.04223633"></polygon>
                        </g>
                    </g>
                    <g id="商城" mask="url(#mask-3)">
                        <g transform="translate(153.000000, 109.000000) scale(-1, 1) translate(-153.000000, -109.000000) translate(112.000000, 87.000000)">
                            <polygon id="Rectangle-15" stroke="none" fill="#FFD250" fill-rule="evenodd" opacity="0.251785714" points="5 6 63.4130859 6 77.6308594 37.4512232 19.2177734 37.4512232"></polygon>
                            <polygon id="Rectangle-15-Copy" stroke="none" fill="#FFD250" fill-rule="evenodd" opacity="0.0992745536" points="0 12 58.4130859 12 72.6308594 43.4512232 14.2177734 43.4512232"></polygon>
                            <mask id="mask-6" fill="white">
                                <use xlink:href="#path-5"></use>
                            </mask>
                            <use id="Rectangle-15" stroke="none" fill="#FFD250" fill-rule="evenodd" xlink:href="#path-5"></use>
                            <g id="suv" stroke="none" stroke-width="1" fill="none" fill-rule="evenodd" mask="url(#mask-6)">
                                <g transform="translate(20.044846, 11.006837)" fill="#FFFFFF">
                                    <path d="M10.9070618,8.85829298 L16.8125904,8.85829298 C17.084385,8.85829298 17.1990177,8.63796017 17.0686298,8.36616559 C16.938242,8.09437102 16.612209,7.8740382 16.3404144,7.8740382 L10.4348858,7.8740382 C10.1630912,7.8740382 10.0484585,8.09437102 10.1788464,8.36616559 C10.3092343,8.63796017 10.6352672,8.85829298 10.9070618,8.85829298 Z M16.291167,2.95276433 L15.1532582,2.37798414 C13.3541157,1.46920252 11.5197991,0.984254775 9.88146918,0.984254775 L9.17012364,0.984254775 L10.4565081,2.95276433 L16.291167,2.95276433 Z M18.3539618,3.93701516 C18.3535088,3.9370168 15.7431936,3.93701812 10.5230161,3.9370191 C10.5190822,3.93709128 8.90826942,3.93709128 5.69057765,3.9370191 C5.070975,3.9370191 4.34758436,3.64529731 3.73802921,3.14961528 L2.2701742,1.95597457 C2.15212398,2.07458121 2.04506362,2.20342508 1.94976095,2.34216071 L1.13795706,3.52393377 C1.07373146,3.61742912 1.07643322,3.75392065 1.14535321,3.89758493 L1.40035895,4.42914649 L2.347777,4.42914649 C2.61957109,4.42914649 2.94560453,4.6494793 3.07599239,4.92127388 C3.20638025,5.19306845 3.09174709,5.41340126 2.81995301,5.41340126 L1.87253495,5.41340126 L2.81688696,7.38191082 C2.94727482,7.65370539 3.27330777,7.8740382 3.54510235,7.8740382 L4.03722974,7.8740382 C4.30902431,7.8740382 4.63505726,8.09437102 4.76544513,8.36616559 C4.89583299,8.63796017 4.78120031,8.85829298 4.50940574,8.85829298 L4.01727835,8.85829298 C3.20189512,8.85829298 2.22379553,8.19729405 1.83263218,7.38191082 L0.161098438,3.89758493 C-0.0456615318,3.46659207 -0.0537668359,3.05711846 0.138909717,2.77663193 L0.950713864,1.59485839 C1.65768152,0.565699448 2.91553007,0 4.49692631,0 L9.40929317,0 C11.2419396,0 13.2938183,0.542465622 15.3063503,1.55903496 L18.027287,2.93343307 C18.0940102,2.96713641 18.1619065,2.99118619 18.2275419,3.00436684 C20.6489559,3.49067334 21.8666904,3.73536941 21.8807453,3.73845456 C22.766654,3.93621398 23.6321423,4.73779304 23.813867,5.52883073 L24.3218349,7.73998615 C24.4728211,8.39722277 24.1034823,8.85829298 23.4260182,8.85829298 L23.2102465,8.85829298 C22.9384519,8.85829298 22.6124189,8.63796017 22.4820311,8.36616559 C22.3516432,8.09437102 22.4662759,7.8740382 22.7380705,7.8740382 L22.9538422,7.8740382 C23.1796638,7.8740382 23.3027768,7.7203483 23.252448,7.50126942 L22.7728032,5.41340126 L21.9008253,5.41340126 C21.6290308,5.41340126 21.3029978,5.19306845 21.1726099,4.92127388 C21.0905979,4.75031916 21.1055217,4.59972424 21.1955177,4.51151041 L18.474959,3.96518355 C18.4348787,3.95713481 18.394517,3.94773518 18.3539618,3.93701516 Z M2.90670425,1.47311345 L4.24212743,2.55906242 C4.54690512,2.80690367 4.90860008,2.95276433 5.21840165,2.95276433 L9.45750626,2.95276433 L8.17112178,0.984254775 L4.96910231,0.984254775 C4.17158035,0.984254775 3.47070614,1.15323754 2.90670425,1.47311345 Z" id="SUV" fill-rule="nonzero"></path>
                                    <path d="M20.5191844,10.4291465 C19.2961096,10.4291465 17.8289602,9.43764809 17.2422152,8.21457324 C16.6554702,6.9914984 17.1713176,6 18.3943924,6 C19.6174673,6 21.0846167,6.9914984 21.6713617,8.21457324 C22.2581067,9.43764809 21.7422593,10.4291465 20.5191844,10.4291465 Z M20.0470084,9.44489171 C20.7264946,9.44489171 21.0130764,8.89405943 20.6871069,8.21457324 C20.3611374,7.53508705 19.5460546,6.98425478 18.8665684,6.98425478 C18.1870822,6.98425478 17.9005004,7.53508705 18.22647,8.21457324 C18.5524395,8.89405943 19.3675223,9.44489171 20.0470084,9.44489171 Z" id="Combined-Shape" fill-rule="evenodd"></path>
                                    <path d="M8.51918445,10.4291465 C7.2961096,10.4291465 5.82896022,9.43764809 5.2422152,8.21457324 C4.65547017,6.9914984 5.17131759,6 6.39439243,6 C7.61746728,6 9.08461666,6.9914984 9.67136168,8.21457324 C10.2581067,9.43764809 9.74225929,10.4291465 8.51918445,10.4291465 Z M8.04700844,9.44489171 C8.72649463,9.44489171 9.01307645,8.89405943 8.68710691,8.21457324 C8.36113737,7.53508705 7.54605463,6.98425478 6.86656844,6.98425478 C6.18708225,6.98425478 5.90050043,7.53508705 6.22646997,8.21457324 C6.55243951,8.89405943 7.36752226,9.44489171 8.04700844,9.44489171 Z" id="Combined-Shape" fill-rule="evenodd"></path>
                                </g>
                            </g>
                            <polygon id="Rectangle-15-Copy-2" stroke="none" fill="#FFFFFF" fill-rule="evenodd" opacity="0.497823661" mask="url(#mask-6)" points="39 6 66.288109 6 67.7512603 9.00253906 40.3905426 9.00253906"></polygon>
                            <polygon id="Rectangle-15-Copy-4" stroke="none" fill="#FFFFFF" fill-rule="evenodd" opacity="0.497823661" mask="url(#mask-6)" points="51 13 69.288109 13 70.7512603 16.0025391 52.3905426 16.0025391"></polygon>
                            <polygon id="Rectangle-15-Copy-3" stroke="none" fill="#FFFFFF" fill-rule="evenodd" opacity="0.5" mask="url(#mask-6)" points="49.0174561 21 70.4160901 21 71.9686342 24.1859824 50.4686342 24.1859824"></polygon>
                        </g>
                    </g>
                    <g id="商城-copy" mask="url(#mask-3)">
                        <g transform="translate(241.000000, 59.000000) scale(-1, 1) translate(-241.000000, -59.000000) translate(186.000000, 31.000000)">
                            <polygon id="Rectangle-15" stroke="none" fill="#6F97E8" fill-rule="evenodd" opacity="0.251785714" points="5 8 85.794888 8 104 48 23.205112 48"></polygon>
                            <polygon id="Rectangle-15-Copy" stroke="none" fill="#6F97E8" fill-rule="evenodd" opacity="0.0992745536" points="0 16 80.794888 16 99 56 18.205112 56"></polygon>
                            <mask id="mask-8" fill="white">
                                <use xlink:href="#path-7"></use>
                            </mask>
                            <use id="Rectangle-15" stroke="none" fill="#FFFFFF" fill-rule="evenodd" xlink:href="#path-7"></use>
                            <polygon id="Rectangle-15-Copy-4" stroke="none" fill="#B9CDF3" fill-rule="evenodd" opacity="0.5" mask="url(#mask-8)" points="22 6 45.1480279 6 46.5114746 9 23.2715427 9"></polygon>
                            <polygon id="Rectangle-15-Copy-5" stroke="none" fill="#DCE6F9" fill-rule="evenodd" opacity="0.5" mask="url(#mask-8)" points="29 23 52.1480279 23 53.5114746 26 30.2715427 26"></polygon>
                            <polygon id="Rectangle-15-Copy-3" stroke="none" fill="#B9CDF3" fill-rule="evenodd" opacity="0.5" mask="url(#mask-8)" points="30 12 47.5385032 12 49.0800797 15.0422363 31.4584961 15.0422363"></polygon>
                            <polygon id="Rectangle-15-Copy-6" stroke="none" fill="#DCE6F9" fill-rule="evenodd" opacity="0.5" mask="url(#mask-8)" points="45 29 54.5385032 29 56.0800797 32.0422363 46.4584961 32.0422363"></polygon>
                            <path d="M51.0000947,9.63947213 L57.9685059,11.1921387 L55.5824589,5.00255484 C56.0991401,4.98739609 56.6425354,5.03944381 57.2033101,5.16538166 C60.6293036,5.9347856 63.4066202,9.17075835 63.4066202,12.3931291 C63.4066202,15.6154998 60.6293036,17.6040223 57.2033101,16.8346183 C53.7888702,16.0678091 51.0187395,12.8510392 51.0000947,9.63947213 Z" id="Combined-Shape" stroke="none" fill="#B9CDF3" fill-rule="evenodd" opacity="0.56015625" mask="url(#mask-8)"></path>
                            <path d="M63.0974668,33.4938318 L64.5751953,28.1079102 L62.2297495,22.0236489 C62.8497033,21.9673373 63.5133523,22.0104321 64.2033101,22.1653817 C67.6293036,22.9347856 70.4066202,26.1707584 70.4066202,29.3931291 C70.4066202,32.6154998 67.6293036,34.6040223 64.2033101,33.8346183 C63.8258739,33.7498543 63.4563107,33.6351534 63.0974668,33.4938318 Z" id="Combined-Shape" stroke="none" fill="#DCE6F9" fill-rule="evenodd" opacity="0.56015625" mask="url(#mask-8)"></path>
                            <path d="M79.3534862,31.3510168 L71.0107167,13.3435126 L73.204087,13.3865305 L81.4182423,31.3510168 L79.3534862,31.3510168 Z M84.1379609,31.3510168 L78.4104004,18.5457847 L80.4123846,18.5457847 L86.0206701,31.3510168 L84.1379609,31.3510168 Z M88.6454559,31.3510168 L79.522554,11.5263202 L81.7159244,11.5693381 L90.710212,31.3510168 L88.6454559,31.3510168 Z M93.4374671,31.3510168 L81.9052936,6.22302263 L83.8842773,6.07507324 L95.3201763,31.3510168 L93.4374671,31.3510168 Z M98.0722345,31.3510168 L91.630127,17.0169762 L93.6419659,17.0169762 L99.9549437,31.3510168 L98.0722345,31.3510168 Z" id="Combined-Shape" stroke="none" fill="#D8E3F8" fill-rule="evenodd" mask="url(#mask-8)"></path>
                        </g>
                    </g>
                    <g id="Group" mask="url(#mask-3)">
                        <g transform="translate(66.000000, 50.000000)">
                            <polygon id="Rectangle-15-Copy-7" fill="#79809D" opacity="0.5" points="95.6202827 0 118.768311 0 116.622559 3 94 3"></polygon>
                            <polygon id="Rectangle-15-Copy-9" fill="#79809D" opacity="0.248883929" points="80.6202827 0 92.7683105 0 90.6225586 3 79 3"></polygon>
                            <polygon id="Rectangle-15-Copy-8" fill="#79809D" opacity="0.5" points="77.6436257 6 105.182129 6 103.214357 9.04223633 76 9.04223633"></polygon>
                            <polygon id="Rectangle-15-Copy-11" fill="#79809D" opacity="0.237555804" points="108.643626 6 118.761719 6 116.793947 9.04223633 107 9.04223633"></polygon>
                            <polygon id="Rectangle-15-Copy-10" fill="#FD486A" opacity="0.5" points="74.6436257 12 79.293457 12 77.3256852 15.0422363 73 15.0422363"></polygon>
                            <polygon id="Rectangle-15-Copy-13" fill="#FD486A" opacity="0.24" points="71.6436257 18 92.3547363 18 90.3869645 21.0422363 70 21.0422363"></polygon>
                            <polygon id="Rectangle-15-Copy-12" fill="#79809D" opacity="0.5" points="82.6436257 12 115.719482 12 113.751711 15.0422363 81 15.0422363"></polygon>
                            <path d="M60.5569953,12 C63.8707038,12 68.0274819,9.3137085 69.8414191,6 C71.6553563,2.6862915 70.4395514,0 67.1258429,0 C63.8121344,0 59.6553563,2.6862915 57.8414191,6 C56.0274819,9.3137085 57.2432868,12 60.5569953,12 Z" id="z" fill="url(#linearGradient-9)"></path>
                            <path d="M136.719127,76.2942426 C142.047085,76.2942426 148.730576,71.9750793 151.647121,66.6471213 C154.563667,61.3191633 152.60883,57 147.280873,57 C141.952915,57 135.269424,61.3191633 132.352879,66.6471213 C129.436333,71.9750793 131.39117,76.2942426 136.719127,76.2942426 Z" id="z-copy" fill="url(#linearGradient-10)" opacity="0.647377232"></path>
                            <g id="Group-2" stroke-width="1" fill="none" transform="translate(135.000000, 48.000000)" opacity="0.24">
                                <polygon id="Rectangle-15-Copy-13" fill="url(#linearGradient-11)" points="1.6436257 0 59.9018555 0 58.3236084 3.04223633 0 3.04223633"></polygon>
                                <polygon id="Rectangle-15-Copy-13" fill="#FF5D2E" points="1.6436257 0 4.05419922 0 2.47595215 3.04223633 0 3.04223633"></polygon>
                            </g>
                            <g id="Group-2-Copy" stroke-width="1" fill="none" transform="translate(30.000000, 93.000000) scale(-1, 1) translate(-30.000000, -93.000000) translate(0.000000, 91.000000)" opacity="0.24">
                                <polygon id="Rectangle-15-Copy-13" fill="url(#linearGradient-4)" points="1.6436257 0 59.9018555 0 58.3236084 3.04223633 0 3.04223633"></polygon>
                                <polygon id="Rectangle-15-Copy-13" fill="#6F97E8" points="1.6436257 0 4.05419922 0 2.47595215 3.04223633 0 3.04223633"></polygon>
                            </g>
                        </g>
                    </g>
                    <g id="叶子" mask="url(#mask-3)">
                        <g transform="translate(127.069860, 198.812593) scale(-1, 1) rotate(-22.000000) translate(-127.069860, -198.812593) translate(87.069860, 144.812593)">
                            <path d="M61.4147852,107.612399 C41.2154905,99.1273768 29.7668602,91.1738902 27.0688942,83.7519387 C23.0219454,72.6190114 31.1330956,67.8046553 27.3180827,59.6888048 C23.5030698,51.5729542 13.496886,48.5901807 10.1061346,38.4546736 C6.71538318,28.3191665 11.8339329,23.1077228 11.8339329,15.8241693 C11.8339329,8.54061579 11.1106111,4.33897063 0.980403155,0.246100937 C11.3903201,-0.373349493 14.6686713,2.43032409 19.6463164,7.78761942 C24.6239615,13.1449147 23.0562719,15.271561 30.1093211,20.3999234 C37.1623703,25.5282857 46.9982298,23.7146074 52.0330542,29.2576865 C57.0678785,34.8007657 52.5498052,43.289724 58.2594392,48.7402197 C63.9690732,54.1907153 71.417464,54.9012756 77.3308771,62.3308629 C81.2731526,67.2839211 78.2981588,80.8191747 68.4058957,102.936624 L61.4147852,107.612399 Z" id="Path-45" fill="url(#linearGradient-12)"></path>
                            <path d="M61.6100267,96.5885351 C56.8605886,72.9005216 43.4469392,51.956294 21.3690786,33.7558523 C44.3794555,50.3373554 58.3627638,70.6887781 63.3190036,94.8101206 C65.1659013,99.5948741 61.6100267,98.0211932 61.6100267,96.5885351 Z" id="Path-46" fill="#A3BBE3" opacity="0.413783482" transform="translate(42.609982, 65.893673) rotate(12.000000) translate(-42.609982, -65.893673) "></path>
                            <path d="M38.0103028,55.9172615 C36.4898111,51.2115925 32.6257608,45.6947534 26.418152,39.3667443 C32.9907111,45.1981923 37.0732607,50.4868357 38.6658007,55.2326746 C39.2002312,56.8253008 38.5318587,57.5313904 38.0103028,55.9172615 Z" id="Path-46" fill="url(#linearGradient-13)" opacity="0.413783482" transform="translate(32.640300, 48.099540) rotate(-45.000000) translate(-32.640300, -48.099540) "></path>
                            <path d="M47.1306904,72.4749808 C45.8506724,68.5135378 42.5977418,63.8692156 37.3718986,58.542014 C42.9049733,63.4511882 46.3418465,67.9034051 47.6825179,71.8986649 C48.1324255,73.239409 47.5697596,73.8338268 47.1306904,72.4749808 Z" id="Path-46-Copy-2" fill="#A3BBE3" opacity="0.413783482" transform="translate(42.609982, 65.893673) rotate(-29.000000) translate(-42.609982, -65.893673) "></path>
                            <path d="M52.8318818,91.2683502 C50.6892862,84.6373729 45.244273,76.8633381 36.4968424,67.9462458 C45.7585415,76.1636107 51.5114522,83.6160843 53.7555744,90.3036668 C54.5086653,92.5479106 53.5668305,93.5428943 52.8318818,91.2683502 Z" id="Path-46-Copy-3" fill="#A3BBE3" opacity="0.413783482" transform="translate(45.264762, 80.252035) rotate(-8.000000) translate(-45.264762, -80.252035) "></path>
                            <path d="M51.0912232,49.9556794 C49.6062715,46.087248 46.3199011,41.8932396 41.2321119,37.373654 C46.3780631,40.861659 49.858372,44.5638463 51.6730386,48.480216 C52.4093573,50.0693213 51.6664922,51.4543064 51.0912232,49.9556794 Z" id="Path-46-Copy" fill="url(#linearGradient-14)" opacity="0.413783482" transform="translate(46.606464, 43.985951) scale(-1, 1) rotate(21.000000) translate(-46.606464, -43.985951) "></path>
                            <path d="M62.1026285,74.1276943 C60.6176769,70.259263 57.3313064,66.0652545 52.2435172,61.545669 C57.3894684,65.0336739 60.8697773,68.7358612 62.6844439,72.652231 C63.4207626,74.2413363 62.6778975,75.6263213 62.1026285,74.1276943 Z" id="Path-46-Copy-4" fill="#A3BBE3" opacity="0.413783482" transform="translate(57.617869, 68.157966) scale(-1, 1) rotate(-1.000000) translate(-57.617869, -68.157966) "></path>
                        </g>
                    </g>
                    <g id="植物" mask="url(#mask-3)">
                        <g transform="translate(22.000000, 108.000000)">
                            <path d="M25.7023734,50.028865 C21.3306486,50.6123198 17.708192,48.6068587 14.8350037,44.0124818 C10.5252213,37.1209164 14.0079889,33.4133616 4.02798472,27.9730287 C9.81844361,27.0281386 15.5979997,28.7389038 20.657848,33.8700421 C24.0310803,37.290801 25.7125887,42.6770753 25.7023734,50.028865 Z" id="Path-44-Copy-2" fill="url(#linearGradient-15)" fill-rule="evenodd" transform="translate(14.865202, 38.926257) scale(1, -1) rotate(-252.000000) translate(-14.865202, -38.926257) "></path>
                            <polygon id="Path-43" fill="url(#linearGradient-16)" fill-rule="nonzero" points="29 100 27 100 27 3 29 3"></polygon>
                            <path d="M49.6701387,22.690225 C42.0723594,20.3907071 37.0865543,18.0047332 34.7127234,15.5323032 C31.151977,11.8236582 31.2783931,4.48445709 26.6990273,1.1526408 C33.0151061,0.121979684 39.045848,0.440998564 44.5649963,6.03790799 C48.2444285,9.76918094 49.9461426,15.3199533 49.6701387,22.690225 Z" id="Path-44-Copy" fill="url(#linearGradient-15)" fill-rule="evenodd" transform="translate(38.199027, 11.690225) scale(-1, -1) rotate(-91.000000) translate(-38.199027, -11.690225) "></path>
                            <path d="M14,92 L48,92 L48,116 C48,119.313708 45.3137085,122 42,122 L20,122 C16.6862915,122 14,119.313708 14,116 L14,92 Z" id="Rectangle-2" fill="url(#linearGradient-17)" fill-rule="evenodd"></path>
                        </g>
                    </g>
                    <g id="女性" mask="url(#mask-3)">
                        <g transform="translate(62.000000, 42.000000)">
                            <path d="M65.9855083,67.8112689 C65.9855083,67.8112689 72.4384163,66.0963233 72.4384163,67.8112689 C72.4384163,69.5262145 72.1129075,71.6468708 70.790027,73.542337 C69.4671465,75.4378032 61.5857567,79.7009902 54.6802059,80.5483317 C55.1629332,77.6745852 56.157327,75.0821346 57.6633873,72.7709799 L59.7465519,69.7700554 C63.9058562,68.4641977 65.9855083,67.8112689 65.9855083,67.8112689 Z" id="Path-38" fill="#F5B7AB"></path>
                            <polygon id="Path-39" fill="#8F8F8F" points="74.5026245 53.3848267 57.6849199 76.7295385 68.8069661 77.9010802 75.3684534 54.7002705"></polygon>
                            <polygon id="Path-39" fill="#FFFFFF" points="63.6983477 53.401123 56.8709099 75.430391 67.9929561 76.6019328 74.5544434 53.401123"></polygon>
                            <polygon id="Path-39" fill="#40495F" points="64.0108076 55.2005615 58.9720459 71.5670166 68.4468988 72.2003811 73.1829209 55.2005615"></polygon>
                            <path d="M62.6056519,75.03302 C63.2960078,74.8978759 63.8556519,74.2286758 63.8556519,73.5383199 C63.8556519,72.847964 63.2960078,72.3978759 62.6056519,72.53302 C61.9152959,72.6681642 61.3556519,73.3373642 61.3556519,74.0277201 C61.3556519,74.7180761 61.9152959,75.1681642 62.6056519,75.03302 Z" id="Oval" fill="#D8D8D8"></path>
                            <path d="M36.34932,83.2266678 C44.9798458,79.2917488 50.5287282,76.4324317 52.9959672,74.6487164 C56.6968256,71.9731434 56.2539183,70.9634715 56.9649523,69.8973869 C57.6759862,68.8313023 58.6567503,67.612443 61.1094051,67.612443 C63.5620599,67.612443 65.7390287,68.5589096 66.2251157,69.1777222 C66.7112027,69.7965348 66.2251157,71.437338 65.1748288,71.437338 C64.1245419,71.437338 60.8891541,70.6528563 59.9239668,71.437338 C58.9587794,72.2218197 58.6688911,73.6969538 58.6688911,74.9405656 C58.6688911,76.1841775 59.9546622,78.3380547 56.6388708,80.8648184 C53.3230794,83.3915821 42.2430676,93.4320676 33.592689,93.0056337 C29.0486995,91.6508083 29.9675765,88.391153 36.34932,83.2266678 Z" id="Path-37" fill="url(#linearGradient-18)"></path>
                            <path d="M3.94917052,117.711396 C1.28126608,123.094163 0.716837063,128.728985 2.25588349,134.615859 C4.56445313,143.446171 13.6659801,155.682888 13.6659801,166.641224 C13.6659801,177.599561 8.30223901,186.498949 7.35177951,188.563884 C7.35177951,192.590598 20.2850839,198.096476 20.2850839,198.096476 C20.2850839,198.096476 27.557147,143.07638 25.5798129,132.916111 C23.6024788,122.755841 14.3411699,115.834811 12.6433015,115.834811 C11.5113892,115.834811 8.61334555,116.460339 3.94917052,117.711396 Z" id="Path-35" fill="#2A3357"></path>
                            <path d="M41.458044,120.52328 C44.1635159,132.317599 44.1635159,142.394976 41.458044,150.755413 C37.399836,163.296067 29.3997878,176.837414 28.5407745,188.176594 C27.968099,195.736047 26.3119213,197.963849 23.5722415,194.86 L8.81462191,190.871047 C11.9140947,186.105365 14.1073656,180.259783 15.3944348,173.334301 C17.3250386,162.946078 16.1705247,151.764394 14.217472,146.146151 C12.2644194,140.527908 4.34683642,131.37662 8.81462191,123.025701 C11.7931456,117.458421 16.1216564,114.805567 21.8001543,115.067138 L41.458044,120.52328 Z" id="Path-34" fill="url(#linearGradient-19)"></path>
                            <path d="M24.7950183,41.3645425 C22.7700376,46.8820866 21.7575473,50.5508298 21.7575473,52.3707721 C21.7575473,54.1907143 16.5535301,54.5988812 6.14549576,53.5952727 C8.38091564,45.6505248 10.1917921,38.9927537 11.578125,33.6219592 C13.4623039,34.9801617 17.867935,37.5610228 24.7950183,41.3645425 Z" id="Path-32" fill="url(#linearGradient-20)"></path>
                            <path d="M39.7676951,42.8786617 C33.5763651,36.5302042 34.3802871,28.4374819 42.179461,18.6004949 C50.5260672,8.07303934 34.1345591,1.06717611 28.7954212,0.565332186 C23.4562834,0.0634882626 16.3169613,0.446795619 9.91672117,8.5054044 C3.51648106,16.5640132 0.260550388,32.5800639 10.4914071,38.3329604 C10.849389,36.3579769 12.1575525,35.5826773 14.4840846,37.1398488 C16.8106167,38.6970202 19.3851441,43.10705 27.633206,44.1506413 C33.1319139,44.8463688 37.1767436,44.4223756 39.7676951,42.8786617 Z" id="Path-31" fill="#2A2C37"></path>
                            <path d="M2.13676698,72.8612402 C1.60097174,71.1000132 -4.30285494,60.751164 7.4264564,48.8137797 C9.73548418,54.17782 15.222174,46.6857551 22.676577,48.0636062 C28.8216146,58.5856077 37.3952546,70.0638619 39.1911651,73.169783 C40.9870756,76.2757042 40.2698568,80.1806132 38.3633054,85.3581462 C37.0922711,88.8098349 38.8865017,100.560712 43.7459973,120.610777 C35.7940538,122.43141 29.6351956,122.937705 25.2694227,122.12966 C18.7207634,120.917593 14.2529779,122.590172 10.7839386,123.144052 C7.31489921,123.697933 4.9476876,121.650498 1.60830199,122.12966 C3.0056303,120.038937 7.4264564,108.658426 7.4264564,100.503685 C7.4264564,92.3489441 2.67256221,74.6224672 2.13676698,72.8612402 Z" id="Path-33" fill="url(#linearGradient-21)"></path>
                            <path d="M30.9171489,120.304537 C30.9171489,120.304537 35.2307702,128.364413 35.4742718,130.354284 C35.7177734,132.344155 34.0246009,134.540911 35.9900234,136.980702 C37.9554458,139.420493 38.4377532,140.977368 38.1328607,142.232262 C37.9295991,143.068858 37.0434028,143.898202 35.4742718,144.720292 C35.7681859,145.940494 36.629422,146.686063 38.0579802,146.956997 C40.2008176,147.363399 43.8693516,144.720292 44.7905575,143.520313 C45.2864945,141.8254 44.6073013,137.234214 44.4183184,135.401838 C44.2293355,133.569461 41.8621199,130.786313 40.6430122,127.454902 C39.2144158,123.551029 34.7073447,102.141956 30.9171489,96.2423402 C30.6005461,91.7306603 29.3564513,82.1952689 27.1848644,67.6361662 L27.1848154,67.6361735 C26.7036921,64.4105489 23.6987792,62.1856911 20.4731547,62.6668145 C17.3585058,63.131385 15.156423,65.958318 15.4681954,69.0919519 C15.4681954,69.0919519 15.4681954,69.0919519 15.4681954,69.0919519 C15.5512015,69.9262487 20.1749011,96.9202135 20.5924961,99.3254661 C21.0100911,101.730719 22.7167795,103.608973 23.0298032,104.270901 C28.4330754,115.696801 30.9171489,120.304537 30.9171489,120.304537 Z" id="Path-36" fill="url(#linearGradient-18)"></path>
                        </g>
                    </g>
                </g>
                <path d="M52.9711113,116 C45.3733321,113.700482 40.387527,111.314508 38.0136961,108.842078 C34.4529497,105.133433 34.5793658,97.7942321 30,94.4624158 C36.3160788,93.4317547 42.3468207,93.7507736 47.865969,99.347683 C51.5454012,103.078956 53.2471153,108.629728 52.9711113,116 Z" id="Path-44" fill="url(#linearGradient-22)" transform="translate(41.500000, 105.000000) rotate(9.000000) translate(-41.500000, -105.000000) "></path>
                <g id="电脑" transform="translate(183.000000, 114.000000)">
                    <path d="M27.238316,2.42976513 L17.9003906,24.3076172 L1,24.3076172 C0.44771525,24.3076172 -6.76353751e-17,24.7553324 0,25.3076172 L0,26.7695312 C6.76353751e-17,27.321816 0.44771525,27.7695312 1,27.7695312 L60.4648438,27.7695312 L70.756323,2.76111358 C71.1766744,1.73965459 70.6893804,0.570836319 69.6679215,0.150484896 C69.4264718,0.0511233809 69.167903,3.06066208e-15 68.9068079,3.10862447e-15 L30.9172238,1.77635684e-15 C29.3149604,2.07068784e-15 27.8672984,0.956120362 27.238316,2.42976513 Z" id="Path-41" fill="#79809D"></path>
                    <path d="M47.1099248,7.85498816 C46.439841,8.47257829 46,9.34752199 46,10.2201754 C46,11.2586279 46.6228526,12.002887 47.5153569,12.1840856 C46.8374418,13.5909747 45.5173906,14.751073 44,15.1133796 C41.790861,15.6408547 40,14.2775967 40,12.0684577 C40,9.85931871 41.790861,7.64085467 44,7.11337959 C45.2558853,6.81351244 46.3765886,7.12470563 47.1099248,7.85498816 Z" id="Combined-Shape" fill="#D8D8D8" opacity="0.56015625"></path>
                    <path d="M35.9077148,17.5510254 L49.1418457,17.5510254" id="Path-42" stroke="#AEB1BD"></path>
                </g>
                <g id="花盆" transform="translate(206.000000, 170.000000)">
                    <path d="M13.8957927,30.4631043 C14.1501157,16.7591758 11.5181848,6.60480769 6,1.13686838e-13 C11.1335809,4.35130564 14.5512481,13.8830968 16.2530016,28.5953735 C18.2653597,23.0235293 21.9915727,20.6979556 27.4316406,21.6186523 C19.8693034,21.5525716 16.5705401,27.058077 17.5353509,38.1351686 C17.066707,38.7759163 16.560537,38.698215 16.1171666,38.2542317 C15.3927075,39.6055559 14.2938314,40.0936124 13.4949651,38.0089705 C13.5327393,37.563511 13.5679509,37.1212029 13.6006002,36.6820461 C13.422777,36.5780351 13.2350918,36.4006683 13.0409049,36.1351686 C11.8562378,25.4482738 8.50926947,18.2740622 3,14.6125338 C7.18809849,16.46677 10.8200294,21.7502935 13.8957927,30.4631043 Z" id="Combined-Shape" fill="url(#linearGradient-23)" opacity="0.31015625"></path>
                    <path d="M2.63939124,35 L28.6393912,35 L24.9179249,57.328798 C24.7571956,58.2931739 23.9228154,59 22.9451371,59 L8.33364542,59 C7.35596712,59 6.5215869,58.2931739 6.36085757,57.328798 L2.63939124,35 Z" id="Rectangle-17" fill="url(#linearGradient-24)"></path>
                    <polygon id="Rectangle-17-Copy" fill="url(#linearGradient-25)" points="0.345018091 33 30.6402171 33 30.6402171 39 0.345018091 39"></polygon>
                </g>
            </g>
        </g>
    </g>
</svg>