<?xml version="1.0" encoding="UTF-8"?>
<svg width="270px" height="245px" viewBox="0 0 270 245" version="1.1" xmlns="http://www.w3.org/2000/svg" xmlns:xlink="http://www.w3.org/1999/xlink">
    <!-- Generator: Sketch 50.2 (55047) - http://www.bohemiancoding.com/sketch -->
    <title>Group</title>
    <desc>Created with Sketch.</desc>
    <defs>
        <linearGradient x1="50%" y1="0%" x2="50%" y2="100%" id="linearGradient-1">
            <stop stop-color="#F7FAFE" offset="0%"></stop>
            <stop stop-color="#E1ECF6" offset="100%"></stop>
        </linearGradient>
        <linearGradient x1="17.7291725%" y1="17.8538208%" x2="83.6650214%" y2="87.2760297%" id="linearGradient-2">
            <stop stop-color="#E4EDFA" offset="0%"></stop>
            <stop stop-color="#C5D6F4" offset="100%"></stop>
        </linearGradient>
        <linearGradient x1="83.6650214%" y1="87.2760297%" x2="17.7291725%" y2="17.8538208%" id="linearGradient-3">
            <stop stop-color="#E4EDFA" offset="0%"></stop>
            <stop stop-color="#C5D6F4" offset="100%"></stop>
        </linearGradient>
        <linearGradient x1="50%" y1="100%" x2="50%" y2="3.061617e-15%" id="linearGradient-4">
            <stop stop-color="#E4EDFA" offset="0%"></stop>
            <stop stop-color="#C5D6F4" offset="100%"></stop>
        </linearGradient>
        <linearGradient x1="-1.11022302e-14%" y1="50%" x2="100%" y2="50%" id="linearGradient-5">
            <stop stop-color="#E4EDFA" offset="0%"></stop>
            <stop stop-color="#C5D6F4" offset="100%"></stop>
        </linearGradient>
        <linearGradient x1="50%" y1="-2.48949813e-15%" x2="50%" y2="100%" id="linearGradient-6">
            <stop stop-color="#E4EDFA" offset="0%"></stop>
            <stop stop-color="#C5D6F4" offset="100%"></stop>
        </linearGradient>
        <linearGradient x1="9.97231315%" y1="102.502417%" x2="53.5159177%" y2="30.705652%" id="linearGradient-7">
            <stop stop-color="#E4EDFA" offset="0%"></stop>
            <stop stop-color="#C5D6F4" offset="100%"></stop>
        </linearGradient>
        <linearGradient x1="27.8590635%" y1="0%" x2="72.8068572%" y2="96.7542022%" id="linearGradient-8">
            <stop stop-color="#E2EBFC" offset="0%"></stop>
            <stop stop-color="#BDCCF5" offset="100%"></stop>
        </linearGradient>
        <linearGradient x1="22.7535036%" y1="-18.9689965%" x2="93.9145766%" y2="117.364425%" id="linearGradient-9">
            <stop stop-color="#D0DFF3" offset="0%"></stop>
            <stop stop-color="#A3BBE3" offset="100%"></stop>
        </linearGradient>
        <linearGradient x1="18.0906271%" y1="5.45340867%" x2="100%" y2="95.5578932%" id="linearGradient-10">
            <stop stop-color="#D0DFF3" offset="0%"></stop>
            <stop stop-color="#A3BBE3" offset="100%"></stop>
        </linearGradient>
        <linearGradient x1="50%" y1="0%" x2="50%" y2="100%" id="linearGradient-11">
            <stop stop-color="#C1C4D1" offset="0%"></stop>
            <stop stop-color="#ABAEB8" offset="100%"></stop>
        </linearGradient>
        <linearGradient x1="0%" y1="24.9669924%" x2="100%" y2="100%" id="linearGradient-12">
            <stop stop-color="#D1D4DE" offset="0%"></stop>
            <stop stop-color="#ABAEB8" offset="100%"></stop>
        </linearGradient>
        <linearGradient x1="50%" y1="100%" x2="50%" y2="3.061617e-15%" id="linearGradient-13">
            <stop stop-color="#EEEEEE" offset="0%"></stop>
            <stop stop-color="#D8D8D8" offset="100%"></stop>
        </linearGradient>
        <linearGradient x1="50%" y1="-36.3544934%" x2="30.9713725%" y2="60.0455898%" id="linearGradient-14">
            <stop stop-color="#FFC679" offset="0%"></stop>
            <stop stop-color="#40495F" offset="100%"></stop>
        </linearGradient>
        <linearGradient x1="42.2564415%" y1="69.5740598%" x2="47.5509478%" y2="31.1502391%" id="linearGradient-15">
            <stop stop-color="#EFEFEF" offset="0%"></stop>
            <stop stop-color="#D5D5D5" offset="100%"></stop>
        </linearGradient>
        <linearGradient x1="104.978144%" y1="11.5338265%" x2="56.6987537%" y2="15.9314744%" id="linearGradient-16">
            <stop stop-color="#546290" offset="0%"></stop>
            <stop stop-color="#2A3357" offset="100%"></stop>
        </linearGradient>
        <linearGradient x1="50%" y1="0%" x2="50%" y2="100%" id="linearGradient-17">
            <stop stop-color="#FDD3C2" offset="0%"></stop>
            <stop stop-color="#F7BEB1" offset="100%"></stop>
        </linearGradient>
        <linearGradient x1="67.8552515%" y1="87.4265263%" x2="30.9698931%" y2="9.68274748%" id="linearGradient-18">
            <stop stop-color="#FFD9C7" offset="0%"></stop>
            <stop stop-color="#F5B7AB" offset="100%"></stop>
        </linearGradient>
        <linearGradient x1="104.644775%" y1="72.5073242%" x2="-4.31518555%" y2="44.6411133%" id="linearGradient-19">
            <stop stop-color="#FFE0C7" offset="0%"></stop>
            <stop stop-color="#F5BBAB" offset="100%"></stop>
        </linearGradient>
        <linearGradient x1="22.91271%" y1="94.1221924%" x2="41.1111664%" y2="24.8970832%" id="linearGradient-20">
            <stop stop-color="#FFC442" offset="0%"></stop>
            <stop stop-color="#F9AC2C" offset="100%"></stop>
        </linearGradient>
        <linearGradient x1="69.1434972%" y1="36.1449033%" x2="36.1141429%" y2="68.8160342%" id="linearGradient-21">
            <stop stop-color="#FFC442" offset="0%"></stop>
            <stop stop-color="#F9AC2C" offset="100%"></stop>
        </linearGradient>
    </defs>
    <g id="Page-1" stroke="none" stroke-width="1" fill="none" fill-rule="evenodd">
        <g id="注册-手机老用户-默认号码" transform="translate(-65.000000, -90.000000)">
            <g id="Group" transform="translate(57.000000, 89.000000)">
                <path d="M14.5,229.968258 C45.7454916,220.372756 99.1599162,218.042064 114.387716,226.060554 C129.615516,234.079045 124.445051,240.133419 117.734362,244.632777 C177.616432,248.920253 212.39824,238.616526 228.944392,223.952007 C245.490544,209.287489 259.006645,174.059505 204.206712,160.710262 C149.406779,147.361019 161.173607,174.868905 110.18562,167.789584 C59.1976344,160.710262 3.83164993,179.771484 20.0269252,192.767578 C36.2222005,205.763672 47.6330768,213.289036 14.5,229.968258 Z" id="Path-53" fill="url(#linearGradient-1)"></path>
                <g id="植物" transform="translate(34.578125, 122.121094) rotate(-7.000000) translate(-34.578125, -122.121094) translate(7.578125, 62.621094)">
                    <path d="M24.8390548,81.8707834 C20.4673299,82.4542382 16.8448734,80.4487771 13.9716851,75.8544002 C9.66190271,68.9628348 13.1446703,65.25528 3.1646661,59.8149472 C8.95512499,58.870057 14.734681,60.5808222 19.7945294,65.7119605 C23.1677617,69.1327194 24.8492701,74.5189937 24.8390548,81.8707834 Z" id="Path-44-Copy-2" fill="url(#linearGradient-2)" transform="translate(14.001884, 70.768176) scale(1, -1) rotate(-252.000000) translate(-14.001884, -70.768176) "></path>
                    <path d="M38.0871016,57.8331858 C33.7153768,58.4166406 30.0929203,56.4111795 27.219732,51.8168026 C22.9099496,44.9252372 26.3927172,41.2176823 16.412713,35.7773495 C22.2031719,34.8324593 27.9827279,36.5432246 33.0425763,41.6743629 C36.4158086,45.0951217 38.097317,50.481396 38.0871016,57.8331858 Z" id="Path-44-Copy-2" fill="url(#linearGradient-3)" transform="translate(27.249930, 46.730578) scale(-1, 1) rotate(-287.000000) translate(-27.249930, -46.730578) "></path>
                    <path d="M32.5449219,118.512695 L29.4692383,118.512695 C23.7878419,99.3584319 21.3034669,87.4865243 22.0161133,82.8969727 C23.0850829,76.0126452 30.4238281,74.2119141 33.96875,61.2436523 C36.3320312,52.5981445 34.0091146,38.8502604 27,20 L29,20 C35.0169271,39.5566406 37.2596029,53.3045247 35.7280273,61.2436523 C33.4306641,73.1523437 26.3310547,75.4042969 24.6010742,82.8969727 C23.4477539,87.8920898 26.0957031,99.7639974 32.5449219,118.512695 Z" id="Path-43" fill="url(#linearGradient-4)" fill-rule="nonzero"></path>
                    <path d="M49.6701387,85.690225 C42.0723594,83.3907071 37.0865543,81.0047332 34.7127234,78.5323032 C31.151977,74.8236582 31.2783931,67.4844571 26.6990273,64.1526408 C33.0151061,63.1219797 39.045848,63.4409986 44.5649963,69.037908 C48.2444285,72.7691809 49.9461426,78.3199533 49.6701387,85.690225 Z" id="Path-44-Copy" fill="url(#linearGradient-2)" transform="translate(38.199027, 74.690225) scale(-1, -1) rotate(-61.000000) translate(-38.199027, -74.690225) "></path>
                    <path d="M31.5503064,24 C23.9525271,21.7004821 18.9667221,19.3145082 16.5928911,16.8420783 C13.0321447,13.1334333 13.1585608,5.79423213 8.57919503,2.46241583 C14.8952738,1.43175472 20.9260158,1.7507736 26.445164,7.34768302 C30.1245962,11.078956 31.8263103,16.6297283 31.5503064,24 Z" id="Path-44" fill="url(#linearGradient-5)" transform="translate(20.079195, 13.000000) rotate(9.000000) translate(-20.079195, -13.000000) "></path>
                </g>
                <g id="Group-8" transform="translate(97.342436, 148.384801) scale(-1, 1) rotate(-6.000000) translate(-97.342436, -148.384801) translate(65.342436, 97.384801)">
                    <path d="M24.5517343,48.9443007 C43.7612134,32.0662355 18.527975,30.3457386 41.7520961,0.759312803 C24.7550258,26.4238636 46.2726039,34.1758167 25.3502406,49.5244495 C24.239889,49.5244495 24.7964853,49.2387343 24.5517343,48.9443007 Z" id="Path-8" fill="url(#linearGradient-6)" transform="translate(33.151915, 25.141881) scale(-1, 1) rotate(-36.000000) translate(-33.151915, -25.141881) "></path>
                    <path d="M32.7888787,97.5516706 C33.8578483,90.6673431 41.1965935,88.866612 44.7415154,75.8983503 C46.8763484,68.0885665 45.1871837,56.115178 39.6740211,39.9781848 C39.2807125,38.826973 39.3136273,37.0524774 39.7727654,34.654698 C45.7896925,54.2113386 48.0323683,67.9592227 46.5007927,75.8983503 C44.2034295,87.8070417 37.1038201,90.0589948 35.3738396,97.5516706 C33.6438592,105.044346 31.7199091,104.435998 32.7888787,97.5516706 Z" id="Path-43" fill="url(#linearGradient-4)" fill-rule="nonzero" transform="translate(39.724038, 68.800078) scale(-1, 1) rotate(31.000000) translate(-39.724038, -68.800078) "></path>
                    <path d="M29.926038,5.85596664 C12.9289677,31.5205174 29.4007612,33.0561725 13.3990528,54.4633808 C12.2005713,45.3032597 6.70191695,35.4423924 29.926038,5.85596664 Z" id="Path-8" fill="url(#linearGradient-7)" transform="translate(20.949760, 30.159674) rotate(-31.000000) translate(-20.949760, -30.159674) "></path>
                </g>
                <g id="叶子" transform="translate(231.868395, 156.554044) scale(-1, 1) rotate(-8.000000) translate(-231.868395, -156.554044) translate(191.868395, 99.554044)">
                    <path d="M44.231332,62.7471904 C44.231332,59.8624248 34.0067226,20.1710185 63.575082,0.088987268 C34.0067226,14.8448466 33.0301601,65.6885966 34.9705898,67.4307841 C36.9110195,69.1729716 44.231332,65.631956 44.231332,62.7471904 Z" id="Path-7" fill="url(#linearGradient-8)" transform="translate(48.965384, 33.990927) scale(-1, 1) translate(-48.965384, -33.990927) "></path>
                    <path d="M41.8477503,65.7148321 C41.8477503,63.4224331 33.7226934,31.8813816 57.2193955,15.923056 C33.7226934,27.6489021 32.9466613,68.052241 34.4886372,69.4366824 C36.0306131,70.8211238 41.8477503,68.0072312 41.8477503,65.7148321 Z" id="Path-7" fill="url(#linearGradient-8)" transform="translate(45.609698, 42.863468) scale(-1, 1) rotate(11.000000) translate(-45.609698, -42.863468) "></path>
                    <path d="M61.4147852,113.612399 C41.2154905,105.127377 29.7668602,97.1738902 27.0688942,89.7519387 C23.0219454,78.6190114 31.1330956,73.8046553 27.3180827,65.6888048 C23.5030698,57.5729542 13.496886,54.5901807 10.1061346,44.4546736 C6.71538318,34.3191665 11.8339329,29.1077228 11.8339329,21.8241693 C11.8339329,14.5406158 11.1106111,10.3389706 0.980403155,6.24610094 C11.3903201,5.62665051 14.6686713,8.43032409 19.6463164,13.7876194 C24.6239615,19.1449147 23.0562719,21.271561 30.1093211,26.3999234 C37.1623703,31.5282857 46.9982298,29.7146074 52.0330542,35.2576865 C57.0678785,40.8007657 52.5498052,49.289724 58.2594392,54.7402197 C63.9690732,60.1907153 71.417464,60.9012756 77.3308771,68.3308629 C81.2731526,73.2839211 78.2981588,86.8191747 68.4058957,108.936624 L61.4147852,113.612399 Z" id="Path-45" fill="url(#linearGradient-8)"></path>
                    <path d="M61.6100267,102.588535 C56.8605886,78.9005216 43.4469392,57.956294 21.3690786,39.7558523 C44.3794555,56.3373554 58.3627638,76.6887781 63.3190036,100.810121 C65.1659013,105.594874 61.6100267,104.021193 61.6100267,102.588535 Z" id="Path-46" fill="#A3BBE3" opacity="0.413783482" transform="translate(42.609982, 71.893673) rotate(12.000000) translate(-42.609982, -71.893673) "></path>
                    <path d="M38.0103028,61.9172615 C36.4898111,57.2115925 32.6257608,51.6947534 26.418152,45.3667443 C32.9907111,51.1981923 37.0732607,56.4868357 38.6658007,61.2326746 C39.2002312,62.8253008 38.5318587,63.5313904 38.0103028,61.9172615 Z" id="Path-46" fill="url(#linearGradient-9)" opacity="0.413783482" transform="translate(32.640300, 54.099540) rotate(-45.000000) translate(-32.640300, -54.099540) "></path>
                    <path d="M47.1306904,78.4749808 C45.8506724,74.5135378 42.5977418,69.8692156 37.3718986,64.542014 C42.9049733,69.4511882 46.3418465,73.9034051 47.6825179,77.8986649 C48.1324255,79.239409 47.5697596,79.8338268 47.1306904,78.4749808 Z" id="Path-46-Copy-2" fill="#A3BBE3" opacity="0.413783482" transform="translate(42.609982, 71.893673) rotate(-29.000000) translate(-42.609982, -71.893673) "></path>
                    <path d="M52.8318818,97.2683502 C50.6892862,90.6373729 45.244273,82.8633381 36.4968424,73.9462458 C45.7585415,82.1636107 51.5114522,89.6160843 53.7555744,96.3036668 C54.5086653,98.5479106 53.5668305,99.5428943 52.8318818,97.2683502 Z" id="Path-46-Copy-3" fill="#A3BBE3" opacity="0.413783482" transform="translate(45.264762, 86.252035) rotate(-8.000000) translate(-45.264762, -86.252035) "></path>
                    <path d="M51.0912232,55.9556794 C49.6062715,52.087248 46.3199011,47.8932396 41.2321119,43.373654 C46.3780631,46.861659 49.858372,50.5638463 51.6730386,54.480216 C52.4093573,56.0693213 51.6664922,57.4543064 51.0912232,55.9556794 Z" id="Path-46-Copy" fill="url(#linearGradient-10)" opacity="0.413783482" transform="translate(46.606464, 49.985951) scale(-1, 1) rotate(21.000000) translate(-46.606464, -49.985951) "></path>
                    <path d="M62.1026285,80.1276943 C60.6176769,76.259263 57.3313064,72.0652545 52.2435172,67.545669 C57.3894684,71.0336739 60.8697773,74.7358612 62.6844439,78.652231 C63.4207626,80.2413363 62.6778975,81.6263213 62.1026285,80.1276943 Z" id="Path-46-Copy-4" fill="#A3BBE3" opacity="0.413783482" transform="translate(57.617869, 74.157966) scale(-1, 1) rotate(-1.000000) translate(-57.617869, -74.157966) "></path>
                </g>
                <g id="Group-7" transform="translate(115.000000, 0.000000)">
                    <polygon id="Rectangle" fill="#EDEFFD" opacity="0.602455357" points="25 0.95703125 107 26.4804688 107 209.841797 25 175.019531"></polygon>
                    <polygon id="Rectangle" fill="#D8E3F4" points="14 6.95703125 96 32.4804688 96 215.841797 14 181.019531"></polygon>
                    <polygon id="Rectangle" fill="url(#linearGradient-11)" points="81.9234619 42.6083984 87 39.5234375 87 218.884766 81.9234619 222.722107"></polygon>
                    <polygon id="Rectangle" fill="url(#linearGradient-12)" points="5 14 87 39.5234375 82.019165 42.5689697 0.0258789062 17.0714111"></polygon>
                    <polygon id="Rectangle" fill="#EEF0F3" points="0 17 82 42.5234375 82 222.884766 0 188.0625"></polygon>
                    <path d="M5.60700402,31.6822069 L75.214008,53.8538935 C76.8733144,54.3824268 78,55.9237676 78,57.6652167 L78,196.29627 C78,197.400839 77.1045695,198.29627 76,198.29627 C75.7332698,198.29627 75.469234,198.242916 75.2234315,198.139349 L5.44686297,168.739482 C3.96409182,168.114727 3,166.662339 3,165.053324 L3,33.5878685 C3,32.483299 3.8954305,31.5878685 5,31.5878685 C5.20598549,31.5878685 5.41073471,31.6196899 5.60700402,31.6822069 Z" id="Rectangle" fill="#40495F"></path>
                    <path d="M37.5,199.970412 C40.2859292,201.038186 42.5443711,198.892531 42.5443711,195.177959 C42.5443711,191.463386 40.2859292,187.586529 37.5,186.518756 C34.7140708,185.450983 32.4556289,187.596637 32.4556289,191.31121 C32.4556289,195.025782 34.7140708,198.902639 37.5,199.970412 Z" id="Oval" fill="url(#linearGradient-13)"></path>
                    <path d="M5.88916016,163.865234 C8.77421847,147.879557 11.135332,141.083496 14.5219096,143.477051 C19.601776,147.067383 24.2406158,156.597412 26.9124388,158.006104 C29.5842619,159.414795 31.4449708,150.244629 35.0285657,155.559326 C38.6121607,160.874023 40.1295752,163.865234 41.9208522,163.865234 C45.8676296,163.865234 52.6732671,144.0979 59.6836785,147.662109 C65.0195581,150.374959 71.1943257,164.968177 73.2327574,174.319336 C73.2327574,174.319336 73.6675612,180.532552 74.5371688,192.958984 L5.88916016,163.865234 Z" id="Path-6" fill="url(#linearGradient-14)" opacity="0.538058036"></path>
                    <path d="M7,156.855758 C9.88505831,140.870081 11.1026802,133.5 14.4892578,135.893555 C19.5691242,139.483887 24.5487212,153.932174 27.2205443,155.340865 C29.8923674,156.749557 31.7962879,146.66626 35.3798828,151.980957 C38.9634777,157.295654 41.2404151,156.855758 43.0316921,156.855758 C46.9784694,156.855758 56.4378516,151.324344 60.1743164,152.830566 C63.8432617,154.30957 73.6095769,162.018958 75.6480086,171.370117 C75.6480086,172.030762 75.6480086,175.696777 75.6480086,185.949508 L7,156.855758 Z" id="Path-6" fill="url(#linearGradient-14)" opacity="0.538058036"></path>
                    <path d="M28.3141427,31.4348418 L49.6480608,38.494106 C50.4668769,38.7650473 51.0197754,39.5303791 51.0197754,40.3928576 L51.0197754,40.5637804 C51.0197754,41.1160652 50.5720601,41.5637804 50.0197754,41.5637804 C49.9130304,41.5637804 49.8069738,41.5466894 49.7056327,41.5131562 L28.3717146,34.4538921 C27.5528985,34.1829508 27,33.4176189 27,32.5551405 L27,32.3842176 C27,31.8319329 27.4477153,31.3842176 28,31.3842176 C28.106745,31.3842176 28.2128016,31.4013087 28.3141427,31.4348418 Z" id="Rectangle-19" fill="url(#linearGradient-15)"></path>
                </g>
                <g id="Group-6" transform="translate(123.000000, 151.000000)">
                    <path d="M36.4142772,15.071751 L61.8558981,25.4749661 C62.569374,25.7667103 63.0273438,26.4571566 63.0273438,27.2410662 L63.0273438,38.3031209 C63.0273438,38.8554057 62.5796285,39.3238362 62.0273438,39.3493898 C61.8786038,39.3562718 61.7317371,39.3298868 61.5974433,39.2721571 L36.1401991,28.3286832 C35.4436814,28.0292665 35,27.3471294 35,26.5756863 L35,16.0473388 C35,15.495054 35.4477153,15.0266235 36,15.0010699 C36.1429265,14.9944569 36.2841925,15.0185587 36.4142772,15.071751 Z" id="Rectangle-Copy-10" fill="#D2E2FF"></path>
                    <path d="M1.41427716,0.422851562 L26.8558981,10.8596323 C27.569374,11.1513765 28.0273437,11.8418228 28.0273437,12.6257324 L28.0273438,23.3031209 C28.0273438,23.8554057 27.5796285,24.3238362 27.0273437,24.3493898 C26.8786038,24.3562718 26.7317371,24.3298868 26.5974433,24.2721571 L1.14019909,13.3286832 C0.443681397,13.0292665 0,12.3471294 0,11.5756863 L0,1.39843933 C0,0.846154575 0.44771525,0.377724052 1,0.352170467 C1.14292652,0.34555742 1.28419248,0.369659238 1.41427716,0.422851562 Z" id="Rectangle-Copy-11" fill="#D2E2FF" opacity="0.503013393"></path>
                    <polygon id="Rectangle-Copy-5" fill="#FFFFFF" opacity="0.481417411" points="6 7.89725874 9.00749849 9.19708252 8.97356663 12.0122404 6 10.6898166"></polygon>
                    <polygon id="Rectangle-Copy-12" fill="#FFFFFF" opacity="0.481417411" points="11 10 14.0074985 11.2998238 13.9735666 14.1149817 11 12.7925578"></polygon>
                    <polygon id="Rectangle-Copy-13" fill="#FFFFFF" opacity="0.481417411" points="16 12 19.0074985 13.2998238 18.9735666 16.1149817 16 14.7925578"></polygon>
                    <polygon id="Rectangle-Copy-15" fill="#40495F" opacity="0.481417411" points="49 26 54.3413086 28.3077393 54.3073767 31.1228972 49 28.7925578"></polygon>
                    <polygon id="Rectangle-Copy-16" fill="#40495F" opacity="0.481417411" points="41 22.7415161 46.3413086 25.0492554 46.3073767 27.8644133 41 25.534074"></polygon>
                </g>
                <g id="Group-2" transform="translate(152.000000, 55.000000)" fill="#FFC76A">
                    <path d="M21,26.4595461 C27.0751322,28.6110439 32,24.5612154 32,17.414001 C32,10.2667866 27.0751322,2.72869095 21,0.577193112 C14.9248678,-1.57430473 10,2.47552373 10,9.62273814 C10,16.7699525 14.9248678,24.3080482 21,26.4595461 Z" id="Combined-Shape" opacity="0.15"></path>
                    <path d="M16,28.4595461 C22.0751322,30.6110439 27,26.5612154 27,19.414001 C27,12.2667866 22.0751322,4.72869095 16,2.57719311 C9.92486775,0.425695275 5,4.47552373 5,11.6227381 C5,18.7699525 9.92486775,26.3080482 16,28.4595461 Z" id="Combined-Shape" opacity="0.3"></path>
                    <path d="M10,4.27580129 L10,18.6214727 L21.7589438,18.6214727 C21.9168896,19.550468 22,20.4855327 22,21.414001 C22,28.5612154 17.0751322,32.6110439 11,30.4595461 C4.92486775,28.3080482 0,20.7699525 0,13.6227381 C0,6.87209984 4.39349999,2.88465556 10,4.27580129 Z" id="Combined-Shape"></path>
                </g>
                <g id="Group-3" transform="translate(125.000000, 47.000000)" fill="#FFFFFF" opacity="0.481417411">
                    <polygon id="Rectangle-Copy-4" points="0 0 4.00008294 1.33777301 4.00008294 4.13023762 0 2.79255785"></polygon>
                    <polygon id="Rectangle-Copy-6" points="6 1.99721191 24.3886719 8.35044773 24.3886719 11.1429123 6 4.78976976"></polygon>
                    <polygon id="Rectangle-Copy-5" points="0 7 11.638916 11.1492231 11.638916 14.0300771 0 9.79255785"></polygon>
                    <polygon id="Rectangle-Copy-8" points="0 14 7.02392578 16.7670549 7.02392578 19.6479089 0 16.7925578"></polygon>
                    <polygon id="Rectangle-Copy-7" points="14 11.8709766 19.5155029 13.8054539 19.5155029 16.6863079 14 14.6635344"></polygon>
                    <polygon id="Rectangle-Copy-9" points="8.95056152 17.5373414 11.9943848 18.8159216 11.9943848 21.6967756 8.95056152 20.3298993"></polygon>
                </g>
                <g id="人物" transform="translate(42.000000, 8.000000)">
                    <path d="M25.3207901,191.466641 C26.0440181,194.971837 26.189672,196.974748 25.7577517,197.475375 C25.1098712,198.226315 23.7133516,198.796608 22.7952826,198.796608 C22.7952826,199.553826 22.3470801,200.070451 21.7799292,201.575571 C21.2127783,203.080691 18.0567626,206 15.5388171,206 C13.0208716,206 12,204.41529 12,203.559041 C12,202.702791 17.2611163,197.976002 17.6903116,195.599241 C17.9764417,194.014733 17.9764417,192.14832 17.6903116,190 L25.3207901,191.466641 Z" id="Path-52" fill="#572318"></path>
                    <path d="M58.876906,191.247111 C59.1123523,195.016256 59.0100387,197.151142 58.5699651,197.651769 C57.9098548,198.402709 55.9882467,199.264629 55.0528475,199.264629 C55.0528475,200.021847 54.3025707,200.901791 53.7303363,202.477995 C53.1581019,204.054199 50.1710942,206 47.6056182,206 C45.0401422,206 44,204.41529 44,203.559041 C44,202.702791 49.3604288,197.675059 49.7977258,195.298298 C50.0892572,193.71379 50.0892572,191.947691 49.7977258,190 L58.876906,191.247111 Z" id="Path-52-Copy" fill="#572318" transform="translate(51.500000, 198.000000) scale(-1, 1) translate(-51.500000, -198.000000) "></path>
                    <path d="M19.7761308,106.730084 C18.543098,125.221691 17.9265816,136.94803 17.9265816,141.9091 C17.9265816,149.350705 18.9244826,154.55595 18.2541229,157.601137 C17.5837631,160.646324 11.9424344,183.649631 17.2625364,192.598106 C20.7053867,195.023168 24.8316332,193.855897 25.9735465,193.282139 C28.2706132,184.774163 30.2273059,162.821601 29.8076945,156.759855 C29.3880832,150.698108 33.7278019,128.864894 35.3916402,125.605606 C37.9602322,129.410628 43.3340508,153.249775 43.3340508,157.601137 C43.3340508,161.952498 42.3632411,185.906759 43.7687356,193.282139 C45.0145333,195.357221 50.7216555,195.357221 52.3715837,194.313733 C54.976026,192.760597 56,188.240294 56,186.14606 C56,184.051826 52.8439521,160.443109 52.8439521,154.994231 C52.8439521,149.545352 51.9969889,127.435339 51.9969889,120.4051 C51.9969889,115.718274 51.1615684,110.249908 49.4907275,104 L19.7761308,106.730084 Z" id="Path-51" fill="url(#linearGradient-16)"></path>
                    <path d="M5.52011292,115.702005 C5.957467,118.923109 6.09587796,120.787667 5.93534578,121.295678 C5.69454752,122.057695 5.07286358,121.990104 4.65333733,121.710296 C4.37365315,121.523757 4.11159236,120.608086 3.86715493,118.963283 C3.10301198,121.333947 2.7209405,122.917703 2.7209405,123.714551 C2.7209405,124.511399 3.25720628,125.929945 4.32973783,127.970191 C3.8840423,129.028872 3.34777652,129.271281 2.7209405,128.697418 C1.78068648,127.836624 0.350617146,125.551318 0.0765757254,123.03255 C-0.197465696,120.513782 0.319582017,115.641371 0.750639113,115 C1.18275934,115 2.77258394,115.234002 5.52011292,115.702005 Z" id="Path-2" fill="#FBCCBC"></path>
                    <path d="M60.4035645,16.2667236 C61.0780436,12.5303141 61.0780436,9.9765625 60.4035645,8.60546875 C59.3918457,6.54882812 61.651001,6.67797852 61.9611816,7.23803711 C62.1679688,7.61140951 62.3893229,8.67382812 62.6252441,10.425293 C63.3050944,7.45849609 63.6450195,4.89326986 63.6450195,2.72961426 C63.6450195,1.25109863 68.3605957,-0.608886719 69.3093262,0.897949219 C70.2580566,2.40478516 69.2619629,8.60546875 68.565918,10.425293 C67.869873,12.2451172 65.4919434,14.9937744 65.4919434,18.1270752 C63.6755371,18.1270752 61.9794108,17.506958 60.4035645,16.2667236 Z" id="Path-3" fill="url(#linearGradient-17)"></path>
                    <path d="M26.825946,45.1402646 C26.825946,47.4971108 26,54.4848198 26,55.8148973 C26,56.7016157 29.1990142,58.0966499 35.5970426,60 L38,57.5931903 C37.7849285,54.8877261 37.5370124,53.1571934 37.2562518,52.4015924 C36.9469774,51.5692531 35.8365255,51.0914638 35.6924744,50.7095337 C33.8286309,45.7678305 33.1959907,44.7571836 32.5051592,42.6703778 C31.1851934,38.6831358 26.825946,42.7834183 26.825946,45.1402646 Z" id="Path-47" fill="url(#linearGradient-18)"></path>
                    <path d="M22.7939926,41.7797493 C24.6292002,43.7509951 26.5307642,44.8102372 28.4986846,44.9574756 C31.4505651,45.1783331 34.1335902,44.5342549 34.9893119,43.133566 C35.8450337,41.732877 36.2197844,35.3543307 35.8692774,32.9407501 C35.5187705,30.5271694 34.4900553,29.9722367 34.1983086,27.9835401 C33.9065619,25.9948436 28.6409625,25.4649616 25.5979453,26.5599532 C22.5549281,27.6549448 19.4589377,31.1943412 20.0802349,32.9407501 C20.701532,34.6871589 21.9294363,36.3075312 21.7779129,38.2577709 C21.6768973,39.5579308 22.0155906,40.7319235 22.7939926,41.7797493 Z" id="Path-48" fill="url(#linearGradient-19)"></path>
                    <path d="M23.646816,42 C22.5980238,38.7965679 22.4759982,36.6648256 23.2807392,35.6047732 C24.4878507,34.0146946 20.3254446,34.9241796 20.8176667,32.1190353 C21.3098889,29.3138911 22.4182225,27.9237736 26.3288282,28.2739753 C30.239434,28.624177 30.384511,26.258967 31.3727808,26.258967 C32.3610507,26.258967 34.044984,28.6622472 34.044984,29.7739292 C35.5507835,28.298002 35.1230073,23.3936088 33.8221206,21.9262136 C32.5212338,20.4588183 31.5101087,20.9424909 30.5118335,20.1708899 C29.5135584,19.3992889 29.4373836,18.2049656 27.6931325,18.0174092 C25.1732146,17.7464466 23.7806407,20.7163307 22.3449037,21.509424 C20.9091668,22.3025173 18.2389018,21.3848472 16.3354402,23.2623639 C14.4319785,25.1398805 14.8425334,29.1620814 15.8427704,30.5339582 C16.8430074,31.9058349 14.4633962,33.4813538 15.6039181,35.6047732 C17.0260457,38.2524852 19.7070117,40.3842275 23.646816,42 Z" id="Path-49" fill="#2A2C37"></path>
                    <path d="M19.7740939,73.7109039 C18.7592919,76.3825028 13.7148532,89.5 13.1967536,93.4099558 C12.678654,97.3199115 9.60793877,105.218222 8.39080902,107.440121 C7.17367927,109.662019 6.44961878,114.679537 6.44961878,116.223152 C5.61951721,116.914569 2.21833171,117.554946 0,116.223152 C-4.47812376e-13,112.389697 2.60422317,100.070743 4.77781576,94.6624754 C6.95140834,89.2542075 8.39080902,78.2304813 9.15100896,73.7109039 C10.0906914,68.1242583 10.902097,65.1003933 12.0826923,62.6928341 C12.3544889,62.1385659 17.6168282,60.669108 19.7740939,64.9953899 C21.9313596,69.3216718 20.7888959,71.039305 19.7740939,73.7109039 Z" id="Path-50" fill="url(#linearGradient-20)"></path>
                    <path d="M26.3345502,52.1013183 C28.6218249,55.0907415 31.1751852,56.1026442 33.9946311,55.1370264 C36.814077,54.1714086 37.3278702,52.6688387 35.5360106,50.6293169 L38.3348282,50.3499492 C39.044764,50.2790885 39.7228266,50.0196333 40.2987256,49.5984795 C44.5605584,46.4818093 48.120691,42.5461701 50.9791234,37.7915619 C55.5687763,30.157307 57.2596156,23.5182864 60.0032226,15 C60.6585395,15 64.2483777,16.2949025 65.8779459,16.88246 C66.4646878,21.8059245 64.8430321,25.4841983 63.0010438,29.7356551 C61.1590555,33.9871119 55.4013966,44.8616178 55.4013966,45.4258167 C55.4013966,45.9900157 48.0155896,55.4232786 47.0368749,59.5523526 C46.0581601,63.6814265 49.0517578,81.6147461 49.0517578,90.4936523 C49.0517578,96.4129232 49.694213,101.509766 50.9791234,105.78418 C47.9692866,107.624931 44.433765,108.81536 40.3725586,109.355469 C34.2807489,110.165631 30.3735746,108.286535 26.3345502,107.998047 C23.6418672,107.805721 21.1922971,108.258195 18.9858398,109.355469 C19.6187193,92.5536264 19.935159,84.1527052 19.935159,84.1527052 C19.935159,84.1527052 19.4320054,78.5506447 17.2165068,78.5506447 C15.0010082,78.5506447 13.1862458,75.6731428 12.3406972,73.6410077 C11.4951486,71.6088726 10.3239121,64.9557655 11.4909036,62.5636098 C12.268898,60.9688394 17.2167802,57.4814088 26.3345502,52.1013183 Z" id="Path-50" fill="url(#linearGradient-21)"></path>
                    <path d="M39.1980775,66.0839075 L39.7353101,65.8185923 L40.3426165,68.0972823 L40.9499229,65.2187493 L41.4871555,64.9534341 L40.5902107,68.859102 L40.0950224,69.1036534 L39.1980775,66.0839075 Z M42.1411778,63.2440194 C42.2392812,63.1955706 42.3233698,63.1942291 42.388772,63.2556976 C42.4541742,63.3104683 42.4868753,63.4081795 42.4868753,63.548831 C42.4868753,63.6894825 42.4495026,63.8218 42.3841004,63.947867 C42.3186982,64.0672362 42.2346096,64.1556476 42.1411778,64.2017894 C42.0430745,64.2502383 41.9636575,64.2425749 41.8982553,64.1878042 C41.832853,64.1263357 41.8001519,64.0219269 41.8001519,63.887973 C41.8001519,63.7473215 41.832853,63.6173111 41.8982553,63.4979419 C41.9636575,63.3718749 42.0430745,63.2924683 42.1411778,63.2440194 Z M41.8935837,64.7527174 L42.388772,64.508166 L42.388772,67.9708729 L41.8935837,68.2154243 L41.8935837,64.7527174 Z M44.2667503,63.4869487 C44.621791,63.31161 44.8974147,63.3563294 45.1029646,63.6164929 C45.2898281,63.859094 45.3832598,64.2416045 45.3832598,64.7774199 C45.3832598,65.2864445 45.2898281,65.7545409 45.1076361,66.179402 C44.9114294,66.6379751 44.6358058,66.954931 44.2901083,67.1256555 C43.9911266,67.2733092 43.7482041,67.192347 43.5519974,66.8873832 L43.5519974,68.7225509 L43.0568091,68.9671023 L43.0568091,64.1782523 L43.5192963,63.9498506 L43.5192963,64.3651075 C43.6874734,63.94047 43.9397392,63.6484449 44.2667503,63.4869487 Z M44.1920049,64.0998637 C43.9771119,64.2059897 43.8089347,64.4096034 43.692145,64.7150952 C43.5893701,64.9801773 43.5379826,65.293556 43.5379826,65.6485337 L43.5379826,65.708813 C43.5379826,66.077186 43.5987133,66.34859 43.7295177,66.5117131 C43.8416358,66.6639714 43.9911266,66.6973077 44.1779902,66.6050241 C44.4209127,66.4850555 44.5984331,66.2835254 44.7152228,65.9981266 C44.8179977,65.7330445 44.8740567,65.410661 44.8740567,65.0288926 C44.8740567,64.6471241 44.8226693,64.3778036 44.7292375,64.2096192 C44.6124478,64.0127841 44.4349275,63.9798951 44.1920049,64.0998637 Z" id="vip" fill="#FFF7F1" transform="translate(42.290669, 66.156101) rotate(-4.000000) translate(-42.290669, -66.156101) "></path>
                </g>
                <g id="Group-5" transform="translate(149.500000, 107.500000) rotate(1.000000) translate(-149.500000, -107.500000) translate(111.000000, 74.000000)">
                    <polygon id="Rectangle" fill="#A8C5FF" opacity="0.15" points="12 0 77 22.4375663 77 60.7297728 12 35.075813"></polygon>
                    <polygon id="Rectangle" fill="#A8C5FF" opacity="0.35" points="6 3 71 25.4375663 71 63.7297728 6 38.075813"></polygon>
                    <polygon id="Rectangle" fill="#D2E2FF" points="0 6 65 28.4375663 65 66.7297728 0 41.075813"></polygon>
                    <g id="Group-4" transform="translate(5.000000, 17.000000)">
                        <polygon id="Rectangle" fill="#FFFFFF" opacity="0.481417411" points="31 10 55.4885254 18.9978027 55.4885254 25.2035553 31 15.7925578"></polygon>
                        <polygon id="Rectangle-Copy-4" fill="#FFFFFF" opacity="0.481417411" points="31 21 55.4885254 30.9620384 55.4885254 34.167791 31 23.7925578"></polygon>
                        <polygon id="Rectangle-Copy-5" fill="#FFFFFF" opacity="0.481417411" points="31 29 42.638916 33.7629395 42.638916 36.968692 31 31.7925578"></polygon>
                        <polygon id="Rectangle" fill="#FFFFFF" points="0 4.05595577 2.56105468 4.93505859 2.57746483 21.1668412 0 20.1399062"></polygon>
                        <polygon id="Rectangle-Copy-2" fill="#FFFFFF" points="12.9306641 15.6940918 15.5081289 16.6650391 15.5081289 26.2248246 12.9306641 25.1978896"></polygon>
                        <polygon id="Rectangle-Copy-3" fill="#FFFFFF" points="19.9502979 10.5592517 22.5113525 11.4383545 22.5277627 29.1099428 19.9502979 28.0830078"></polygon>
                        <polygon id="Rectangle-Copy" fill="#FFFFFF" points="6 9.88330078 8.56105468 10.8791028 8.57746483 23.4837357 6 22.4568007"></polygon>
                        <polyline id="Path-4" stroke="#7BA5FF" stroke-width="0.5" opacity="0.42578125" points="1.45349121 1.71899414 7.47351074 8.66149902 14.1522217 14.1856689 21.6846924 8.04211426"></polyline>
                        <path d="M1.56542969,3.0480957 C2.11771444,3.27795591 2.56542969,3.01657918 2.56542969,2.46429443 C2.56542969,1.91200968 2.11771444,1.27795591 1.56542969,1.0480957 C1.01314494,0.818235491 0.565429688,1.07961222 0.565429688,1.63189697 C0.565429688,2.18418172 1.01314494,2.81823549 1.56542969,3.0480957 Z" id="Oval-2" fill="#7BA5FF"></path>
                        <path d="M7.33026123,9.21942139 C7.88254598,9.4492816 8.33026123,9.18790487 8.33026123,8.63562012 C8.33026123,8.08333537 7.88254598,7.4492816 7.33026123,7.21942139 C6.77797648,6.98956117 6.33026123,7.25093791 6.33026123,7.80322266 C6.33026123,8.35550741 6.77797648,8.98956117 7.33026123,9.21942139 Z" id="Oval-2-Copy" fill="#7BA5FF"></path>
                        <path d="M14.2129517,15.1420288 C14.7652364,15.371889 15.2129517,15.1105123 15.2129517,14.5582275 C15.2129517,14.0059428 14.7652364,13.371889 14.2129517,13.1420288 C13.6606669,12.9121686 13.2129517,13.1735453 13.2129517,13.7258301 C13.2129517,14.2781148 13.6606669,14.9121686 14.2129517,15.1420288 Z" id="Oval-2-Copy-2" fill="#F9582C"></path>
                        <path d="M21.3120728,9.37371826 C21.8643575,9.60357847 22.3120728,9.34220174 22.3120728,8.78991699 C22.3120728,8.23763224 21.8643575,7.60357847 21.3120728,7.37371826 C20.759788,7.14385805 20.3120728,7.40523478 20.3120728,7.95751953 C20.3120728,8.50980428 20.759788,9.14385805 21.3120728,9.37371826 Z" id="Oval-2-Copy-3" fill="#7BA5FF"></path>
                    </g>
                </g>
            </g>
        </g>
    </g>
</svg>