<?xml version="1.0" encoding="UTF-8"?>
<svg width="375px" height="268px" viewBox="0 0 375 268" version="1.1" xmlns="http://www.w3.org/2000/svg" xmlns:xlink="http://www.w3.org/1999/xlink">
    <!-- Generator: Sketch 50.2 (55047) - http://www.bohemiancoding.com/sketch -->
    <title>插图1</title>
    <desc>Created with Sketch.</desc>
    <defs>
        <linearGradient x1="96.7025303%" y1="94.1825444%" x2="5.60395494%" y2="5.9942382%" id="linearGradient-1">
            <stop stop-color="#FFFFFF" offset="0%"></stop>
            <stop stop-color="#A4C3FC" offset="98.8326409%"></stop>
        </linearGradient>
        <linearGradient x1="50%" y1="105.240591%" x2="47.0471832%" y2="38.3165797%" id="linearGradient-2">
            <stop stop-color="#E9EAEE" offset="0%"></stop>
            <stop stop-color="#F5F6F9" offset="100%"></stop>
        </linearGradient>
        <linearGradient x1="15.2670815%" y1="85.96699%" x2="84.7329185%" y2="14.03301%" id="linearGradient-3">
            <stop stop-color="#E9EBEE" offset="0%"></stop>
            <stop stop-color="#F4F5F7" offset="100%"></stop>
        </linearGradient>
        <linearGradient x1="91.4180871%" y1="6.36368137%" x2="15.6977137%" y2="85.4110823%" id="linearGradient-4">
            <stop stop-color="#E5E8EC" offset="0%"></stop>
            <stop stop-color="#FFFFFF" offset="100%"></stop>
        </linearGradient>
        <linearGradient x1="100%" y1="50%" x2="0%" y2="50%" id="linearGradient-5">
            <stop stop-color="#E4E5E8" offset="0%"></stop>
            <stop stop-color="#CBCDD4" offset="100%"></stop>
        </linearGradient>
        <linearGradient x1="0%" y1="24.987886%" x2="55.9998303%" y2="24.9878854%" id="linearGradient-6">
            <stop stop-color="#BBBECD" stop-opacity="0.5" offset="0%"></stop>
            <stop stop-color="#494E72" stop-opacity="0.5" offset="100%"></stop>
        </linearGradient>
        <path d="M93.6124456,78.0995312 C92.5338247,79.4615104 91.0235063,79.8817708 89.0814905,79.3603125 C87.1394748,78.8388542 58.8540574,62.6407292 4.22523857,30.7659375 C1.80078016,28.7244271 0.473310569,25.9248177 0.242829803,22.3671094 C0.012349037,18.809401 0.0519904834,15.7600521 0.361754142,13.2190625 L1.51893155,10.3478125 L7.66283688,0.4159375 L50.8557211,24.9709375 L73.2110063,52.6059375 C83.272462,57.6903125 88.3031899,60.2325 88.3031899,60.2325 C88.3031899,60.2325 90.3679696,65.700625 94.4975291,76.636875 L93.6124456,78.0995312 Z" id="path-7"></path>
        <linearGradient x1="50%" y1="100%" x2="50%" y2="3.061617e-15%" id="linearGradient-9">
            <stop stop-color="#404459" offset="0%"></stop>
            <stop stop-color="#12113D" offset="100%"></stop>
        </linearGradient>
        <linearGradient x1="50%" y1="100%" x2="50%" y2="3.061617e-15%" id="linearGradient-10">
            <stop stop-color="#494E64" offset="0%"></stop>
            <stop stop-color="#3D4158" offset="100%"></stop>
        </linearGradient>
        <linearGradient x1="84.1513395%" y1="18.6431487%" x2="9.10522294%" y2="69.1164015%" id="linearGradient-11">
            <stop stop-color="#828288" offset="0%"></stop>
            <stop stop-color="#96969C" offset="100%"></stop>
        </linearGradient>
        <linearGradient x1="20.1232295%" y1="81.0820091%" x2="74.5063764%" y2="15.1644617%" id="linearGradient-12">
            <stop stop-color="#949599" offset="0%"></stop>
            <stop stop-color="#7F8087" offset="100%"></stop>
        </linearGradient>
        <path d="M0.173593374,23.3266888 L5.02374854,36.171593 C3.66024588,38.2976823 2.97849455,39.360727 2.97849455,39.360727 C3.92826261,39.961752 5.22576047,39.939104 6.87098811,39.2927833 L37.0290903,15.9527884 L37.8302876,12.0064391 L34.9007319,0.981302712 L28.8826904,2.36889068 L0.173593374,23.3266888 Z" id="path-13"></path>
        <path d="M0.320305027,27.4293358 C0.565450517,27.5844669 0.822372966,27.7228873 1.09107237,27.8445971 L1.09107273,27.8445963 C2.41971807,28.4464181 3.97062039,28.2773183 5.13835114,27.4033087 L34.2388358,5.62251527 C35.0476851,5.01711715 35.4974865,4.04525141 35.435548,3.03683303 L35.2548989,0.0956923882 L2.46430977,24.2292314 C1.03497327,26.3626343 0.320305027,27.4293358 0.320305027,27.4293358 Z" id="path-15"></path>
        <path d="M0.0604142409,14.0322299 L0.593266946,15.1888982 C1.28651874,16.6937464 3.06843082,17.3516752 4.57327897,16.6584234 C4.74387183,16.5798349 4.90670735,16.4853993 5.05964076,16.3763605 L18.3451137,6.90405757 C19.8232682,5.85015997 20.4063424,3.9329789 19.7652544,2.23455398 L19.1470994,0.596885383 L0.0604142409,14.0322299 Z" id="path-17"></path>
        <polygon id="path-19" points="42.2270563 43.5956421 13.3830649 26.3388367 40.0754076 7.75 69.8457175 25.0659936"></polygon>
        <filter x="-0.9%" y="-1.4%" width="101.8%" height="102.8%" filterUnits="objectBoundingBox" id="filter-20">
            <feOffset dx="0" dy="1" in="SourceAlpha" result="shadowOffsetInner1"></feOffset>
            <feComposite in="shadowOffsetInner1" in2="SourceAlpha" operator="arithmetic" k2="-1" k3="1" result="shadowInnerInner1"></feComposite>
            <feColorMatrix values="0 0 0 0 0.147222979   0 0 0 0 0.287411337   0 0 0 0 0.567788053  0 0 0 0.564622962 0" type="matrix" in="shadowInnerInner1"></feColorMatrix>
        </filter>
        <polygon id="path-21" points="13.9870139 42.646759 0.502551132 23.2446391 33.3420585 0.433727281 45.7605611 20.0788574"></polygon>
        <filter x="-1.1%" y="-1.2%" width="102.2%" height="102.4%" filterUnits="objectBoundingBox" id="filter-23">
            <feOffset dx="0" dy="1" in="SourceAlpha" result="shadowOffsetInner1"></feOffset>
            <feComposite in="shadowOffsetInner1" in2="SourceAlpha" operator="arithmetic" k2="-1" k3="1" result="shadowInnerInner1"></feComposite>
            <feColorMatrix values="0 0 0 0 0.147222979   0 0 0 0 0.287411337   0 0 0 0 0.567788053  0 0 0 0.564622962 0" type="matrix" in="shadowInnerInner1"></feColorMatrix>
        </filter>
        <polygon id="path-24" points="13.9870139 42.646759 0.975787594 23.9221618 16.7735356 12.9404348 18.8921588 39.194995"></polygon>
        <polygon id="path-26" points="20.0320817 38.3223224 18.0487976 12.0581197 19.9262399 10.7600499 21.835847 37.0338554"></polygon>
        <linearGradient x1="46.2533804%" y1="-31.4662388%" x2="62.5995343%" y2="110.177176%" id="linearGradient-28">
            <stop stop-color="#FFFFFF" offset="0%"></stop>
            <stop stop-color="#D8D8D8" offset="100%"></stop>
        </linearGradient>
        <linearGradient x1="50%" y1="0.196441474%" x2="50%" y2="100%" id="linearGradient-29">
            <stop stop-color="#FF2C3B" offset="0%"></stop>
            <stop stop-color="#FF6532" offset="100%"></stop>
        </linearGradient>
        <linearGradient x1="50%" y1="-2.48949813e-15%" x2="50%" y2="100%" id="linearGradient-30">
            <stop stop-color="#FD4264" offset="0%"></stop>
            <stop stop-color="#FF7961" offset="100%"></stop>
        </linearGradient>
        <linearGradient x1="88.7323289%" y1="50%" x2="11.3420759%" y2="50%" id="linearGradient-31">
            <stop stop-color="#88ACF3" offset="0%"></stop>
            <stop stop-color="#4B77D7" offset="100%"></stop>
        </linearGradient>
        <linearGradient x1="100%" y1="61.2241136%" x2="0%" y2="50%" id="linearGradient-32">
            <stop stop-color="#C7DAFF" offset="0%"></stop>
            <stop stop-color="#4D82E2" offset="100%"></stop>
        </linearGradient>
        <linearGradient x1="86.0993409%" y1="8.62496851%" x2="11.373139%" y2="87.3208855%" id="linearGradient-33">
            <stop stop-color="#F8F9FA" offset="0%"></stop>
            <stop stop-color="#EFF1F3" offset="100%"></stop>
        </linearGradient>
        <filter x="-21.8%" y="-11.9%" width="143.6%" height="131.2%" filterUnits="objectBoundingBox" id="filter-34">
            <feOffset dx="0" dy="4" in="SourceAlpha" result="shadowOffsetOuter1"></feOffset>
            <feGaussianBlur stdDeviation="5" in="shadowOffsetOuter1" result="shadowBlurOuter1"></feGaussianBlur>
            <feColorMatrix values="0 0 0 0 0.128896515   0 0 0 0 0.118805624   0 0 0 0 0.271152211  0 0 0 0.14917346 0" type="matrix" in="shadowBlurOuter1" result="shadowMatrixOuter1"></feColorMatrix>
            <feMerge>
                <feMergeNode in="shadowMatrixOuter1"></feMergeNode>
                <feMergeNode in="SourceGraphic"></feMergeNode>
            </feMerge>
        </filter>
        <linearGradient x1="154.242623%" y1="88.8810628%" x2="40.7470723%" y2="26.4441882%" id="linearGradient-35">
            <stop stop-color="#FFFFFF" offset="0%"></stop>
            <stop stop-color="#FFFFFF" stop-opacity="0" offset="100%"></stop>
        </linearGradient>
        <linearGradient x1="15.1762084%" y1="133.606241%" x2="34.6914612%" y2="15.9293124%" id="linearGradient-36">
            <stop stop-color="#EEEEEE" offset="0%"></stop>
            <stop stop-color="#BFBFBF" offset="100%"></stop>
        </linearGradient>
        <path d="M15.7070312,29.8623047 C27.6064453,28.5634766 35.4238281,44.2663126 35.4238281,54.7426758 C35.4238281,66.3780924 35.4238281,84.2936198 35.4238281,108.489258 L77.4560547,78.3271484 L76.4577981,21.9539661 C76.2624577,10.9227725 67.7128765,1.84797527 56.7128906,0.99609375 C29.375651,20.2402344 15.7070312,29.8623047 15.7070312,29.8623047 Z" id="path-37"></path>
        <linearGradient x1="34.8083496%" y1="40.8274919%" x2="0%" y2="40.8274931%" id="linearGradient-39">
            <stop stop-color="#FBBC32" offset="0%"></stop>
            <stop stop-color="#F9AC2C" offset="100%"></stop>
        </linearGradient>
    </defs>
    <g id="Page-1" stroke="none" stroke-width="1" fill="none" fill-rule="evenodd">
        <g id="注册-车牌号" transform="translate(0.000000, -82.000000)">
            <g id="插图1" transform="translate(-16.000000, 82.000000)">
                <g id="Group-14" transform="translate(138.000000, 220.000000)">
                    <polygon id="Rectangle-2" fill="url(#linearGradient-1)" opacity="0.504241071" points="0 0 3.59373014 0 52 33.7439599 50.0490093 36 0 3.62050678"></polygon>
                    <rect id="Rectangle-2" fill="#FFFFFF" opacity="0.504408482" x="0" y="0" width="4" height="4"></rect>
                </g>
                <g id="Group-14" transform="translate(324.000000, 129.000000)">
                    <polygon id="Rectangle-2" fill="url(#linearGradient-1)" opacity="0.504241071" points="0 0 3.59373014 0 52 33.7439599 50.0490093 36 0 3.62050678"></polygon>
                    <rect id="Rectangle-2" fill="#FFFFFF" opacity="0.504408482" x="0" y="0" width="4" height="4"></rect>
                </g>
                <g id="Group-14" transform="translate(26.000000, 151.000000) scale(-1, 1) translate(-26.000000, -151.000000) translate(0.000000, 133.000000)">
                    <polygon id="Rectangle-2" fill="url(#linearGradient-1)" opacity="0.504241071" points="0 0 3.59373014 0 52 33.7439599 50.0490093 36 0 3.62050678"></polygon>
                    <rect id="Rectangle-2" fill="#FFFFFF" opacity="0.504408482" x="0" y="0" width="4" height="4"></rect>
                </g>
                <g id="Group-14-Copy" transform="translate(98.000000, 68.000000) scale(-1, 1) translate(-98.000000, -68.000000) translate(72.000000, 50.000000)">
                    <polygon id="Rectangle-2" fill="url(#linearGradient-1)" opacity="0.504241071" points="0 0 3.59373014 0 52 33.7439599 50.0490093 36 0 3.62050678"></polygon>
                    <rect id="Rectangle-2" fill="#FFFFFF" opacity="0.504408482" x="0" y="0" width="4" height="4"></rect>
                </g>
                <g id="Group-14" transform="translate(95.000000, 215.000000)">
                    <polygon id="Rectangle-2" fill="url(#linearGradient-1)" opacity="0.504241071" points="0 0 3.93928111 0 57 36.5559566 54.861414 39 0 3.92221567"></polygon>
                    <rect id="Rectangle-2" fill="#FFFFFF" opacity="0.504408482" x="0" y="0" width="4" height="4"></rect>
                </g>
                <g id="人" transform="translate(37.000000, 30.000000)">
                    <polygon id="Rectangle-15" fill="#EDEFFD" points="0 31.4512232 49 0 49 59.5487768 0 91"></polygon>
                    <polygon id="Rectangle-15" fill="#D8E3F4" points="7 35.4512232 56 4 56 63.5487768 7 95"></polygon>
                    <polygon id="Rectangle-15" fill="#F3F4FC" points="16 40.4512232 65 9 65 68.5487768 16 100"></polygon>
                    <polygon id="Rectangle-15" fill="#CDD9E5" points="25 45.1597383 56 26 56 29.0025391 25 48"></polygon>
                    <polygon id="Rectangle-15-Copy" fill="#CDD9E5" points="25 52.9862095 45 40 45 43.1859824 25 56"></polygon>
                    <path d="M40.839427,58.5829612 L40.9974647,58.6187882 L40.9993919,58.869421 C41.0071011,59.5968623 40.9415733,60.2612985 40.7989539,60.8345163 C40.665971,61.3625758 40.4693875,61.823607 40.2072763,62.1983613 C40.0280384,63.1719938 39.817964,64.1050253 39.5211615,64.9714292 C39.1781041,65.9697518 38.7271186,66.8645353 38.0872587,67.6186176 C37.80202,67.9526375 37.0715775,68.5193249 36.3700445,68.9839596 C35.6916388,69.4353391 35.0113059,69.8109094 34.7414855,69.8284371 C34.1613716,69.86805 33.7527864,69.5486176 33.4424929,69.0128097 C33.1765271,68.5572186 32.9876528,67.9434652 32.8238332,67.2714319 C32.5520855,67.2671401 32.3477929,67.083 32.2109554,66.7370081 C32.0606269,66.3591132 31.9912445,65.7767125 32.0008809,65.024547 L32.0028082,64.7687055 L32.1608459,64.5191586 C32.201319,64.4554697 32.241792,64.3943517 32.2822651,64.3358047 C32.1049545,61.5237011 32.1724096,60.3926067 32.9876528,58.5955434 C34.5795932,55.7656523 38.2298781,53.3294585 39.8430187,53.804138 C40.9415733,54.4355585 41.0186648,55.9330788 40.6813893,58.559989 C40.7353534,58.5641962 40.7873902,58.5697223 40.839427,58.5829612 Z M37.3157986,69.3725069 L37.3397233,70.085865 L37.0306969,71.0130825 L37.4613401,74.6829779 L39.223787,68.1619277 L41.9093254,66.1955977 C43.2969533,67.0857433 44.1861516,70.8109073 43.9668426,73.7876351 L29,84.0294718 C29.0378806,81.5207913 29.3628567,77.0598262 31.1253036,73.6953464 L33.5516587,72.0657423 L35.8244974,75.7667255 L36.2511531,71.5437298 L35.9421268,71.0422427 L35.9660514,70.2961413 C36.5541983,69.848937 36.7276518,69.7302425 37.3157986,69.3725069 Z M39.4377441,58.5917969 C38.3433949,59.6089122 36.7131213,60.9569948 35.4244483,60.9344496 C34.9294342,60.9257407 34.2032773,62.1354303 33.6100786,62.4672691 C33.4259824,63.0479943 33.2889331,63.6399563 33.2091581,64.2233826 L33.1437017,64.7050391 L32.7918735,64.9023648 C32.7264171,64.9394924 32.6589152,64.9959032 32.5873223,65.0755515 C32.5545941,65.1107213 32.5239114,65.1470461 32.4911832,65.1898802 C32.5014107,65.6682865 32.5545941,66.032991 32.6548242,66.2658655 C32.7427812,66.4713717 32.8675575,66.5571563 33.0271075,66.5118451 L33.2337043,66.4496682 L33.2909786,66.6685064 C33.4628017,67.3505686 33.6571254,67.9712479 33.9291786,68.3982247 C34.1807766,68.795768 34.5039676,69.026801 34.9519349,68.9782874 C35.140122,68.9568106 35.7374117,68.6093986 36.3633386,68.1938495 C37.0281302,67.7517053 37.6908763,67.2522012 37.9097462,67.0027924 C38.4027147,66.4380792 38.7565884,65.7565034 39.0327326,64.9927156 C39.329332,64.1714993 39.5400198,63.2430129 39.7241159,62.2560802 L39.7772992,61.9744294 L39.9736685,61.7557464 C40.1291274,61.5803869 40.2498127,61.3215231 40.3336787,60.998438 C40.4298178,60.6337425 40.4830011,60.2013607 40.4911832,59.7205756 C40.462546,59.7222888 40.4339088,59.7265567 40.4052716,59.7359341 C40.3357242,59.7554231 40.2702678,59.7848864 40.2068569,59.8333882 L39.8632108,60.0966482 L39.7997999,59.7185044 C39.7220704,59.2811802 39.6013852,58.9039078 39.4377441,58.5917969 Z" id="Shape" fill="#458BFF" fill-rule="nonzero" opacity="0.477399554"></path>
                </g>
                <g id="门店" transform="translate(276.000000, 109.500000) scale(-1, 1) translate(-276.000000, -109.500000) translate(219.000000, 50.000000)">
                    <polygon id="Rectangle-15" fill="#EDEFFD" points="0 49.5487768 83.9990234 0 83.9990234 59.5487768 0 109.097554"></polygon>
                    <polygon id="Rectangle-15" fill="#D8E3F4" points="7 53.5487768 90.9990234 4 90.9990234 63.5487768 7 113.097554"></polygon>
                    <polygon id="Rectangle-15" fill="#F3F4FC" points="16 58.5487768 99.9990234 9 99.9990234 68.5487768 16 118.097554"></polygon>
                    <path d="M62.4135651,84.4650632 L62.0332031,69.5581055 L64.7854737,67.8817506 L65.0182618,82.8549562 L62.4135651,84.4650632 Z M68.5044932,80.605802 L68.2776985,71.0073242 L70.8711026,69.2392477 L70.8711026,79.1572266 L68.5044932,80.605802 Z M74.2645324,76.9195553 L73.8841704,60.3374877 L76.636441,58.6611328 L76.8692291,75.3094482 L74.2645324,76.9195553 Z M80.2561934,73.3068022 L80.0293987,51.1952005 L82.6228027,49.427124 L82.6228027,71.8582268 L80.2561934,73.3068022 Z M86.1598373,69.560636 L85.9330426,58.4490343 L88.5264466,56.6809578 L88.5264466,68.1120605 L86.1598373,69.560636 Z" id="Combined-Shape" fill="#CDD9E5"></path>
                    <path d="M44.0417725,95.8906003 L43.6614105,86.9836426 L46.4136811,85.3072877 L46.6464692,94.2804933 L44.0417725,95.8906003 Z M50.1327006,92.0313391 L49.9059059,74.4328613 L52.49931,72.6647848 L52.49931,90.5827637 L50.1327006,92.0313391 Z M55.8927398,88.3450924 L55.5123778,76.7630248 L58.2646484,75.0866699 L58.4974365,86.7349854 L55.8927398,88.3450924 Z" id="Combined-Shape" fill="#CDD9E5"></path>
                    <g id="Group-11" transform="translate(16.000000, 8.000000)">
                        <path d="M94.69104,22.0851633 C92.7531968,22.8699519 90.9824487,21.031377 90.9824487,17.9308277 C90.9824487,14.8302785 90.3580552,14.4007555 92.2958984,13.6159668 C94.2337417,12.8311781 97.581665,13.741832 97.9498291,14.6055908 C97.9498291,17.7061401 96.6288833,21.3003746 94.69104,22.0851633 Z M87.473673,26.2782187 C85.5358297,27.0630074 83.9648974,25.1857125 83.9648974,22.0851633 C83.9648974,18.984614 85.5358297,15.8349253 87.473673,15.0501366 C89.4115163,14.2653479 90.9824487,16.1426428 90.9824487,19.243192 C90.9824487,22.3437413 89.4115163,25.49343 87.473673,26.2782187 Z M80.4561217,30.4325543 C78.5182784,31.2173429 76.9473461,29.3400481 76.9473461,26.2394988 C76.9473461,23.1389496 78.5182784,19.9892608 80.4561217,19.2044722 C82.393965,18.4196835 83.9648974,20.2969783 83.9648974,23.3975276 C83.9648974,26.4980769 82.393965,29.6477656 80.4561217,30.4325543 Z M73.4385704,34.5868898 C71.5007271,35.3716785 69.9297947,33.4943836 69.9297947,30.3938344 C69.9297947,27.2932851 71.5007271,24.1435964 73.4385704,23.3588077 C75.3764137,22.574019 76.9473461,24.4513139 76.9473461,27.5518632 C76.9473461,30.6524124 75.3764137,33.8021011 73.4385704,34.5868898 Z M66.4210191,38.7412254 C64.4831758,39.5260141 62.9122434,37.6487192 62.9122434,34.5481699 C62.9122434,31.4476207 64.4831758,28.2979319 66.4210191,27.5131433 C68.3588624,26.7283546 69.9297947,28.6056494 69.9297947,31.7061987 C69.9297947,34.806748 68.3588624,37.9564367 66.4210191,38.7412254 Z M59.4034678,42.8955609 C57.4656245,43.6803496 55.8946921,41.8030547 55.8946921,38.7025055 C55.8946921,35.6019562 57.4656245,32.4522675 59.4034678,31.6674788 C61.341311,30.8826901 62.9122434,32.759985 62.9122434,35.8605343 C62.9122434,38.9610835 61.341311,42.1107722 59.4034678,42.8955609 Z M52.3859164,47.0498965 C50.4480732,47.8346852 48.8771408,45.9573903 48.8771408,42.856841 C48.8771408,39.7562918 50.4480732,36.6066031 52.3859164,35.8218144 C54.3237597,35.0370257 55.8946921,36.9143206 55.8946921,40.0148698 C55.8946921,43.1154191 54.3237597,46.2651078 52.3859164,47.0498965 Z M45.3683651,51.204232 C43.4305218,51.9890207 41.8595895,50.1117259 41.8595895,47.0111766 C41.8595895,43.9106273 43.4305218,40.7609386 45.3683651,39.9761499 C47.3062084,39.1913612 48.8771408,41.0686561 48.8771408,44.1692054 C48.8771408,47.2697546 47.3062084,50.4194434 45.3683651,51.204232 Z M38.3508138,55.3585676 C36.4129705,56.1433563 34.8420382,54.2660614 34.8420382,51.1655121 C34.8420382,48.0649629 36.4129705,44.9152742 38.3508138,44.1304855 C40.2886571,43.3456968 41.8595895,45.2229917 41.8595895,48.3235409 C41.8595895,51.4240902 40.2886571,54.5737789 38.3508138,55.3585676 Z M31.3332625,59.5129031 C29.3954192,60.2976918 27.8244868,58.420397 27.8244868,55.3198477 C27.8244868,52.2192984 29.3954192,49.0696097 31.3332625,48.284821 C33.2711058,47.5000324 34.8420382,49.3773272 34.8420382,52.4778765 C34.8420382,55.5784257 33.2711058,58.7281145 31.3332625,59.5129031 Z M24.3157112,63.6672387 C22.3778679,64.4520274 20.8069355,62.5747325 20.8069355,59.4741833 C20.8069355,56.373634 22.3778679,53.2239453 24.3157112,52.4391566 C26.2535545,51.6543679 27.8244868,53.5316628 27.8244868,56.632212 C27.8244868,59.7327613 26.2535545,62.88245 24.3157112,63.6672387 Z M17.2981599,67.8215743 C15.3603166,68.6063629 13.7893842,66.7290681 13.7893842,63.6285188 C13.7893842,60.5279696 15.3603166,57.3782808 17.2981599,56.5934921 C19.2360032,55.8087035 20.8069355,57.6859983 20.8069355,60.7865476 C20.8069355,63.8870968 19.2360032,67.0367856 17.2981599,67.8215743 Z" id="Combined-Shape" fill="#E6E7EE"></path>
                        <g id="Group-2">
                            <polygon id="Rectangle-15" fill="#FD486A" points="77 5.10637556 83.713623 0.984072901 97.713623 14.298684 90.8097239 18.4865849"></polygon>
                            <polygon id="Rectangle-15-Copy-7" fill="#FD486A" points="63 13.3919329 70.005127 9.21336291 83.713623 22.5842413 76.8097239 26.7721422"></polygon>
                            <polygon id="Rectangle-15-Copy-9" fill="#FD486A" points="49 21.6260986 56.005127 17.4475286 69.713623 30.818407 62.8097239 35.0063079"></polygon>
                            <polygon id="Rectangle-15-Copy-11" fill="#FD486A" points="35 29.8602644 42.005127 25.6816944 55.713623 39.0525728 48.8097239 43.2404737"></polygon>
                            <polygon id="Rectangle-15-Copy-13" fill="#FD486A" points="21 38.0944301 28.005127 33.9158601 41.713623 47.2867385 34.8097239 51.4746394"></polygon>
                            <polygon id="Rectangle-15-Copy-15" fill="#FD486A" points="7 46.3285958 14.005127 42.1500259 27.713623 55.5209043 20.8097239 59.7088051"></polygon>
                            <polygon id="Rectangle-15-Copy-6" fill="#FFFFFF" points="70 9.17768206 77.0037842 5.0963025 90.713623 18.3699905 83.8097239 22.5578914"></polygon>
                            <polygon id="Rectangle-15-Copy-8" fill="#FFFFFF" points="56 17.4118478 63.0037842 13.3304682 76.713623 26.6041562 69.8097239 30.7920571"></polygon>
                            <polygon id="Rectangle-15-Copy-10" fill="#FFFFFF" points="42 25.6460135 49.0037842 21.564634 62.713623 34.8383219 55.8097239 39.0262228"></polygon>
                            <polygon id="Rectangle-15-Copy-12" fill="#FFFFFF" points="28 33.8801793 35.0037842 29.7987997 48.713623 43.0724877 41.8097239 47.2603886"></polygon>
                            <polygon id="Rectangle-15-Copy-14" fill="#FFFFFF" points="14 42.114345 21.0037842 38.0329654 34.713623 51.3066534 27.8097239 55.4945543"></polygon>
                            <polygon id="Rectangle-15-Copy-16" fill="#FFFFFF" points="0 50.3485107 7.00378418 46.2671312 20.713623 59.5408192 13.8097239 63.72872"></polygon>
                        </g>
                    </g>
                </g>
                <g id="手机" transform="translate(195.075045, 174.513628) rotate(-4.000000) translate(-195.075045, -174.513628) translate(72.575045, 78.013628)">
                    <path d="M238.522746,128.535679 L88.0393968,27.6304193 C81.7745271,22.7242547 71.1011048,22.7832547 64.1629147,27.8068382 L5.9748752,62.4951209 C-1.13149792,67.7546732 -1.84451915,76.0524338 4.41902401,80.9835272 L153.64683,189.593348 C160.246419,193.948848 171.389309,193.158974 178.498447,187.878913 L237.936822,145.437691 C244.877777,140.430059 245.123661,132.88471 238.522746,128.535679 Z" id="Rectangle-10-Copy" fill="url(#linearGradient-2)"></path>
                    <path d="M240.82085,106.304167 L89.9861523,12.3675309 C83.7085733,7.48206801 73.0132296,7.57617941 66.0606318,12.6225845 L6.99887181,40.0244314 C-0.122254116,45.289002 0.667451004,61.226431 4.53440091,64.4873738 C7.11236751,66.6562535 57.245687,105.014887 155.458284,174.538268 C162.071269,178.869833 173.057053,178.149755 180.180948,172.842786 L239.67912,128.66318 C245.443212,124.406724 247.492626,111.275626 240.82085,106.304167 Z" id="Rectangle-10" fill="#BCBEC6"></path>
                    <path d="M240.196901,104.594142 L89.7135522,3.6888821 C83.4486825,-1.21728251 72.7752602,-1.15828248 65.83707,3.86530101 L7.64903056,38.5535837 C0.542657453,43.813136 -0.170363777,52.1108966 6.09317938,57.04199 L155.320986,165.651811 C161.920574,170.007311 173.063465,169.217437 180.172602,163.937376 L239.610978,121.496154 C246.551932,116.488522 246.797816,108.943173 240.196901,104.594142 Z" id="Rectangle-10-Copy" fill="url(#linearGradient-3)"></path>
                    <path d="M239.921814,105.011667 L239.918438,105.009423 L89.4052725,4.08253628 C83.3115238,-0.689619481 72.8824022,-0.618556686 66.0930983,4.2947769 L7.94648262,38.955482 C1.08679578,44.0324574 0.417243811,51.9371465 6.38740786,56.6377257 L155.596397,165.234499 C162.003099,169.462701 172.917042,168.703367 179.88205,163.530462 L239.318435,121.090668 C245.980957,116.283914 246.223229,109.163372 239.921814,105.011667 Z" id="Rectangle-10-Copy" stroke="url(#linearGradient-4)"></path>
                    <path d="M200.333386,139.193737 C204.386146,139.092153 207.629881,136.451509 207.578472,133.295842 C207.527063,130.14016 204.199976,127.648865 200.147217,127.731245 C196.094457,127.81346 192.850721,130.453746 192.90213,133.628626 C192.95354,136.80349 196.280626,139.295142 200.333386,139.193737 Z" id="Oval" fill="url(#linearGradient-5)"></path>
                    <path d="M90.9246314,12.4124901 C90.3323076,11.9918668 89.6288199,11.9462367 89.030132,12.2898875 L18.2486856,54.0911913 C17.7293281,54.4064313 17.5159352,55.2184115 17.7720593,55.9045751 C17.8660305,56.1562953 18.0156725,56.3668766 18.2011641,56.5084243 L151.277588,153.043625 C151.596864,153.263014 151.985982,153.259859 152.304419,153.035389 L223.629221,104.133931 C224.133462,103.798037 224.311408,103.031333 224.026674,102.421193 C223.926736,102.207007 223.777513,102.031644 223.597162,101.916443 L90.9246314,12.4124901 Z" id="Rectangle-10-Copy" fill="#40495F"></path>
                </g>
                <g id="汽车" transform="translate(150.474714, 128.500000) rotate(1.000000) translate(-150.474714, -128.500000) translate(75.974714, 72.000000)">
                    <path d="M142.529028,88.3570664 C143.418118,89.3089059 143.048406,90.4407256 141.419891,91.7525257 C139.791377,93.0643258 129.978315,99.8569402 111.980706,112.130369 L103.723234,112.130369 L75.4730002,101.307541 L72.4117447,102.775208 L68.0235318,102.775208 L72.4117447,100.243718 C56.9088456,95.3380349 48.4713932,92.5076375 47.0993877,91.7525257 C45.7273822,90.9974139 40.3703705,88.0554033 31.0283528,82.9264939 L0.83553981,65.0136815 C-0.598367067,63.7798941 -0.186680616,62.4570705 2.07059916,61.0452107 C4.32787894,59.6333508 11.5207323,54.6182806 23.6491593,46 L80.0230683,77.1016182 L114.501703,95.6904698 L142.529028,85.2751418 L142.529028,88.3570664 Z" id="Path-12" fill="url(#linearGradient-6)" style="mix-blend-mode: multiply;"></path>
                    <g id="后视镜" transform="translate(131.072114, 50.446897) rotate(-51.000000) translate(-131.072114, -50.446897) translate(127.072114, 47.946897)">
                        <polygon id="Rectangle-Copy" fill="#C7DAFF" points="1.04568109 0.41658664 6.48704723 0.996316983 7.07286904 1.69447223 1.58800449 1.66937272"></polygon>
                        <polygon id="Rectangle" fill="#6D9CF1" points="1.41514191 1.65506955 7.088726 1.68777975 4.15172357 4.15221741 0.514197429 4.76351835"></polygon>
                    </g>
                    <g id="车侧" transform="translate(24.000000, 24.000000)">
                        <g id="Group-10" transform="translate(0.000000, 0.000000)">
                            <mask id="mask-8" fill="white">
                                <use xlink:href="#path-7"></use>
                            </mask>
                            <use id="Path-6" fill="#253D9A" xlink:href="#path-7"></use>
                            <path d="M20.3478646,47.7923479 C24.7178814,47.9057133 26.7188757,43.1800997 24.8180799,37.2729012 C22.9182443,31.4049222 17.8407297,26.76867 13.4762642,26.8820354 C9.11179874,26.9954008 7.10861649,31.631653 9.00290078,37.2729012 C10.8981453,42.9533689 15.9778479,47.6789825 20.3478646,47.7923479 Z" id="Oval-5" fill="#12113D" mask="url(#mask-8)"></path>
                            <path d="M76.4552472,80.4323479 C80.825264,80.5457133 82.8262583,75.8200997 80.9254625,69.9129012 C79.0256269,64.0449222 73.9481123,59.40867 69.5836468,59.5220354 C65.2191813,59.6354008 63.215999,64.271653 65.1102833,69.9129012 C67.0055279,75.5933689 72.0852304,80.3189825 76.4552472,80.4323479 Z" id="Oval-5-Copy" fill="#12113D" mask="url(#mask-8)"></path>
                            <polygon id="Path-15" fill="#D43434" mask="url(#mask-8)" points="-0.513145497 14.1678607 2.29719971 15.5726406 2.14875397 22.4839988 -1.09061519 20.5963985"></polygon>
                        </g>
                        <path d="M1.74292648,11.4171875 L6.60888003,3.2876964 C7.44895953,1.8841855 9.25851295,1.41232949 10.6769772,2.22690643 L52.6243315,26.3158799 L69.9982591,51.4499219 L1.74292648,11.4171875 Z" id="Path-6" fill="#1B2A62"></path>
                        <rect id="Rectangle-13" fill="#394B93" x="22.9530201" y="9.6" width="1.27516779" height="17.92"></rect>
                        <rect id="Rectangle-13-Copy" fill="#394B93" x="42.0805369" y="19.2" width="1.27516779" height="17.92"></rect>
                        <polygon id="Path-13" fill="#636A8C" fill-rule="nonzero" points="27.2814092 40.8555446 27.2245067 37.5956025 62.6251141 58.2599174 62.6799469 61.4012846"></polygon>
                        <path d="M43.3082026,38.3813699 L47.6562043,40.9931405" id="Path-14" stroke="#7F90B0" stroke-linecap="round"></path>
                        <path d="M24,27 L28.3480017,29.6117706" id="Path-14" stroke="#7F90B0" stroke-linecap="round"></path>
                    </g>
                    <g id="车胎" transform="translate(33.000000, 52.000000)">
                        <path d="M11.1867783,18.8012567 C15.2406218,18.9031779 17.096843,14.6546127 15.3335708,9.34374296 C13.5711895,4.06813357 8.86103612,-0.100091273 4.81234233,0.00182992742 C0.763648537,0.103751128 -1.09460228,4.27197598 0.662629405,9.34374296 C2.42075187,14.4507703 7.1329349,18.6993355 11.1867783,18.8012567 Z" id="Oval-5" fill="url(#linearGradient-9)"></path>
                        <path d="M10.5271733,17.297244 C14.058501,17.3860282 15.6754666,13.6850772 14.1394695,9.0587462 C12.6042484,4.46313076 8.50120511,0.832164721 4.97436331,0.9209489 C1.4475215,1.00973308 -0.171212094,4.64069911 1.35952312,9.0587462 C2.8910343,13.5075088 6.99584562,17.2084598 10.5271733,17.297244 Z" id="Oval-5" fill="url(#linearGradient-10)"></path>
                        <path d="M5.76720691,9.29707385 L3.26995243,7.86488449 L2.83911649,7.16847443 C2.8296046,6.63523324 2.83863164,6.21784008 2.86619761,5.91629494 C2.89376359,5.6147498 3.11533451,5.13969011 3.53091037,4.49111586 L3.86419193,5.43720993 L6.36355803,7.89803765 C6.47802868,7.86157948 6.60461835,7.84384774 6.74089369,7.84698948 L6.13570312,4.59243479 L6.13570312,3.30916866 C6.33057592,3.23613354 6.5971905,3.23613354 6.93554687,3.30916866 C7.27390325,3.38220378 7.95528346,3.69197229 8.9796875,4.2384742 L8.1311623,8.51189444 C8.24973223,8.62871759 8.35803979,8.75664475 8.45287978,8.89212763 C10.0016572,8.75935204 10.8699382,8.6755418 11.0577226,8.6406969 C11.2501005,8.60499965 11.5039762,8.39816339 11.8193498,8.02018813 L12.7424081,10.7950318 L11.826439,11.2235666 L8.85348483,10.229303 C8.82640207,10.4511058 8.74369192,10.63872 8.61694183,10.7819217 L11.0108859,14.4751882 L11.8160575,15.0397104 C11.3629748,15.3413659 10.9318664,15.5387431 10.5227323,15.631842 C10.1135983,15.7249409 9.59481322,15.733418 8.96637718,15.6572732 L8.47538546,14.9719585 L7.42297635,11.0270531 C7.21909583,10.9673597 7.02010354,10.8711769 6.83416415,10.747543 L5.85258053,12.5034457 L5.57589591,13.4962404 C4.91745735,12.9095392 4.5074665,12.4631176 4.34592336,12.1569755 C4.18438022,11.8508334 4.01482156,11.5422324 3.83724739,11.2311726 L4.46522434,10.8207774 L6.01576123,9.88481623 C5.90421007,9.69703318 5.81882942,9.49831911 5.76720691,9.29707385 Z" id="Combined-Shape" fill="url(#linearGradient-11)"></path>
                        <path d="M2.77690666,9.5826626 C1.60523611,5.96226814 2.87788131,2.89847151 5.71392134,2.8220383 C8.46219269,2.74797052 11.5668844,5.69618498 12.7240789,9.40469441 C13.8995026,13.1948835 12.622077,16.3173634 9.76982933,16.240591 C7.03601759,16.1670065 3.93331601,13.1789217 2.77690666,9.5826626 Z M12.1107185,9.5796838 C11.0279546,6.10970651 8.14255399,3.36973088 5.73192521,3.43469897 C3.41281157,3.49720065 2.32501657,6.11598448 3.38839076,9.40175113 C4.47217166,12.7721451 7.36992095,15.5628487 9.78781035,15.6279297 C12.0914059,15.6899343 13.1802487,13.0284177 12.1107185,9.5796838 Z" id="Oval-5" fill="url(#linearGradient-12)" fill-rule="nonzero"></path>
                    </g>
                    <g id="车胎-copy" transform="translate(89.000000, 85.000000)">
                        <path d="M11.1867783,18.8012567 C15.2406218,18.9031779 17.096843,14.6546127 15.3335708,9.34374296 C13.5711895,4.06813357 8.86103612,-0.100091273 4.81234233,0.00182992742 C0.763648537,0.103751128 -1.09460228,4.27197598 0.662629405,9.34374296 C2.42075187,14.4507703 7.1329349,18.6993355 11.1867783,18.8012567 Z" id="Oval-5" fill="url(#linearGradient-9)"></path>
                        <path d="M10.5271733,17.297244 C14.058501,17.3860282 15.6754666,13.6850772 14.1394695,9.0587462 C12.6042484,4.46313076 8.50120511,0.832164721 4.97436331,0.9209489 C1.4475215,1.00973308 -0.171212094,4.64069911 1.35952312,9.0587462 C2.8910343,13.5075088 6.99584562,17.2084598 10.5271733,17.297244 Z" id="Oval-5" fill="url(#linearGradient-10)"></path>
                        <path d="M5.76720691,9.29707385 L3.26995243,7.86488449 L2.83911649,7.16847443 C2.8296046,6.63523324 2.83863164,6.21784008 2.86619761,5.91629494 C2.89376359,5.6147498 3.11533451,5.13969011 3.53091037,4.49111586 L3.86419193,5.43720993 L6.36355803,7.89803765 C6.47802868,7.86157948 6.60461835,7.84384774 6.74089369,7.84698948 L6.13570312,4.59243479 L6.13570312,3.30916866 C6.33057592,3.23613354 6.5971905,3.23613354 6.93554687,3.30916866 C7.27390325,3.38220378 7.95528346,3.69197229 8.9796875,4.2384742 L8.1311623,8.51189444 C8.24973223,8.62871759 8.35803979,8.75664475 8.45287978,8.89212763 C10.0016572,8.75935204 10.8699382,8.6755418 11.0577226,8.6406969 C11.2501005,8.60499965 11.5039762,8.39816339 11.8193498,8.02018813 L12.7424081,10.7950318 L11.826439,11.2235666 L8.85348483,10.229303 C8.82640207,10.4511058 8.74369192,10.63872 8.61694183,10.7819217 L11.0108859,14.4751882 L11.8160575,15.0397104 C11.3629748,15.3413659 10.9318664,15.5387431 10.5227323,15.631842 C10.1135983,15.7249409 9.59481322,15.733418 8.96637718,15.6572732 L8.47538546,14.9719585 L7.42297635,11.0270531 C7.21909583,10.9673597 7.02010354,10.8711769 6.83416415,10.747543 L5.85258053,12.5034457 L5.57589591,13.4962404 C4.91745735,12.9095392 4.5074665,12.4631176 4.34592336,12.1569755 C4.18438022,11.8508334 4.01482156,11.5422324 3.83724739,11.2311726 L4.46522434,10.8207774 L6.01576123,9.88481623 C5.90421007,9.69703318 5.81882942,9.49831911 5.76720691,9.29707385 Z" id="Combined-Shape" fill="url(#linearGradient-11)"></path>
                        <path d="M2.77690666,9.5826626 C1.60523611,5.96226814 2.87788131,2.89847151 5.71392134,2.8220383 C8.46219269,2.74797052 11.5668844,5.69618498 12.7240789,9.40469441 C13.8995026,13.1948835 12.622077,16.3173634 9.76982933,16.240591 C7.03601759,16.1670065 3.93331601,13.1789217 2.77690666,9.5826626 Z M12.1107185,9.5796838 C11.0279546,6.10970651 8.14255399,3.36973088 5.73192521,3.43469897 C3.41281157,3.49720065 2.32501657,6.11598448 3.38839076,9.40175113 C4.47217166,12.7721451 7.36992095,15.5628487 9.78781035,15.6279297 C12.0914059,15.6899343 13.1802487,13.0284177 12.1107185,9.5796838 Z" id="Oval-5" fill="url(#linearGradient-12)" fill-rule="nonzero"></path>
                    </g>
                    <g id="车头" transform="translate(107.000000, 64.000000)">
                        <path d="M0.11021306,24.1623262 L4.50015846,26.3174036 L9.63337847,23.6688236 C10.1241822,23.4155843 10.7273482,23.6081684 10.9805875,24.0989721 C11.0125617,24.1609414 11.0379665,24.2260852 11.056387,24.2933402 L11.5733513,26.1808195 C11.8007913,27.0112217 11.4712616,27.8939876 10.7553145,28.3722307 L6.39235746,31.2866277 L0.495802659,27.2669319 L0.11021306,24.1623262 Z" id="Path-7" fill="#FFB620"></path>
                        <g id="Group-8" transform="translate(3.197115, 0.000000)">
                            <mask id="mask-14" fill="white">
                                <use xlink:href="#path-13"></use>
                            </mask>
                            <use id="Path-5" fill="#6098FF" xlink:href="#path-13"></use>
                            <path d="M30.5255831,6.32072151 C30.9961274,5.98028612 32.3524064,5.02959773 34.5944202,3.46865632 L35.3890158,1.64388795 L36.6231042,5.37786447 C36.8942305,6.1982104 36.607926,7.09991736 35.9132268,7.61360017 L32.8015205,9.91444901 C32.357467,10.2427965 31.7313122,10.1489981 31.4029647,9.70494452 C31.3550375,9.64012824 31.3151237,9.56975441 31.2840923,9.49535532 C30.4887566,7.58850185 30.2359202,6.53029058 30.5255831,6.32072151 Z" id="Path-7" fill="#FFFFFF" mask="url(#mask-14)"></path>
                        </g>
                        <g id="Group-7" transform="translate(5.754808, 11.946095)">
                            <mask id="mask-16" fill="white">
                                <use xlink:href="#path-15"></use>
                            </mask>
                            <use id="Path-5" fill="#2F5AC2" xlink:href="#path-15"></use>
                            <path d="M10.8701923,17.578644 L10.8701923,18.7367423 C10.8701923,19.2890271 11.3179076,19.7367423 11.8701923,19.7367423 C12.0839888,19.7367423 12.2921574,19.668222 12.4641551,19.5412348 L27.4546119,8.47367017 C28.220666,7.90808682 28.6727236,7.01241277 28.6727236,6.06019256 L28.6727236,3.86332767 L10.8701923,17.578644 Z" id="Path-8" fill="#2B3042" mask="url(#mask-16)"></path>
                            <path d="M3.83653846,25.0230481 L3.83653846,25.8085449 C3.83653846,26.0846873 4.06039609,26.3085449 4.33653846,26.3085449 C4.44245397,26.3085449 4.54563353,26.274911 4.63120208,26.2124921 L7.20089715,24.3380005 C7.45896503,24.1497502 7.61156992,23.8495388 7.61156992,23.5301061 L7.61156992,22.2572067 L3.83653846,25.0230481 Z" id="Path-8-Copy" fill="#FFFFFF" opacity="0.749888393" mask="url(#mask-16)"></path>
                            <path d="M30.6923077,5.08838108 L30.6923077,5.84801858 C30.6923077,6.12416095 30.9161653,6.34801858 31.1923077,6.34801858 C31.2982232,6.34801858 31.4014028,6.31438469 31.4869713,6.25196579 L34.0566664,4.37747423 C34.3147343,4.18922386 34.4673391,3.88901247 34.4673391,3.5695798 L34.4673391,2.32253966 L30.6923077,5.08838108 Z" id="Path-8-Copy-2" fill="#FFFFFF" opacity="0.749888393" mask="url(#mask-16)"></path>
                        </g>
                        <g id="Group-9" transform="translate(12.788462, 8.726655)">
                            <mask id="mask-18" fill="white">
                                <use xlink:href="#path-17"></use>
                            </mask>
                            <use id="Path-8" fill="#222536" xlink:href="#path-17"></use>
                            <polygon id="Line-2" fill="#FFFFFF" fill-rule="nonzero" mask="url(#mask-18)" points="0.802767834 16.05897 0.639423077 15.3756405 7.45932447 10.4889991 7.80271883 11.0851729"></polygon>
                            <path d="M11.080808,9.87362879 C12.3146049,9.11018808 13.1543098,8.02022414 12.9563414,7.43912621 C12.7583729,6.85802828 11.5976978,7.00584631 10.3639008,7.76928703 C9.13010386,8.53272775 8.29039896,9.62269168 8.4883674,10.2037896 C8.68633585,10.7848875 9.84701103,10.6370695 11.080808,9.87362879 Z" id="Oval-4" fill="#FFFFFF" mask="url(#mask-18)"></path>
                            <polygon id="Line-2-Copy" fill="#FFFFFF" fill-rule="nonzero" mask="url(#mask-18)" points="13.6647022 6.84272422 13.3681796 6.26464516 19.8891012 1.72376341 20.052446 2.40709295"></polygon>
                        </g>
                        <path d="M4.50015846,26.3174036 L9.31748669,23.3453302 C9.78751488,23.0553441 10.4036282,23.201297 10.6936143,23.6713252 C10.7147851,23.7056401 10.7338611,23.741204 10.7507378,23.7778221 L12.0873494,26.6779159 C12.2976532,27.1342194 12.1367272,27.6757212 11.711353,27.9431111 L6.39235746,31.2866277 L4.50015846,26.3174036 Z" id="Path-7" fill="#FFFFFF"></path>
                    </g>
                    <g id="车顶" transform="translate(31.000000, 0.000000)">
                        <polygon id="Rectangle-12" fill="#A4C3FC" transform="translate(88.358771, 69.754545) rotate(-33.000000) translate(-88.358771, -69.754545) " points="64.0942804 60.7456411 105.918107 59.1921721 112.623261 79.7735709 71.0448462 80.3169174"></polygon>
                        <path d="M63.1654999,75.5382182 L48.2175101,53.7533264 C46.5913142,51.4158808 43.5726334,49.0221769 39.1614675,46.5722148 C34.7503016,44.1222526 21.911031,36.7658603 0.643655751,24.5030379 L36.5199263,0.0208129883 L75.7949877,22.8652751 C79.282435,24.6221856 82.0888836,27.1102837 84.2143335,30.3295695 C86.3397834,33.5488553 90.737531,40.5237554 97.4075763,51.2542699 L63.1654999,75.5382182 Z" id="Path-3" fill="#7BA5FF"></path>
                        <g id="Path-3">
                            <use fill="#A1CAFF" fill-rule="evenodd" xlink:href="#path-19"></use>
                            <use fill="black" fill-opacity="1" filter="url(#filter-20)" xlink:href="#path-19"></use>
                        </g>
                        <g id="Group" transform="translate(50.000000, 31.000000)">
                            <mask id="mask-22" fill="white">
                                <use xlink:href="#path-21"></use>
                            </mask>
                            <g id="Path-3">
                                <use fill="#A1CAFF" fill-rule="evenodd" xlink:href="#path-21"></use>
                                <use fill="black" fill-opacity="1" filter="url(#filter-23)" xlink:href="#path-21"></use>
                            </g>
                            <path d="M46.1342974,20.0274259 L43.125409,19.3774447 C40.1283556,18.7300202 36.997091,19.362896 34.4867269,21.1234527 L17.7975351,32.827838 C14.805979,34.925862 13.0514741,38.3724361 13.1152438,42.0257971 L13.1459677,43.7859694 L46.1342974,20.0274259 Z" id="Path-11" fill="#5C7EC1" opacity="0.290792411" mask="url(#mask-22)"></path>
                            <mask id="mask-25" fill="white">
                                <use xlink:href="#path-24"></use>
                            </mask>
                            <use id="Path-3" fill="#FFFFFF" opacity="0.342745536" xlink:href="#path-24"></use>
                            <mask id="mask-27" fill="white">
                                <use xlink:href="#path-26"></use>
                            </mask>
                            <use id="Path-3" fill="#FFFFFF" opacity="0.342745536" xlink:href="#path-26"></use>
                        </g>
                        <g id="Group-5" transform="translate(32.000000, 1.000000)" fill-rule="nonzero">
                            <path d="M42.8694635,28.6067665 L1.649318,4.17030494 C1.17424119,3.88866604 1.01742878,3.27522676 1.29906767,2.80014994 C1.36408031,2.69048471 1.44946301,2.59426244 1.55061628,2.51666655 L1.79423217,2.32978589 L46.0989168,28.2841483 L46.0989168,28.2841483 C45.2092052,29.0872284 43.9004602,29.2179703 42.8694635,28.6067665 Z" id="Path-4" fill="#3359A3" opacity="0.799832589"></path>
                            <path d="M47.3293087,27.6396484 L45.7261934,28.7710714 L45.2482834,28.7794133 L42.0491367,25.0340629 C41.6426149,24.4875838 41.1326579,24.0278268 40.5487748,23.6813962 L5.15388186,2.68083166 C4.95628811,2.56359497 4.7116223,2.56180606 4.5123635,2.67614113 L3.1784037,3.31967163 C2.76850324,3.55487326 2.13451667,3.44781251 1.276444,2.99848938 C1.02709504,2.3944346 1.47633879,1.72920735 2.62417526,1.00280762 C4.34592996,-0.0867919752 5.85269244,0.416624128 6.84066121,1.00280762 L41.8478882,21.4548695 C42.7237128,21.9745154 43.4886483,22.6641509 44.0984311,23.4838695 L47.3293087,27.6396484 Z" id="Path-4" fill="#F4F8FF"></path>
                            <path d="M45.7363831,28.781289 L45.2338656,28.7900605 L42.0491367,25.0340629 C41.6426149,24.4875838 41.1326579,24.0278268 40.5487748,23.6813962 L5.15388186,2.68083166 C4.95628811,2.56359497 4.7116223,2.56180606 4.5123635,2.67614113 L3.1784037,3.31967163 C2.56355301,3.67247408 1.44367072,3.32408651 1.28926549,3.00290426 C1.58228362,1.92165375 2.72886949,1.58592606 3.1784037,1.45840708 C3.62793792,1.33088811 5.01135985,1.23940728 5.99932861,1.82559077 L40.7911475,22.5293801 C41.6669722,23.049026 42.4319077,23.7386615 43.0416904,24.5583801 L45.7363831,28.781289 Z" id="Path-4" fill="#7A7F8B"></path>
                        </g>
                        <g id="Group-5-Copy" transform="translate(4.000000, 21.000000)" fill-rule="nonzero">
                            <path d="M42.4701956,28.732887 L1.25005013,4.29642541 C0.774973319,4.01478651 0.618160904,3.40134723 0.8997998,2.92627041 C0.964812434,2.81660518 1.05019514,2.72038291 1.15134841,2.64278703 L1.3949643,2.45590636 L45.6996489,28.4102688 L45.6996489,28.4102688 C44.8099373,29.2133489 43.5011923,29.3440908 42.4701956,28.732887 Z" id="Path-4" fill="#3359A3" opacity="0.799832589"></path>
                            <path d="M46.9300408,27.7657689 L45.3269256,28.8971919 L44.8490155,28.9055338 L41.6498688,25.1601834 C41.243347,24.6137043 40.73339,24.1539473 40.1495069,23.8075167 L4.75461399,2.80695213 C4.55702024,2.68971544 4.31235443,2.68792653 4.11309562,2.8022616 L2.77913583,3.4457921 C2.36923537,3.68099373 1.7352488,3.57393298 0.877176124,3.12460985 C0.627827164,2.52055507 1.07707092,1.85532782 2.22490739,1.12892809 C3.94666209,0.0393284961 5.45342457,0.542744599 6.44139334,1.12892809 L41.4486203,21.58099 C42.3244449,22.1006359 43.0893804,22.7902713 43.6991632,23.60999 L46.9300408,27.7657689 Z" id="Path-4" fill="#F4F8FF"></path>
                            <path d="M45.3371152,28.9074095 L44.8345978,28.916181 L41.6498688,25.1601834 C41.243347,24.6137043 40.73339,24.1539473 40.1495069,23.8075167 L4.75461399,2.80695213 C4.55702024,2.68971544 4.31235443,2.68792653 4.11309562,2.8022616 L2.77913583,3.4457921 C2.16428514,3.79859455 1.04440285,3.45020698 0.889997621,3.12902473 C1.18301575,2.04777422 2.32960162,1.71204653 2.77913583,1.58452756 C3.22867004,1.45700858 4.61209198,1.36552775 5.60006074,1.95171124 L40.3918797,22.6555006 C41.2677043,23.1751465 42.0326398,23.864782 42.6424226,24.6845006 L45.3371152,28.9074095 Z" id="Path-4" fill="#7A7F8B"></path>
                        </g>
                    </g>
                    <g id="后视镜" transform="translate(86.000000, 75.000000)">
                        <polygon id="Path-10" fill="#2C3A71" points="0.842317949 0.77998105 0.933986136 6.03164795 2.27405826 6.30582314 2.49481096 1.63792945"></polygon>
                        <polygon id="Rectangle-Copy" fill="#C7DAFF" points="0.82972748 0.754623191 7.5237794 0.154168741 8.22558508 0.531763736 2.4714869 1.67483756"></polygon>
                        <polygon id="Rectangle" fill="#6D9CF1" points="2.41514191 1.65506955 8.26212314 0.523190183 7.94797424 4.28569794 2.26225827 6.29888057"></polygon>
                    </g>
                </g>
                <g id="装饰" transform="translate(46.000000, 148.000000)">
                    <g id="Group-6">
                        <ellipse id="Oval-8" fill="url(#linearGradient-28)" cx="8.5" cy="25.5" rx="6.5" ry="3.5"></ellipse>
                        <path d="M8.92902555,24.6317298 C5.79248047,22.8891602 0.611816406,18.0425774 0.147949219,14.1534173 C-0.646688877,7.4910042 2.48583984,2.8454993 5.79248047,1.2890625 C7.99690755,0.251437965 10.6809896,0.660210752 13.8447266,2.51538086 L13.8447266,9.30664062 L8.88476562,24.625 C8.91427224,24.6294865 8.92902555,24.6317298 8.92902555,24.6317298 Z M7.39093436,16.6026904 C9.15791752,15.5484342 10.5903404,12.7230379 10.5903404,10.2919912 C10.5903404,7.86094445 9.15791752,6.74483525 7.39093436,7.79909148 C5.6239512,8.85334772 4.19152832,11.678744 4.19152832,14.1097907 C4.19152832,16.5408374 5.6239512,17.6569466 7.39093436,16.6026904 Z" id="Combined-Shape" fill="url(#linearGradient-29)"></path>
                        <path d="M8.92902555,24.6317298 C5.79248047,21.4414063 3.32177435,17.6882368 2.98999023,14.6057129 C2.40380859,9.15964458 5.31665039,4.77978516 9.33276367,2.84960937 C13.348877,0.919433594 16.3706055,3.10467111 16.3706055,7.79909148 C16.3706055,10.9287051 13.8756292,16.6366067 8.92902555,24.6317298 Z M10.1915283,14.1534173 C11.2960978,13.4943848 12.1915283,11.7281843 12.1915283,10.208498 C12.1915283,8.68881177 11.2960978,7.99111401 10.1915283,8.65014648 C9.08695882,9.30917896 8.19152832,11.0753795 8.19152832,12.5950657 C8.19152832,14.114752 9.08695882,14.8124498 10.1915283,14.1534173 Z" id="Combined-Shape" fill="url(#linearGradient-30)"></path>
                    </g>
                    <g id="Group-3" transform="translate(303.000000, 9.000000)">
                        <ellipse id="Oval-7" fill="url(#linearGradient-28)" cx="6.5" cy="29.5" rx="6.5" ry="3.5"></ellipse>
                        <path d="M6.5,7 L13,26.5748647 C11.600896,28.1916216 9.43422929,29 6.5,29 C3.56577071,29 1.39910404,28.1916216 0,26.5748647 L6.5,7 Z" id="Triangle-Copy" fill="url(#linearGradient-31)"></path>
                        <path d="M6.5,0 L13,19.5748647 C11.600896,21.1916216 9.43422929,22 6.5,22 C3.56577071,22 1.39910404,21.1916216 0,19.5748647 L6.5,0 Z" id="Triangle" fill="url(#linearGradient-32)"></path>
                    </g>
                    <g id="Group-3-Copy" transform="translate(102.000000, 65.000000)">
                        <ellipse id="Oval-7" fill="url(#linearGradient-28)" cx="6.5" cy="29.5" rx="6.5" ry="3.5"></ellipse>
                        <path d="M6.5,7 L13,26.5748647 C11.600896,28.1916216 9.43422929,29 6.5,29 C3.56577071,29 1.39910404,28.1916216 0,26.5748647 L6.5,7 Z" id="Triangle-Copy" fill="url(#linearGradient-31)"></path>
                        <path d="M6.5,0 L13,19.5748647 C11.600896,21.1916216 9.43422929,22 6.5,22 C3.56577071,22 1.39910404,21.1916216 0,19.5748647 L6.5,0 Z" id="Triangle" fill="url(#linearGradient-32)"></path>
                    </g>
                </g>
                <g id="名称2" transform="translate(233.000000, 26.000000)">
                    <path d="M96.9216812,52.4939352 L8.09044769,1.24677683 C6.85697886,0.535182834 5.35212763,0.519866425 4.13120187,1.20647954 L1.68261719,2.58349231 L4.36439544,21.1689726 C4.57525148,22.6302645 5.41770642,23.9366268 6.66710301,24.7396921 L94.409668,81.1373277 L96.9900079,80.0666251 C98.8169763,79.3085313 99.9990234,77.5294295 99.9990234,75.5377491 L99.9990234,57.7929124 C99.9990234,55.6175156 98.8215441,53.589975 96.9216812,52.4939352 Z" id="Rectangle-15" fill="#D8E3F4"></path>
                    <path d="M93.4818221,55.7044417 L3.6900189,2.61753914 C2.73124976,2.0506936 1.50937906,2.35989551 0.960894318,3.30816096 C0.787901574,3.60724501 0.696899414,3.94784229 0.696899414,4.29622483 L0.696899414,23.4967245 C0.696899414,25.2901423 1.65740943,26.9645922 3.21410071,27.8849426 L93.005904,80.9718451 C93.9646731,81.5386907 95.1865438,81.2294888 95.7350285,80.2812233 C95.9080213,79.9821393 95.9990234,79.641542 95.9990234,79.2931594 L95.9990234,60.0926598 C95.9990234,58.299242 95.0385134,56.6247921 93.4818221,55.7044417 Z" id="Rectangle-15" fill="#F3F4FC"></path>
                    <path d="M11.3045407,14.4921105 L12.3687349,15.3322596 C12.2971064,15.9411385 12.2152453,16.5050334 12.112919,17.0049819 L15.3464321,18.8856846 L15.3464321,19.7834298 C15.1827099,20.7941225 14.9882898,21.7869603 14.7427066,22.7370294 L13.6989776,21.7526539 C13.9036304,21.1560917 14.0775852,20.4245775 14.2208421,19.5451005 L11.8366378,18.1583799 C11.5808219,18.9723894 11.2738428,19.5744897 10.9054679,19.9587293 L10.0459264,18.6911584 C10.7008151,17.9010881 11.1203532,16.4927316 11.3045407,14.4921105 Z M9.64685357,23.7284207 C9.33987448,22.9513762 9.03289538,22.1873424 8.71568365,21.4303679 C8.142656,22.5022453 7.45706936,23.2224176 6.64869107,23.5849332 L6.11659397,22.0524352 C6.92497226,21.7679844 7.57986099,21.0689897 8.08126018,19.9554512 C7.50823254,18.6723736 6.91473962,17.4034145 6.28031616,16.1236598 L6.98636808,15.6756067 C7.44683672,16.5289143 7.95846855,17.5681095 8.51103092,18.7742299 C8.73614892,17.9683872 8.92033638,17.0606734 9.06359329,16.0380776 L6.30078143,14.4311481 L6.30078143,13.1170572 L10.1073222,15.3310489 L10.1073222,16.5800858 C9.88220421,18.0364685 9.57522512,19.2760981 9.2068502,20.3108777 C9.59569039,21.200589 9.99476321,22.1482951 10.4245339,23.17891 L9.64685357,23.7284207 Z M12.2459432,19.1120375 L13.2999048,19.7250514 C13.2999048,20.6227966 13.2589743,21.4186707 13.1771132,22.1256845 C13.6682797,24.3369593 14.4971233,26.3673235 15.6841091,28.2156693 L14.9678246,28.8659436 C14.0468873,27.3024472 13.3408354,25.6557613 12.8292035,23.9139829 C12.4608286,25.1959677 11.6115198,25.9380118 10.2915097,26.1460667 L9.61615566,24.6993868 C10.7417457,24.4953489 11.4784955,23.8960102 11.8264052,22.8883598 C12.0924537,22.0022371 12.2357106,20.7454469 12.2459432,19.1120375 Z M17.3622615,18.3016898 C18.0478482,19.377008 18.6311084,20.4058212 19.1120424,21.3751184 L18.3752925,21.8833815 C17.9659871,20.9947778 17.3929594,19.9458947 16.645977,18.7437913 L17.3622615,18.3016898 Z M23.4813782,33.5704618 C22.8981179,33.2312211 22.2636944,32.8492117 21.5781078,32.4374444 C20.8822885,32.0197254 20.3092608,31.6083715 19.8692575,31.2093343 C19.4292541,30.7972863 19.0608792,30.2837806 18.7539001,29.6628657 C18.6106432,29.345349 18.4673863,29.1579403 18.3445946,29.0865212 C18.1399419,28.9674894 17.771567,29.3647398 17.2394699,30.2912831 L16.4822548,28.9401094 C16.9938866,28.1708032 17.4543552,27.7490524 17.884126,27.7127816 L17.884126,24.1087897 L16.50272,23.305325 L16.50272,22.0823097 L18.8562264,23.4511755 L18.8562264,28.3692583 C18.897157,28.4451078 18.9483202,28.526909 18.9994834,28.6347318 C19.2552993,29.1348131 19.5008825,29.5378673 19.7464658,29.8498459 C20.0636776,30.2164964 20.5343788,30.6073668 21.1688023,31.002387 C21.7827605,31.3724933 22.5092777,31.808067 23.3483539,32.2960975 C23.8190552,32.5698706 24.2897564,32.830633 24.780923,33.1032985 C25.2720895,33.3629533 25.6404645,33.5641998 25.906513,33.6929195 L25.6609297,34.8381506 L23.4813782,33.5704618 Z M19.6339068,28.83459 L19.347393,27.4709517 C19.5315805,27.473994 19.6339068,27.3123263 19.6339068,26.9870562 L19.6339068,20.6768178 C20.5139136,20.837363 21.2097328,20.8257255 21.7418299,20.6668194 L22.3353229,22.1049189 C21.9055521,22.2192546 21.3427571,22.2432087 20.6264726,22.1518674 L20.6264726,27.8115657 C21.0971738,27.9161985 21.5474099,27.9959173 21.9976459,28.0626253 L22.192066,29.450764 C21.4553161,29.3084871 20.6060073,29.1007427 19.6339068,28.83459 Z M24.5865029,31.2727926 L23.8292878,30.8323749 L23.542774,29.3776611 L24.2488259,29.8533748 C24.4330134,29.9605035 24.5251071,29.870949 24.5251071,29.5977222 L24.5251071,24.2372722 L23.4404476,23.6064036 L23.4404476,31.9983701 L22.417184,31.4032111 L22.417184,21.8142508 L25.5279055,23.6235344 L25.5279055,30.4542049 C25.5279055,31.3649609 25.2106937,31.6358396 24.5865029,31.2727926 Z M28.9865366,27.9120622 C29.2935157,28.7281392 29.6004948,29.6222809 29.8972413,30.5755251 L29.1707241,30.621351 L30.8079459,31.5736055 L30.8079459,28.7242401 L27.2469884,26.6530866 L27.2469884,25.3389957 L30.8079459,27.4101492 L30.8079459,26.0570259 L31.8926054,26.6878946 L31.8926054,28.0410178 L35.5456566,30.1657357 L35.5456566,31.4798266 L31.8926054,29.3551087 L31.8926054,32.2044741 L32.7112163,32.6806014 C33.0591259,32.0372534 33.3558724,31.3121043 33.6116883,30.5111056 L34.6554172,31.5865566 C34.3893687,32.2514957 34.0926222,32.8205153 33.7651779,33.2936152 L35.8321704,34.4958365 L35.8321704,35.8099274 L32.7112163,33.9946923 C33.4275009,35.7253945 34.5837888,37.5819071 36.1800801,39.5512193 L35.4433303,40.2936769 C33.7856431,37.9503743 32.5986573,35.7247153 31.8926054,33.6356622 L31.8926054,38.6708421 L30.8079459,38.0399735 L30.8079459,32.9917828 C30.1428245,34.4004199 28.9149081,35.2215036 27.1139641,35.4620929 L26.5204712,33.8938853 C28.1986236,33.8160713 29.3549115,33.317629 29.9688697,32.399666 L26.8479156,30.5844308 L26.8479156,29.2703399 L28.9456061,30.490416 C28.6590922,29.5561342 28.3623458,28.7069764 28.045134,27.9369911 L28.9865366,27.9120622 Z M42.2889641,42.1545305 L42.2889641,43.5076538 C40.6926728,42.9955513 38.9838225,42.365938 37.1624132,41.5927925 L36.9065973,40.1429227 C37.6945103,40.4971087 38.4721907,40.8323324 39.2294058,41.1296313 L39.2294058,39.0999464 L37.3772986,38.0227085 L37.3772986,36.7216284 L39.2294058,37.7988663 L39.2294058,36.4847754 L40.3038326,37.1096924 L40.3038326,38.4237833 L41.9922176,39.4057958 L41.9922176,40.7068759 L40.3038326,39.7248634 L40.3038326,41.5203539 C40.9791866,41.7570293 41.6340754,41.9557799 42.2889641,42.1545305 Z M37.0805521,30.095675 L42.2480335,33.1012283 L42.2480335,34.3762868 L39.700107,32.8943407 C39.2908016,33.710152 38.9224267,34.3155752 38.5949823,34.6975995 C39.3317321,35.0220276 40.068482,35.3334449 40.8052318,35.6058299 C40.6210443,35.1343988 40.4266242,34.6440054 40.2219715,34.1476603 L41.0405824,33.9602367 C41.7159364,35.4849814 42.2275683,36.7713818 42.5857105,37.8123787 L41.6954712,38.0752384 C41.5726795,37.6915601 41.4396553,37.3019302 41.2963983,36.9063487 C40.0173188,36.4486375 38.6256802,35.8734156 37.1317153,35.1996453 L36.8963646,33.8527543 C37.0805521,33.9338613 37.2135764,33.9591888 37.3159027,33.9666615 C37.6024166,33.8340576 38.0219547,33.2583924 38.5540518,32.2277626 L37.0805521,31.3707335 L37.0805521,30.095675 Z M44.8982864,46.1312275 L43.3736236,45.2444405 L43.1382729,43.793463 C43.6294395,44.1311825 44.0899081,44.4250257 44.5299115,44.6809441 C44.7652621,44.8178307 44.8880538,44.7201094 44.8880538,44.4078502 L44.8880538,34.2464147 L45.9727132,34.8772833 L45.9727132,45.3900104 C45.9727132,46.3007665 45.614571,46.5478388 44.8982864,46.1312275 Z M42.9233876,34.2746814 L43.9568838,34.875792 L43.9568838,42.8253913 L42.9233876,42.2242807 L42.9233876,34.2746814 Z M48.6434314,38.3822686 C48.4592439,38.6134208 48.2545912,38.7806266 48.0499385,38.9218108 L49.3801812,39.6955176 C49.4211117,39.4330863 49.4518097,39.1647035 49.4722749,38.8643474 L48.6434314,38.3822686 Z M49.0732021,40.7529959 L47.2415602,39.6876612 L47.2415602,38.4516351 L47.6917962,38.7135051 L47.190397,37.6282183 C47.6610983,37.3815595 48.0704037,36.8780074 48.428546,36.1235138 L49.3904138,36.9561902 C49.3187854,37.1487235 49.2471569,37.3412567 49.1652958,37.5018168 L51.9178751,39.1027947 L51.9178751,40.2867776 L50.4750733,39.4476033 C50.454608,39.7479594 50.4341428,40.0222938 50.4034449,40.2906766 L52.2043889,41.3381566 L52.2043889,42.5741827 L50.1885595,41.4017193 L50.1578616,41.5009618 C50.9150767,42.4357899 51.5495001,43.2861881 52.0713646,44.0841297 L51.4676391,44.5006231 L55.3969715,46.7860339 L55.3969715,52.3936891 L54.312312,51.7628205 L54.312312,51.2814209 L49.5848339,48.531786 L49.5848339,49.0131856 L48.5104071,48.3882686 L48.5104071,43.0928726 C48.2648238,43.1321857 48.0090079,43.1655471 47.7429594,43.1799462 L47.0266748,41.6574167 C48.0704037,41.678993 48.7559904,41.3751663 49.0732021,40.7529959 Z M49.5848339,47.3347923 L54.312312,50.0844272 L54.312312,49.3298007 L49.5848339,46.5801658 L49.5848339,47.3347923 Z M49.5848339,45.4091938 L54.312312,48.1588286 L54.312312,47.352159 L49.5848339,44.6025241 L49.5848339,45.4091938 Z M48.8685494,42.9889191 L51.1401947,44.3101722 C50.7718198,43.6795693 50.3318164,43.0203161 49.8099519,42.3004393 C49.5746013,42.60592 49.2573896,42.8377663 48.8685494,42.9889191 Z M52.4806701,39.4691646 L56.1439539,41.5998341 L56.1439539,46.5829708 L52.4806701,44.4523013 L52.4806701,39.4691646 Z M55.100225,44.7919257 L55.100225,42.1897655 L53.524399,41.2732205 L53.524399,43.8753807 L55.100225,44.7919257 Z M65.6193754,55.0215739 L62.2733032,53.0754038 C62.6621434,53.7048991 62.9588899,54.2287868 63.1737752,54.6660294 L62.447258,54.8940065 C62.1812095,54.3489412 61.8332999,53.7042199 61.4035291,52.9728534 L61.9049283,52.8611465 L58.2621097,50.7423803 L58.2621097,49.779581 L64.5961117,53.4636156 L64.5961117,52.9692052 L58.7225783,49.5529921 L58.7225783,48.6552469 L64.5961117,52.0714599 L64.5961117,51.5770495 L58.3849013,47.964434 L58.3849013,47.0016347 L59.4695608,47.6325033 L59.4695608,47.1120713 L57.7504779,46.112204 L57.7504779,45.1754264 L59.4695608,46.1752936 L59.4695608,45.693894 L58.1290854,44.9142356 L58.1290854,43.9774579 L59.4695608,44.7571163 L59.4695608,44.2887275 L57.944898,43.4019405 L57.944898,42.4651628 L59.4695608,43.3519498 L59.4695608,42.753453 L60.5132897,43.3605152 L60.5132897,43.9590121 L61.8742304,44.7505736 L61.8742304,45.6873513 L60.5132897,44.8957897 L60.5132897,45.3641786 L61.7207409,46.0664663 L61.7207409,47.0032439 L60.5132897,46.3009562 L60.5132897,46.7823558 L61.8639978,47.5679658 L61.8639978,48.5047435 L60.5132897,47.7191335 L60.5132897,48.2395655 L63.6444765,50.0607523 L63.6444765,49.5403203 L62.1607442,48.6773396 L62.1607442,47.7405619 L63.6444765,48.6035426 L63.6444765,48.122143 L62.3756296,47.3841457 L62.3756296,46.4473681 L63.6444765,47.1853653 L63.6444765,46.7169765 L62.2119074,45.8837538 L62.2119074,44.9469761 L63.6444765,45.7801988 L63.6444765,45.181702 L64.6882054,45.7887642 L64.6882054,46.387261 L66.2026356,47.2680965 L66.2026356,48.2048741 L64.6882054,47.3240387 L64.6882054,47.7924275 L65.9877503,48.5482796 L65.9877503,49.4850572 L64.6882054,48.7292052 L64.6882054,49.2106048 L66.3458926,50.1747625 L66.3458926,51.1115402 L64.6882054,50.1473825 L64.6882054,50.6678145 L65.6193754,51.2094093 L65.6193754,55.0215739 Z M58.2723423,51.1776883 L59.1932796,51.9735475 C58.9886269,52.7782825 58.7021131,53.4052968 58.3337382,53.8676012 L57.4844293,52.6970575 C57.8528042,52.2867963 58.1086202,51.7850461 58.2723423,51.1776883 Z M63.4807543,56.8222189 L60.7281751,55.221241 C60.0323558,54.8165328 59.6844462,54.2108439 59.6844462,53.4041743 L59.6844462,51.9599754 L60.7179425,52.561086 L60.7179425,53.7190473 C60.7179425,53.9532417 60.8100362,54.1239033 61.0044563,54.2369835 L63.2761016,55.5582366 C63.4398238,55.6534621 63.5523828,55.6668863 63.6240112,55.6044611 C63.716105,55.5409282 63.7775008,55.2383569 63.8081987,54.6967472 L64.7802992,55.6524724 C64.6984381,56.5416373 64.5551812,57.0177795 64.3607611,57.0868505 C64.1561083,57.1239483 63.8695945,57.0483793 63.4807543,56.8222189 Z M65.5477469,55.162064 C66.1105419,56.244028 66.5403127,57.1705564 66.8472917,57.9345902 L66.0696114,58.1718417 C65.7523996,57.3498132 65.3226289,56.3972631 64.7905318,55.3201431 L65.5477469,55.162064 Z M75.3096822,63.8323657 L74.4910712,63.3562384 L74.2045574,61.9145354 L75.0947968,62.4713562 C75.3506127,62.620146 75.483637,62.4633222 75.483637,62.0079442 L75.483637,53.7851181 L71.6770962,51.5711263 L71.6770962,50.3220895 L76.5273659,53.1431434 L76.5273659,62.9923197 C76.5273659,64.020173 76.1180604,64.3025414 75.3096822,63.8323657 Z M68.0138123,49.8177701 L69.0575412,50.4248324 L69.0575412,60.313041 L68.0138123,59.7059788 L68.0138123,49.8177701 Z M69.824989,48.5682899 C70.2956903,49.5446463 70.7049957,50.5503472 71.063138,51.6043549 L70.1012702,51.6824346 C69.7226626,50.5514697 69.3031245,49.5137957 68.8528885,48.5623532 L69.824989,48.5682899 Z M82.5850867,58.9173536 L83.6595136,59.5422707 L83.6595136,60.895394 L86.8725614,62.7641934 L86.8725614,64.0392519 L83.6595136,62.1704524 L83.6595136,63.7317485 L86.3302317,65.2851137 L86.3302317,70.3463152 L85.2762701,69.7333014 L85.2762701,69.1868478 L81.367403,66.9133401 L81.367403,67.4597938 L80.3032088,66.8408283 L80.3032088,61.7796268 L82.5850867,63.1068315 L82.5850867,58.9173536 Z M81.367403,65.6382817 L85.2762701,67.9117893 L85.2762701,65.9211368 L81.367403,63.6476291 L81.367403,65.6382817 Z M82.9534616,56.2692347 C83.1069512,56.722811 83.2502081,57.2094681 83.393465,57.7351576 L87.1079121,59.895585 L87.1079121,61.1966651 L79.7301811,56.9055682 L79.7301811,59.5597716 C79.6994832,62.404293 79.3311083,64.4929475 78.6250564,65.8127243 L77.8064455,64.4128302 C78.3590078,63.303028 78.6557543,61.4849716 78.6762196,58.9467578 L78.6762196,54.9914743 L82.2883403,57.0923858 C82.1450834,56.6577719 82.0018264,56.2491796 81.8381043,55.8547058 L82.9534616,56.2692347 Z M89.502349,61.5484732 L90.8837549,62.351938 L90.627939,68.8256459 L89.7581649,68.3197606 L89.502349,61.5484732 Z M90.1879357,69.2723107 C90.4130537,69.4032457 90.6074738,69.6074015 90.7609633,69.8788266 C90.9042202,70.1443001 90.9860813,70.4261072 90.9860813,70.7123448 C90.9860813,70.9985825 90.9042202,71.1981749 90.7609633,71.2970039 C90.5972411,71.3839297 90.4130537,71.3678766 90.1879357,71.2369416 C89.9628177,71.1060066 89.7786302,70.8947916 89.6353733,70.6293181 C89.4716511,70.3519415 89.4000227,70.0760859 89.4000227,69.7898483 C89.4000227,69.5036107 89.4716511,69.3110774 89.6353733,69.2241516 C89.7786302,69.1253227 89.9628177,69.1413757 90.1879357,69.2723107 Z" id="欢迎来到智慧门店！" fill="#40495F"></path>
                    <g id="Group-4" transform="translate(104.000000, 60.000000)">
                        <path d="M21.6097412,8.32910156 L8.08187006,1.10952389 C6.84840123,0.397929891 5.34354999,0.382613482 4.12262424,1.0692266 L0.66204834,3.49487305 L3.68177825,21.4668794 C3.89263429,22.9281713 4.73508923,24.2345336 5.98448582,25.037599 L18.1778564,36.6367188 L21.6097412,35.7768555 C23.4367095,35.0187617 24.6870834,33.3645959 24.6870834,31.3729155 L24.6870834,13.6280788 C24.6870834,11.452682 23.5096041,9.42514143 21.6097412,8.32910156 Z" id="Rectangle-15" fill="#D8E3F4"></path>
                        <path d="M17.6463617,11.1572106 L2.99311948,3.28368566 C2.03435034,2.71684011 0.812479648,3.02604203 0.263994904,3.97430747 C0.0910021604,4.27339152 0,4.61398881 0,4.96237134 L0,23.162871 C0,24.9562888 0.960510016,26.6307387 2.5172013,27.5510891 L17.1704435,36.424614 C18.1292126,36.9914596 19.3510833,36.6822577 19.8995681,35.7339922 C20.0725608,35.4349082 20.163563,35.0943109 20.163563,34.7459283 L20.163563,15.5454287 C20.163563,13.7520109 19.203053,12.077561 17.6463617,11.1572106 Z" id="Rectangle-15" fill="#F3F4FC"></path>
                        <path d="M4.49030433,16.5300905 C4.49030433,12.9944237 6.77548025,10.7825723 9.57568359,12.0725098 C11.9882682,13.1838873 13.8242645,16.6525065 13.8242645,19.9085415 C13.8242645,23.4442083 11.5390886,25.6560597 8.73888525,24.3661222 C6.32630066,23.2547447 4.49030433,19.7861255 4.49030433,16.5300905 Z M11.8242645,19.9085415 C11.8242645,17.3782417 10.376735,14.6435257 8.73888525,13.8890363 C7.48865423,13.3131067 6.49030433,14.2794225 6.49030433,16.5300905 C6.49030433,19.0603903 7.93783382,21.7951064 9.57568359,22.5495957 C10.8259146,23.1255253 11.8242645,22.1592095 11.8242645,19.9085415 Z" id="Oval-9" fill="#CDD9E5" fill-rule="nonzero"></path>
                        <path d="M10.5410266,23.9477278 L12.8914333,29.5507936 C13.0404247,29.9059699 13.4491333,30.0731157 13.8043096,29.9241243 C13.8872003,29.8893528 13.9625874,29.8388846 14.0263214,29.7754976 L14.0263214,29.7754976 C14.4695965,29.3346359 14.59901,28.6679334 14.3528624,28.093248 L12.1042115,22.8432806 L10.5410266,23.9477278 Z" id="Path-2" fill="#CDD9E5"></path>
                    </g>
                </g>
                <g id="button" transform="translate(191.000000, 148.000000)">
                    <path d="M64.6000389,6.81414942 C63.2968264,6.10817591 61.7000712,6.23601829 60.5257859,7.14034983 L2.40139442,51.9026608 C2.23711462,52.0291747 2.09662576,52.1838771 1.98648081,52.3595521 C1.47307152,53.178411 1.72068735,54.2584278 2.53954624,54.7718371 L15.0285647,62.6022193 C16.3594996,63.4366907 18.0694935,63.3531649 19.312766,62.3929546 L78.1509552,16.950755 C78.3440319,16.801637 78.503798,16.6137976 78.6199989,16.3992931 C79.0803594,15.5494772 78.7646434,14.4873693 77.9148275,14.0270088 L64.6000389,6.81414942 Z" id="Rectangle-16" stroke="#EFF1F3" stroke-width="0.5"></path>
                    <path d="M63.7191184,0.594331148 L77.0339069,7.80719049 C78.0051252,8.3333168 78.3659435,9.5471544 77.8398172,10.5183726 C77.7070162,10.7635206 77.5244263,10.9781942 77.3037672,11.1486148 L18.465578,56.5908143 C17.1394207,57.6150387 15.3154272,57.7041329 13.8957633,56.81403 L1.40674485,48.9836478 C0.470906113,48.3968943 0.187916594,47.1625895 0.774670069,46.2267507 C0.900550018,46.0259793 1.06110871,45.8491765 1.24885705,45.7045892 L59.3732486,0.942278244 C60.6258195,-0.0223420567 62.3290251,-0.158707268 63.7191184,0.594331148 Z" id="Rectangle-16" fill="url(#linearGradient-33)"></path>
                    <path d="M26.9529461,32.2368158 C27.4774664,31.8387253 28.0280584,31.6294417 28.6215919,31.6202037 C29.2422924,31.6026367 29.8894483,31.8092252 30.5779828,32.240464 L29.8965049,32.7564567 C29.4533758,32.5302279 29.0589674,32.4135791 28.7170353,32.4282658 C28.3668434,32.4369925 28.0315564,32.569065 27.6901259,32.8284066 C27.3927786,33.0544729 27.2226492,33.2697247 27.1798271,33.4739877 C27.1154459,33.7192627 27.2349076,33.947139 27.5320006,34.1622034 C27.796164,34.3532145 28.1103491,34.4201749 28.495401,34.3595562 C28.6711108,34.3359514 29.054706,34.2275408 29.6440739,34.023904 C30.4992072,33.7409669 31.0875146,33.5754879 31.4050026,33.542269 C32.0963111,33.4698165 32.7142446,33.6235761 33.2610861,34.0136374 C33.7916658,34.3912774 34.048553,34.8055154 34.0396999,35.2629096 C34.0223948,35.714718 33.7289607,36.1572383 33.1590635,36.5911208 C32.6075908,37.0116536 32.0268648,37.2350376 31.4338752,37.2722787 C30.7110332,37.3109288 29.9610117,37.0762065 29.1779468,36.5720217 L29.8636666,36.0477772 C30.3779919,36.3407915 30.8444501,36.4864705 31.2462894,36.4733457 C31.6125241,36.4629358 31.98265,36.3151074 32.3628092,36.0254095 C32.7047237,35.7651263 32.8939122,35.4991953 32.9470667,35.2392012 C33.0001478,34.9793499 32.8940313,34.7550378 32.6288293,34.566047 C32.2974337,34.3296004 31.8953646,34.2564519 31.4205137,34.3361716 C31.2531318,34.365604 30.8234541,34.4966485 30.1249012,34.7346068 C29.3358872,34.992954 28.8364798,35.1410807 28.5977727,35.1761685 C27.9761536,35.2461479 27.4083578,35.090927 26.8965684,34.7207898 C26.376817,34.3441136 26.137692,33.9248476 26.1769342,33.4528565 C26.2134763,33.0076822 26.4722135,32.6022058 26.9529461,32.2368158 Z M29.5852569,30.4159106 L30.2644908,29.904283 L36.1760566,34.1323342 L35.495394,34.646741 L29.5852569,30.4159106 Z M32.9759029,27.7025732 C33.5444742,27.2787668 34.1591778,27.0633296 34.8370045,27.067265 C35.4858234,27.0685797 36.1735168,27.2703544 36.9170095,27.683721 L36.2309632,28.1936069 C35.771112,27.9558519 35.3358461,27.8446395 34.9250195,27.8602531 C34.5059098,27.8699521 34.1192957,28.0128332 33.7692332,28.2739725 C33.3375858,28.5963568 33.1833832,28.9906255 33.3234018,29.4681991 C33.4611262,29.9717997 33.900375,30.4798053 34.6290636,31.0007303 C35.341747,31.5087345 36.0083363,31.8082954 36.6410547,31.8906288 C37.3196407,31.9868414 37.9411224,31.8233751 38.4986878,31.4059844 C38.7177938,31.2421557 38.8827465,31.0585385 39.0101768,30.8668361 C39.1312798,30.6799452 39.194077,30.488377 39.2194025,30.2886252 L37.9324621,29.3778075 L36.7008714,30.2966938 L35.9299035,29.747876 L37.8411662,28.3240067 L40.3321674,30.08659 C40.3423626,30.42817 40.2567777,30.756894 40.0836474,31.078771 C39.8915637,31.415027 39.6014327,31.7283067 39.2131998,32.0187164 C38.4986068,32.5541456 37.6471488,32.7577433 36.6534671,32.6324368 C35.7266662,32.5171541 34.8228879,32.1414432 33.9445995,31.5150352 C33.0588721,30.8810705 32.5131475,30.2216415 32.3130264,29.5333501 C32.0903504,28.8012873 32.3190944,28.193068 32.9759029,27.7025732 Z M35.8661928,25.7246865 L36.5497903,25.2195643 L43.2179432,26.6811847 L43.2427152,26.6629841 L38.8363818,23.537884 L39.5098891,23.0448931 L45.4410859,27.2347566 L44.7847252,27.7168836 L38.0336708,26.2543762 L38.0088162,26.2727374 L42.4684402,29.4263381 L41.7896113,29.9296809 L35.8661928,25.7246865 Z M42.4407305,20.9121415 L43.103368,20.4327984 L49.0422903,24.6076339 L48.3782241,25.0897561 L42.4407305,20.9121415 Z M43.9732945,19.8051168 L44.6461513,19.320888 L51.2915921,20.8266897 L51.3159736,20.8092488 L46.896713,17.7092954 L47.5595773,17.237008 L53.5081564,21.3930584 L52.8621457,21.8550518 L46.1340479,20.3478875 L46.109584,20.365489 L50.5822811,23.4936587 L49.9140952,23.9762982 L43.9732945,19.8051168 Z" id="Sign-in" fill="#000000" opacity="0.66015625" transform="translate(39.840471, 27.256693) rotate(-1.000000) translate(-39.840471, -27.256693) "></path>
                </g>
                <g id="文章" filter="url(#filter-34)" transform="translate(242.000000, 133.000000)">
                    <path d="M0,47.2871094 L0,47.2871094 C-1.02814979e-14,52.1877715 2.39569614,56.7789378 6.41555136,59.582017 L7.29296875,60.1938477 C9.45635805,61.7023974 12.4330528,61.1715451 13.9416026,59.0081558 C14.4780721,58.2388127 14.7761147,57.3285271 14.7985426,56.3908782 L15.2810059,36.220459 L0,47.2871094 Z" id="Path-27" fill="url(#linearGradient-35)"></path>
                    <path d="M10.8955078,60.9870605 L10.8955078,60.9870605 C18.0024698,59.0590412 24.6618375,55.7546593 30.495895,51.2613376 L49.2021484,36.8540039 L33.5097656,24.0981445 L15.7163086,29.9501953 L15.7163086,29.9501953 C12.6990728,32.0182227 10.8955078,35.4409369 10.8955078,39.0988665 L10.8955078,60.9870605 Z" id="Path-28" fill="url(#linearGradient-36)"></path>
                    <mask id="mask-38" fill="white">
                        <use xlink:href="#path-37"></use>
                    </mask>
                    <use id="Path-27" fill="#F5F5F5" xlink:href="#path-37"></use>
                    <path d="M35,30.1535329 L52.8736203,18.2824521 M57.770571,15.0300557 L65.3440437,10" id="Path-29" stroke="#CDD0DB" stroke-width="2" stroke-linecap="round" mask="url(#mask-38)"></path>
                    <path d="M29,25.1535329 L46.8736203,13.2824521 M51.770571,10.0300557 L59.3440437,5" id="Path-29-Copy-5" stroke="#CDD0DB" stroke-width="2" stroke-linecap="round" mask="url(#mask-38)"></path>
                    <path d="M40.1261936,38.8506402 L70.4702373,18.6971073" id="Path-29-Copy" stroke="#CDD0DB" stroke-width="2" stroke-linecap="round" mask="url(#mask-38)"></path>
                    <path d="M42.1892904,47.6980794 L72.533334,27.5445466" id="Path-29-Copy-2" stroke="#CDD0DB" stroke-width="2" stroke-linecap="round" mask="url(#mask-38)"></path>
                    <path d="M42.1892904,56.6980794 L72.533334,36.5445466" id="Path-29-Copy-3" stroke="#CDD0DB" stroke-width="2" stroke-linecap="round" mask="url(#mask-38)"></path>
                    <path d="M50.2493853,61.3448249 L72.533334,46.5445466" id="Path-29-Copy-4" stroke="#CDD0DB" stroke-width="2" stroke-linecap="round" mask="url(#mask-38)"></path>
                    <path d="M42.1892904,76.6980794 L72.533334,56.5445466" id="Path-29-Copy-6" stroke="#CDD0DB" stroke-width="2" stroke-linecap="round" mask="url(#mask-38)"></path>
                    <path d="M42.1892904,85.9194384 L57.6598329,75.6444042" id="Path-29-Copy-8" stroke="#CDD0DB" stroke-width="2" stroke-linecap="round" mask="url(#mask-38)"></path>
                </g>
                <g id="人物" transform="translate(294.000000, 173.000000)">
                    <polygon id="Path-24" fill="#F7C3B9" points="26.2945302 77.2310596 26.2945302 81.9185357 29.2945302 82.0357056 29.1406239 76.0357056 26.8275757 76.0357056"></polygon>
                    <polygon id="Path-24" fill="#F7C3B9" points="34 71.195354 34 75.8828301 37 76 36.8460936 70 34.5330455 70"></polygon>
                    <path d="M25.2460315,41.4671213 C24.7500337,54.6967739 25.003982,66.6444801 26.0078761,77.3102398 C27.0262029,78.5129773 29.3861034,77.8965592 29.6300258,77.3102398 C29.8739483,76.7239205 29.0383981,61.1220829 29.6300258,58.1186872 C30.0244443,56.1164233 30.8895759,53.3787521 32.2254206,49.9056736 C33.3054441,63.9173016 33.6805272,71.2684007 33.35067,71.9589707 C34.0888826,73.5750605 36.0564578,73.571004 37.5753546,73.2610913 C38.1835082,71.1919771 37.8581129,47.104289 37.9914771,46.4185867 C38.1248412,45.7328844 38.7128332,45.0145682 38.9661754,42.7307867 C39.1350703,41.2082657 38.6714633,38.9646702 37.5753546,36 L25.2460315,41.4671213 Z" id="Path-22" fill="#2A3357"></path>
                    <path d="M37.2570801,11.5361328 C37.8346026,11.4387077 38.2994555,11.2989027 38.9150391,12.1569824 C41.2086549,15.35412 43.5548271,24.192669 42.8797791,25.2630835 C42.308963,26.1682188 40.8164644,27.0805243 38.4022832,28 C35.8192636,17.3310374 35.4375293,11.8430817 37.2570801,11.5361328 Z" id="Path-21" fill="#FBB032"></path>
                    <path d="M23.9980469,6.25073242 C24.4202558,7.91251327 24.5560368,9.09828496 24.4053898,9.80804749 C24.2547428,10.51781 24.572974,10.6944811 25.3600835,10.3380607 C25.7189048,11.6131752 25.8983154,12.4475505 25.8983154,12.8411865 C26.3881285,12.8411865 29.7471866,12.6494447 30.5159912,12.0689697 C31.0285276,11.6819864 31.0885048,12.2792358 30.6959229,13.8607178 L33.7679443,11.6734619 L33.4577637,8.13146973 C31.6559017,5.37715658 30.5697128,4 30.199197,4 C29.6434232,4 27.4424203,4 26.7894414,4 C26.3541221,4 25.4236573,4.75024414 23.9980469,6.25073242 Z" id="Path-17" fill="#FFD0C7"></path>
                    <path d="M25.7634277,12.9152832 C26.1269284,13.0037187 26.5676226,13.0037187 27.0855103,12.9152832 C28.1710205,12.7299194 29.7540464,10.5578744 30.0933838,10.477417 C30.6732802,10.3399226 30.8278108,11.7052248 31.3011475,11.7594488 C32.371282,11.8820403 33.1176918,10.7197181 33.7978516,9.91760254 C36.1460714,7.1483359 34.9402357,3.06762781 33.1169434,1.79504395 C31.293651,0.522460085 28.8634033,0.522460085 27.0855103,1.19055176 C25.3076172,1.85864343 23.9309082,4.23030209 23.9309082,6.34899902 C25.116333,5.1819458 27.7816772,5.1819458 28.3291626,7.42797852 C28.9274702,9.88250724 28.0722253,11.7116088 25.7634277,12.9152832 Z" id="Path-16" fill="#2A2C37"></path>
                    <path d="M29,11.8803251 C29,11.5931352 29.8439888,10.7645905 29.5147399,10.1051849 C29.1854909,9.4457794 29.4320625,9.24062127 29.3491211,8.2220459 C29.2661797,7.20347053 31.8398438,8.44604492 30.8269043,9.7701416 C29.8139648,11.0942383 30.6890262,11.3621425 30.1737621,11.6212338 C29.6584979,11.8803251 29,12.167515 29,11.8803251 Z" id="Path-18" fill="#FFD0C7"></path>
                    <path d="M24.003112,19.0716537 C23.9077299,18.8967259 26.0049478,17.2391374 30.2947658,14.0988883 L30.5431933,13.036504 C31.9541982,12.6026977 32.9779685,11.9616729 33.6145042,11.1134293 C33.9690028,11.38811 34.0862134,11.8727458 33.966136,12.5673367 C35.6267424,11.2413509 36.8420141,10.7567151 37.6119509,11.1134293 C38.7668562,11.6485006 39.2986041,12.0916789 39.5669353,13.396792 C39.8352665,14.7019051 40.3901086,27.9257339 39.5669353,40.7056168 C39.4640561,42.3028318 38.8123946,43.317027 37.6119509,43.7482027 L36.3594111,41.0616777 L34.9358469,44.7307999 C31.5093548,45.0897334 29.2461227,45.0897334 28.1461505,44.7307999 C26.4961921,44.1923998 24.7713697,42.9710754 24.7713697,42.4964365 C24.7713697,42.0217975 25.7842184,22.3381484 24.003112,19.0716537 Z" id="Path-19" fill="url(#linearGradient-39)"></path>
                    <polygon id="Path-30" fill="#FFD0C7" points="6.40454102 31.5822754 5.20849609 31.5822754 3.75244141 32.0419922 0.996337891 31.1567383 0.996337891 29.078125 3.70043945 29.078125 3.70043945 28.0380859 6.40454102 29.078125"></polygon>
                    <path d="M22.6363216,21.5773569 C22.8707275,21.0156884 23.5142027,18.131958 25.6536865,18.131958 C27.8104858,18.4120483 28.3140259,20.8135986 27.6108398,22.7958984 C26.9076538,24.7781982 21.3387539,31.085269 21.3387539,31.085269 C21.3387539,31.085269 20.435688,32 18.9294914,32 C17.9253603,32 13.6155299,31.9195331 6,31.7585993 L6,28.8923461 C13.0711909,28.6323351 17.0156111,28.2918039 17.8332607,27.8707525 C19.059735,27.2391753 22.4019157,22.1390254 22.6363216,21.5773569 Z" id="Path-20" fill="#FBBC32"></path>
                    <path d="M26.3547871,79.2725422 C23.7001713,79.4795562 21.9205321,79.3887089 21.0158693,79 C19.8248705,79.429882 19.6740834,80.3951899 20.6006478,81.4216264 C21.5272121,82.448063 28.8046333,85.1434069 29.6595252,83.4594461 C30.2294532,82.3368057 30.0838702,80.922064 29.2227764,79.2152212 C29.3146724,80.3750921 28.801074,80.9550276 27.681981,80.9550276 C26.5628879,80.9550276 26.12049,80.3941991 26.3547871,79.2725422 Z" id="Path-23" fill="#5E5F65"></path>
                    <path d="M32.0496012,75.3853393 C33.148201,76.0255303 33.9528936,76.7433548 34.463679,77.5388128 C35.2298571,78.7319998 37.4735173,78.1382352 37.4735173,77.2020109 C37.4735173,76.658491 37.4667209,75.7612383 37.274292,74.7220459 C37.2552611,74.6192717 37.1469543,74.47471 36.9493713,74.2883606 C37.0368347,74.7094421 36.6641027,74.9998257 35.8311754,75.1595111 C34.9982481,75.3191966 34.3884109,75.1733749 34.0016639,74.7220459 L34.0016639,74.0056347 L34.0016639,73.1566559 C33.7358419,73.015694 33.518477,72.9158033 33.3495692,72.856984 C32.0813687,72.4153539 31.3980805,71.9199738 30.9166458,72.4056097 C30.435211,72.8912456 30.3281155,73.5054254 30.6840993,74.123645 C30.9214218,74.5357914 31.3765891,74.9563562 32.0496012,75.3853393 Z" id="Path-25" fill="#5E5F65"></path>
                </g>
                <g id="统计图" transform="translate(145.000000, 0.000000)">
                    <g transform="translate(24.000000, 40.000000) scale(-1, 1) translate(-24.000000, -40.000000) ">
                        <polygon id="Rectangle-15-Copy-18" fill="#EDEFFD" points="0.629882812 20.2431641 31.9990234 0.286132812 31.9990234 50.5487768 0.037109375 70.2282715"></polygon>
                        <polygon id="Rectangle-15-Copy-19" fill="#D8E3F4" points="7.62988281 24.2431641 38.9990234 4.28613281 38.9990234 54.5487768 7.03710938 74.2282715"></polygon>
                        <polygon id="Rectangle-15-Copy-20" fill="#F3F4FC" points="16.6298828 29.2431641 47.9990234 9.28613281 47.9990234 59.5487768 16.0371094 79.2282715"></polygon>
                        <g id="Group-13" transform="translate(20.000000, 22.000000)">
                            <path d="M17.1526315,11 L17.02993,12.5621985 C16.7628015,12.6812266 16.4932834,12.8178343 16.2220106,12.9718979 C11.8079249,15.4787831 8.22960141,21.8762388 8.22960141,27.2610151 C8.22960141,32.6457914 11.8079249,34.9787831 16.2220106,32.4718979 C17.4634652,31.7668403 18.6632924,30.7403777 19.7515046,29.4678041 L20.2952681,30.5043397 C19.0388432,31.973624 17.6530935,33.159145 16.2220106,33.9718979 C11.1288348,36.8644578 7,34.1725443 7,27.9593409 C7,21.7461374 11.1288348,14.3644578 16.2220106,11.4718979 C16.5342775,11.2945526 16.844747,11.1371883 17.1526315,11 Z" id="Oval-10" fill="#FD486A" fill-rule="nonzero" opacity="0.4"></path>
                            <path d="M13.9798432,16 L14.3033057,17.2634645 C11.9165136,19.4129056 10.2296014,23.027101 10.2296014,26.0899396 C10.2296014,29.8178617 12.7069023,31.4330098 15.7628077,29.6974738 C18.8187132,27.9619379 21.2960141,23.5329301 21.2960141,19.805008 C21.2960141,19.4010694 21.2669984,19.0184743 21.2097892,18.6597432 L22.4202807,17.7088444 C22.4901907,18.1472157 22.5256155,18.61432 22.5256155,19.1066823 C22.5256155,23.6630315 19.4978033,29.0762632 15.7628077,31.1974738 C12.0278122,33.3186844 9,31.3446145 9,26.7882653 C9,23.0447149 11.0613674,18.6282524 13.9798432,16 Z" id="Oval-10" fill="#6098FF" fill-rule="nonzero"></path>
                            <path d="M11.8267931,27.7192949 L12.942558,26.4552828 C13.4422011,27.4876954 14.5238912,27.7335084 15.7337646,27.0463867 C17.4314899,26.0822001 18.8077682,23.6216402 18.8077682,21.5505724 C18.8077682,19.4795046 17.4314899,18.5822001 15.7337646,19.5463867 L15.7337646,18.0463867 C18.11058,16.6965254 20.0373696,17.9527517 20.0373696,20.8522467 C20.0373696,23.7517416 18.11058,27.1965254 15.7337646,28.5463867 C14.0404202,29.5080853 12.5259287,29.1639187 11.8267931,27.7192949 Z" id="Oval-10" fill="#FD486A" fill-rule="nonzero"></path>
                            <polygon id="Rectangle-15" fill="#CDD9E5" points="16.0004428 4.90063477 22.3908691 0.923164306 22.3908691 3.92570336 16 7.85140673"></polygon>
                            <polygon id="Rectangle-15-Copy-21" fill="#CDD9E5" points="0.000442833398 18.3027344 6.62173078 14 6.62173078 17.0025391 0 21.2535063"></polygon>
                            <polygon id="Rectangle-15-Copy-22" fill="#CDD9E5" points="9.00044283 42.3027344 15.6217308 38 15.6217308 41.0025391 9 45.2535063"></polygon>
                        </g>
                    </g>
                    <polyline id="Path-26" stroke="#40495F" stroke-width="0.8" points="41.9361629 62.8978885 35.7750244 46.3781738 33.0982476 44.8004227"></polyline>
                    <g id="Group-12" transform="translate(42.000000, 55.000000)">
                        <path d="M9.72595215,7.36377839 L17.1064453,11.7922363 C19.3155843,13.191359 21.1064453,16.1164331 21.1064453,18.3255721 L21.1064453,29.3255721 C21.1064453,31.5347111 19.3155843,32.191359 17.1064453,30.7922363 L9.72595215,26.3637784 C7.51681315,24.9646557 5.72595215,22.0395816 5.72595215,19.8304426 L5.72595215,8.83044262 C5.72595215,6.62130362 7.51681315,5.96465568 9.72595215,7.36377839 Z" id="Rectangle-4" fill="#FFC723" opacity="0.4"></path>
                        <path d="M15.7259521,4.36377839 L23.1064453,8.79223633 C25.3155843,10.191359 27.1064453,13.1164331 27.1064453,15.3255721 L27.1064453,26.3255721 C27.1064453,28.5347111 25.3155843,29.191359 23.1064453,27.7922363 L15.7259521,23.3637784 C13.5168131,21.9646557 11.7259521,19.0395816 11.7259521,16.8304426 L11.7259521,5.83044262 C11.7259521,3.62130362 13.5168131,2.96465568 15.7259521,4.36377839 Z" id="Rectangle-4" fill="#FFC723" opacity="0.2"></path>
                        <path d="M21.7259521,1.36377839 L29.1064453,5.79223633 C31.3155843,7.19135904 33.1064453,10.1164331 33.1064453,12.3255721 L33.1064453,23.3255721 C33.1064453,25.5347111 31.3155843,26.191359 29.1064453,24.7922363 L21.7259521,20.3637784 C19.5168131,18.9646557 17.7259521,16.0395816 17.7259521,13.8304426 L17.7259521,2.83044262 C17.7259521,0.621303617 19.5168131,-0.0353443239 21.7259521,1.36377839 Z" id="Rectangle-4" fill="#FFC723" opacity="0.08"></path>
                        <path d="M4.72595215,10.3637784 L12.1064453,14.7922363 C14.3155843,16.191359 16.1064453,19.1164331 16.1064453,21.3255721 L16.1064453,32.3255721 C16.1064453,34.5347111 14.3155843,35.191359 12.1064453,33.7922363 L4.72595215,29.3637784 C2.51681315,27.9646557 0.725952148,25.0395816 0.725952148,22.8304426 L0.725952148,11.8304426 C0.725952148,9.62130362 2.51681315,8.96465568 4.72595215,10.3637784 Z" id="Rectangle-4" fill="#FFC723"></path>
                        <g id="208聊天、对话" transform="translate(4.000000, 17.000000)" fill="#FFFFFF" fill-rule="nonzero">
                            <path d="M3.9907021,0.988903707 C1.78750198,-0.39702046 0,0.284429615 0,2.51028062 C0,4.45055074 1.36348988,6.93774567 3.17593375,8.45583912 L4.00733002,10.4319321 L4.83872629,9.50181963 C6.63454224,10.236705 7.98140419,9.47125716 7.98140419,7.53938647 C7.98140419,5.30513603 6.19390221,2.37482787 3.9907021,0.988903707 Z M2.00366501,4.45104158 C1.63785065,4.22092587 1.33854799,3.73026962 1.33854799,3.36069436 C1.33854799,2.9911191 1.63785065,2.87701583 2.00366501,3.10713154 C2.36947937,3.33724725 2.66878203,3.8279035 2.66878203,4.19747876 C2.66878203,4.56705403 2.36947937,4.68115729 2.00366501,4.45104158 Z M4.00733002,5.71144809 C3.64151566,5.48133238 3.34221301,4.99067613 3.34221301,4.62110087 C3.34221301,4.25152561 3.64151566,4.13742234 4.00733002,4.36753805 C4.37314438,4.59765376 4.67244704,5.08831001 4.67244704,5.45788527 C4.67244704,5.82746053 4.37314438,5.9415638 4.00733002,5.71144809 Z M5.99436711,6.96139479 C5.62855275,6.73127908 5.32925009,6.24062283 5.32925009,5.87104757 C5.32925009,5.50147231 5.62855275,5.38736904 5.99436711,5.61748475 C6.36018147,5.84760046 6.65948412,6.33825671 6.65948412,6.70783197 C6.65948412,7.07740723 6.36018147,7.1915105 5.99436711,6.96139479 Z" id="Shape"></path>
                        </g>
                    </g>
                </g>
                <g id="商城" transform="translate(65.000000, 149.000000)">
                    <polygon id="Rectangle-15" fill="#EDEFFD" points="0 31.4512232 49 0 49 28.5487768 0 60"></polygon>
                    <polygon id="Rectangle-15" fill="#D8E3F4" points="7 35.4512232 56 4 56 32.5487768 7 64"></polygon>
                    <polygon id="Rectangle-15" fill="#F3F4FC" points="16 40.4512232 65 9 65 37.5487768 62.4990806 39.1540212 55.8807191 50.2280273 55.8807191 43.402094 16 69"></polygon>
                    <polygon id="Rectangle-15" fill="#45B0FF" points="16 40.4512232 33.676198 29.1055487 33.676198 57.7045898 16 69"></polygon>
                    <path d="M29.0992568,42.1227968 C29.0992568,41.1755946 28.5623474,40.7694913 27.8996619,41.214787 L23.1002883,44.4397567 C22.4376029,44.8850524 21.9001964,46.0130491 21.9001964,46.9602514 L21.5,55.8002938 C21.5,56.747496 22.0369094,57.1543009 22.700092,56.7086712 L28.2998583,52.9458725 C28.9625437,52.5005768 29.5,51.371845 29.5,50.4246427 L29.0992568,42.1227968 Z M27.1141834,46.304601 C26.6965871,47.1822957 26.1407865,47.8848345 25.549689,48.2820263 C24.9585915,48.679218 24.4027908,48.7236267 23.9846975,48.407479 C23.5671012,48.0909972 23.3369262,47.4514182 23.3369262,46.6073557 L23.8807955,46.2341813 C23.8817898,47.5567898 24.629983,48.1226211 25.549689,47.5046188 C26.4693949,46.8866165 27.2175881,45.3152789 27.2180853,44.001491 L27.7624518,43.6230711 C27.7624518,44.477658 27.5322767,45.4265723 27.1141834,46.304601 Z" id="Shape" fill="#FFFFFF" fill-rule="nonzero"></path>
                    <polygon id="Rectangle-15-Copy-2" fill="#CDD9E5" points="37.9476318 35.4070528 60.3083496 20.7470703 60.3083496 23.7496094 37.9476318 38.2473145"></polygon>
                    <polygon id="Rectangle-15-Copy-3" fill="#CDD9E5" points="37.9476318 42.233524 53.4476318 31.9713135 53.4476318 35.1572958 37.9476318 45.2473145"></polygon>
                </g>
            </g>
        </g>
    </g>
</svg>