<?xml version="1.0" encoding="UTF-8"?>
<svg width="132px" height="144px" viewBox="0 0 132 144" version="1.1" xmlns="http://www.w3.org/2000/svg" xmlns:xlink="http://www.w3.org/1999/xlink">
    <!-- Generator: Sketch 50.2 (55047) - http://www.bohemiancoding.com/sketch -->
    <title>report-icon</title>
    <desc>Created with Sketch.</desc>
    <defs>
        <rect id="path-1" x="0" y="0" width="96.4739016" height="118.341319"></rect>
        <filter x="-15.5%" y="-11.0%" width="135.2%" height="128.7%" filterUnits="objectBoundingBox" id="filter-2">
            <feOffset dx="2" dy="4" in="SourceAlpha" result="shadowOffsetOuter1"></feOffset>
            <feGaussianBlur stdDeviation="5" in="shadowOffsetOuter1" result="shadowBlurOuter1"></feGaussianBlur>
            <feComposite in="shadowBlurOuter1" in2="SourceAlpha" operator="out" result="shadowBlurOuter1"></feComposite>
            <feColorMatrix values="0 0 0 0 0   0 0 0 0 0   0 0 0 0 0  0 0 0 0.05 0" type="matrix" in="shadowBlurOuter1"></feColorMatrix>
        </filter>
        <linearGradient x1="0%" y1="0%" x2="100%" y2="100%" id="linearGradient-3">
            <stop stop-color="#FFBD39" offset="0%"></stop>
            <stop stop-color="#FFD762" offset="100%"></stop>
        </linearGradient>
        <linearGradient x1="15.4879281%" y1="-6.48207762%" x2="77.7273996%" y2="114.501953%" id="linearGradient-4">
            <stop stop-color="#3995E9" offset="0%"></stop>
            <stop stop-color="#8ACDFF" offset="100%"></stop>
        </linearGradient>
        <linearGradient x1="83.1296009%" y1="97.0872471%" x2="0%" y2="0%" id="linearGradient-5">
            <stop stop-color="#FD8392" stop-opacity="0.8" offset="0%"></stop>
            <stop stop-color="#FA5454" offset="100%"></stop>
        </linearGradient>
        <rect id="path-6" x="0" y="0" width="96.4739016" height="118.341319"></rect>
        <filter x="-15.5%" y="-11.0%" width="135.2%" height="128.7%" filterUnits="objectBoundingBox" id="filter-7">
            <feOffset dx="2" dy="4" in="SourceAlpha" result="shadowOffsetOuter1"></feOffset>
            <feGaussianBlur stdDeviation="5" in="shadowOffsetOuter1" result="shadowBlurOuter1"></feGaussianBlur>
            <feComposite in="shadowBlurOuter1" in2="SourceAlpha" operator="out" result="shadowBlurOuter1"></feComposite>
            <feColorMatrix values="0 0 0 0 0   0 0 0 0 0   0 0 0 0 0  0 0 0 0.05 0" type="matrix" in="shadowBlurOuter1"></feColorMatrix>
        </filter>
        <linearGradient x1="1.60088512%" y1="1.60088512%" x2="94.8667975%" y2="94.8667975%" id="linearGradient-8">
            <stop stop-color="#FFBD39" offset="0%"></stop>
            <stop stop-color="#FFD762" stop-opacity="0.8" offset="100%"></stop>
        </linearGradient>
        <rect id="path-9" x="0" y="0" width="96.4739016" height="118.341319"></rect>
        <filter x="-7.8%" y="-4.6%" width="119.7%" height="116.1%" filterUnits="objectBoundingBox" id="filter-10">
            <feOffset dx="2" dy="4" in="SourceAlpha" result="shadowOffsetOuter1"></feOffset>
            <feGaussianBlur stdDeviation="2.5" in="shadowOffsetOuter1" result="shadowBlurOuter1"></feGaussianBlur>
            <feComposite in="shadowBlurOuter1" in2="SourceAlpha" operator="out" result="shadowBlurOuter1"></feComposite>
            <feColorMatrix values="0 0 0 0 0   0 0 0 0 0   0 0 0 0 0  0 0 0 0.05 0" type="matrix" in="shadowBlurOuter1"></feColorMatrix>
        </filter>
    </defs>
    <g id="Page-1" stroke="none" stroke-width="1" fill="none" fill-rule="evenodd">
        <g id="注册-成功提示" transform="translate(-120.000000, -162.000000)">
            <g id="Group" transform="translate(48.000000, 132.000000)">
                <g id="report-icon" transform="translate(78.083505, 35.558320)">
                    <g id="paper" transform="translate(52.375832, 63.344738) rotate(-3.000000) translate(-52.375832, -63.344738) translate(3.875832, 3.844738)">
                        <g id="Rectangle-4">
                            <use fill="black" fill-opacity="1" filter="url(#filter-2)" xlink:href="#path-1"></use>
                            <rect stroke-opacity="0.07" stroke="#000000" stroke-width="1" stroke-linejoin="square" fill="#FFFFFF" fill-rule="evenodd" x="0.5" y="0.5" width="95.4739016" height="117.341319"></rect>
                        </g>
                        <text id="report" font-family=".AppleSystemUIFont" font-size="12" font-weight="normal" letter-spacing="1.5" fill="#474747">
                            <tspan x="20.8326539" y="24.3491805">REPOR</tspan>
                            <tspan x="68.0357789" y="24.3491805">T</tspan>
                        </text>
                        <rect id="Rectangle-9" fill="url(#linearGradient-3)" x="84.8970334" y="21.8674177" width="2.57263737" height="2.57263737"></rect>
                        <g id="title" transform="translate(0.000000, 11.576868)">
                            <rect id="Rectangle-2" fill="url(#linearGradient-4)" x="0.0673207185" y="0.00176285506" width="3.85895606" height="14.1495056"></rect>
                            <rect id="Rectangle" fill="#EEEEEE" x="11.5768682" y="1.28631869" width="50.1664288" height="5.14527475" rx="1"></rect>
                            <rect id="Rectangle" fill="#EEEEEE" opacity="0.5" x="72.0338465" y="-1.0658141e-14" width="14.1495056" height="14.1495056" rx="7.07475278"></rect>
                            <rect id="Rectangle" fill="#EEEEEE" opacity="0.5" x="11.5768682" y="10.2905495" width="32.1579672" height="2.57263737" rx="1"></rect>
                        </g>
                        <g id="suv" transform="translate(20.581099, 39.875879)">
                            <path d="M21.8674177,23.1537364 L37.3032419,23.1537364 C38.0136565,23.1537364 38.5895606,22.5778322 38.5895606,21.8674177 C38.5895606,21.1570032 38.0136565,20.581099 37.3032419,20.581099 L21.8674177,20.581099 C21.1570032,20.581099 20.581099,21.1570032 20.581099,21.8674177 C20.581099,22.5778322 21.1570032,23.1537364 21.8674177,23.1537364 Z M43.3453689,7.71791212 L41.0918364,6.21555621 C37.5287851,3.84018996 33.3423451,2.57263737 29.0600912,2.57263737 L27.2007818,2.57263737 L28.0947836,7.71791212 L43.3453689,7.71791212 Z M47.5029207,10.2905392 C47.5011418,10.2905456 47.4993628,10.2905495 47.4975825,10.2905495 L27.0344518,10.2905495 C27.0188925,10.2908325 27.0033743,10.2908299 26.9879051,10.2905495 L14.4034622,10.2905495 C12.7839496,10.2905495 11.2589507,9.52804937 10.2872424,8.2324396 L7.94729619,5.11251093 C7.49001504,5.42252402 7.0486225,5.75929512 6.62555872,6.12192122 L3.02183144,9.21083032 C2.73672405,9.45520771 2.57263737,9.8119682 2.57263737,10.1874768 L2.57263737,11.5768682 L5.04899122,11.5768682 C5.75940445,11.5768682 6.33530991,12.1527724 6.33530991,12.8631869 C6.33530991,13.5736014 5.75940445,14.1495056 5.04899122,14.1495056 L2.57263737,14.1495056 L2.57263737,19.2947803 C2.57263737,20.0051948 3.14854155,20.581099 3.85895606,20.581099 L5.14527475,20.581099 C5.85568927,20.581099 6.43159344,21.1570032 6.43159344,21.8674177 C6.43159344,22.5778322 5.85568927,23.1537364 5.14527475,23.1537364 L3.85895606,23.1537364 C1.7277138,23.1537364 0,21.4260226 0,19.2947803 L0,10.1874768 C0,9.06095103 0.492258726,7.99067214 1.3475809,7.25753867 L4.95130947,4.16862828 C8.08965179,1.47862076 12.0867443,0 16.2201854,0 L29.0600912,0 C33.8502481,0 38.5332276,1.41789237 42.5188783,4.07499329 L47.9074654,7.66738424 C48.0396051,7.75547778 48.1869156,7.81833888 48.3419453,7.85279036 C54.061232,9.12389447 56.9373094,9.76347913 56.9701774,9.77154306 C59.0377855,10.2884451 60.2948816,12.3836061 59.7779796,14.4512142 L58.3331054,20.2307148 C57.9036344,21.9485947 56.3601176,23.1537364 54.5893674,23.1537364 L54.0253849,23.1537364 C53.3149704,23.1537364 52.7390662,22.5778322 52.7390662,21.8674177 C52.7390662,21.1570032 53.3149704,20.581099 54.0253849,20.581099 L54.5893674,20.581099 C55.1796179,20.581099 55.6941235,20.1793855 55.8372805,19.6067589 L57.2015938,14.1495056 L54.9224249,14.1495056 C54.2120104,14.1495056 53.6361062,13.5736014 53.6361062,12.8631869 C53.6361062,12.4163468 53.8639467,12.022723 54.2097902,11.7921503 L47.7838617,10.3641655 C47.6891925,10.3431278 47.5954817,10.3185591 47.5029207,10.2905392 Z M10.2165193,3.85041233 L12.3453523,6.68885717 C12.8312064,7.3366627 13.5937053,7.71791212 14.4034622,7.71791212 L25.4836004,7.71791212 L24.5895986,2.57263737 L16.2201854,2.57263737 C14.1356288,2.57263737 12.0917996,3.0143232 10.2165193,3.85041233 Z" id="SUV" fill="#EEEEEE" fill-rule="nonzero"></path>
                            <path d="M45.6643134,27.0126924 C42.46745,27.0126924 39.8758793,24.4211217 39.8758793,21.2242583 C39.8758793,18.0273949 42.46745,15.4358242 45.6643134,15.4358242 C48.8611768,15.4358242 51.4527475,18.0273949 51.4527475,21.2242583 C51.4527475,24.4211217 48.8611768,27.0126924 45.6643134,27.0126924 Z M45.6643134,24.4400551 C47.4403491,24.4400551 48.8801101,23.000294 48.8801101,21.2242583 C48.8801101,19.4482227 47.4403491,18.0084616 45.6643134,18.0084616 C43.8882778,18.0084616 42.4485167,19.4482227 42.4485167,21.2242583 C42.4485167,23.000294 43.8882778,24.4400551 45.6643134,24.4400551 Z" id="Combined-Shape" fill="#E0E0E0"></path>
                            <path d="M13.5063462,27.0126924 C10.3094828,27.0126924 7.71791212,24.4211217 7.71791212,21.2242583 C7.71791212,18.0273949 10.3094828,15.4358242 13.5063462,15.4358242 C16.7032096,15.4358242 19.2947803,18.0273949 19.2947803,21.2242583 C19.2947803,24.4211217 16.7032096,27.0126924 13.5063462,27.0126924 Z M13.5063462,24.4400551 C15.2823819,24.4400551 16.7221429,23.000294 16.7221429,21.2242583 C16.7221429,19.4482227 15.2823819,18.0084616 13.5063462,18.0084616 C11.7303106,18.0084616 10.2905495,19.4482227 10.2905495,21.2242583 C10.2905495,23.000294 11.7303106,24.4400551 13.5063462,24.4400551 Z" id="Combined-Shape" fill="#E0E0E0"></path>
                        </g>
                        <rect id="Rectangle" fill="#EEEEEE" opacity="0.5" x="7.71791212" y="43.7348354" width="9.00423081" height="2.57263737" rx="1"></rect>
                        <rect id="Rectangle" fill="#EEEEEE" opacity="0.5" x="78.4654399" y="32.1579672" width="9.00423081" height="2.57263737" rx="1"></rect>
                        <rect id="Rectangle" fill="#EEEEEE" opacity="0.5" x="7.71791212" y="48.8801101" width="6.43159344" height="2.57263737" rx="1"></rect>
                        <rect id="Rectangle" fill="#EEEEEE" opacity="0.5" x="83.6107147" y="37.3032419" width="3.85895606" height="2.57263737" rx="1"></rect>
                        <g id="check" transform="translate(11.576868, 78.465440)">
                            <rect id="Rectangle" fill="#EEEEEE" x="11.5768682" y="2.57263737" width="36.0169232" height="2.57263737" rx="1"></rect>
                            <polygon id="Shape" fill="#09BB07" fill-rule="nonzero" points="7.99030902 1.27118553 6.7191235 0 3.08716485 3.63195865 1.27118553 1.81597932 0 3.08716485 3.08716485 6.1743297"></polygon>
                            <rect id="Rectangle" fill="#EEEEEE" x="11.5768682" y="12.8631869" width="18.0084616" height="2.57263737" rx="1"></rect>
                            <polygon id="Shape" fill="#09BB07" fill-rule="nonzero" points="7.99030902 11.561735 6.7191235 10.2905495 3.08716485 13.9225081 1.27118553 12.1065288 0 13.3777143 3.08716485 16.4648792"></polygon>
                            <rect id="Rectangle" fill="#EEEEEE" x="11.5768682" y="23.1537364" width="29.5853298" height="2.57263737" rx="1"></rect>
                            <polygon id="Shape" fill="#09BB07" fill-rule="nonzero" points="7.99030902 21.8522845 6.7191235 20.581099 3.08716485 24.2130576 1.27118553 22.3970783 0 23.6682638 3.08716485 26.7554287"></polygon>
                        </g>
                        <g id="pass" transform="translate(75.317432, 98.455989) rotate(-35.000000) translate(-75.317432, -98.455989) translate(59.817432, 87.955989)">
                            <circle id="Oval-4" stroke="#EEEEEE" cx="15.4358242" cy="10.2905495" r="9.7905495"></circle>
                            <rect id="Rectangle-7" fill="#FFFFFF" x="0" y="3.85895606" width="30.8716485" height="11.5768682"></rect>
                            <text id="PASS" font-family=".AppleSystemUIFont" font-size="8" font-weight="normal" fill="#EEEEEE">
                                <tspan x="4.69558987" y="14.4881091">PASS</tspan>
                            </text>
                        </g>
                    </g>
                    <g id="paper" transform="translate(63.918227, 62.085953) rotate(3.000000) translate(-63.918227, -62.085953) translate(15.418227, 2.585953)">
                        <g id="Rectangle-4">
                            <use fill="black" fill-opacity="1" filter="url(#filter-7)" xlink:href="#path-6"></use>
                            <rect stroke="url(#linearGradient-5)" stroke-width="3" stroke-linejoin="square" fill="#FFFFFF" fill-rule="evenodd" x="1.5" y="1.5" width="93.4739016" height="115.341319"></rect>
                        </g>
                        <text id="report" font-family=".AppleSystemUIFont" font-size="12" font-weight="normal" letter-spacing="1.5" fill="#474747">
                            <tspan x="20.8326539" y="24.3491805">REPOR</tspan>
                            <tspan x="68.0357789" y="24.3491805">T</tspan>
                        </text>
                        <rect id="Rectangle-9" fill="url(#linearGradient-3)" x="84.8970334" y="21.8674177" width="2.57263737" height="2.57263737"></rect>
                        <g id="suv" transform="translate(20.581099, 39.875879)">
                            <path d="M21.8674177,23.1537364 L37.3032419,23.1537364 C38.0136565,23.1537364 38.5895606,22.5778322 38.5895606,21.8674177 C38.5895606,21.1570032 38.0136565,20.581099 37.3032419,20.581099 L21.8674177,20.581099 C21.1570032,20.581099 20.581099,21.1570032 20.581099,21.8674177 C20.581099,22.5778322 21.1570032,23.1537364 21.8674177,23.1537364 Z M43.3453689,7.71791212 L41.0918364,6.21555621 C37.5287851,3.84018996 33.3423451,2.57263737 29.0600912,2.57263737 L27.2007818,2.57263737 L28.0947836,7.71791212 L43.3453689,7.71791212 Z M47.5029207,10.2905392 C47.5011418,10.2905456 47.4993628,10.2905495 47.4975825,10.2905495 L27.0344518,10.2905495 C27.0188925,10.2908325 27.0033743,10.2908299 26.9879051,10.2905495 L14.4034622,10.2905495 C12.7839496,10.2905495 11.2589507,9.52804937 10.2872424,8.2324396 L7.94729619,5.11251093 C7.49001504,5.42252402 7.0486225,5.75929512 6.62555872,6.12192122 L3.02183144,9.21083032 C2.73672405,9.45520771 2.57263737,9.8119682 2.57263737,10.1874768 L2.57263737,11.5768682 L5.04899122,11.5768682 C5.75940445,11.5768682 6.33530991,12.1527724 6.33530991,12.8631869 C6.33530991,13.5736014 5.75940445,14.1495056 5.04899122,14.1495056 L2.57263737,14.1495056 L2.57263737,19.2947803 C2.57263737,20.0051948 3.14854155,20.581099 3.85895606,20.581099 L5.14527475,20.581099 C5.85568927,20.581099 6.43159344,21.1570032 6.43159344,21.8674177 C6.43159344,22.5778322 5.85568927,23.1537364 5.14527475,23.1537364 L3.85895606,23.1537364 C1.7277138,23.1537364 0,21.4260226 0,19.2947803 L0,10.1874768 C0,9.06095103 0.492258726,7.99067214 1.3475809,7.25753867 L4.95130947,4.16862828 C8.08965179,1.47862076 12.0867443,0 16.2201854,0 L29.0600912,0 C33.8502481,0 38.5332276,1.41789237 42.5188783,4.07499329 L47.9074654,7.66738424 C48.0396051,7.75547778 48.1869156,7.81833888 48.3419453,7.85279036 C54.061232,9.12389447 56.9373094,9.76347913 56.9701774,9.77154306 C59.0377855,10.2884451 60.2948816,12.3836061 59.7779796,14.4512142 L58.3331054,20.2307148 C57.9036344,21.9485947 56.3601176,23.1537364 54.5893674,23.1537364 L54.0253849,23.1537364 C53.3149704,23.1537364 52.7390662,22.5778322 52.7390662,21.8674177 C52.7390662,21.1570032 53.3149704,20.581099 54.0253849,20.581099 L54.5893674,20.581099 C55.1796179,20.581099 55.6941235,20.1793855 55.8372805,19.6067589 L57.2015938,14.1495056 L54.9224249,14.1495056 C54.2120104,14.1495056 53.6361062,13.5736014 53.6361062,12.8631869 C53.6361062,12.4163468 53.8639467,12.022723 54.2097902,11.7921503 L47.7838617,10.3641655 C47.6891925,10.3431278 47.5954817,10.3185591 47.5029207,10.2905392 Z M10.2165193,3.85041233 L12.3453523,6.68885717 C12.8312064,7.3366627 13.5937053,7.71791212 14.4034622,7.71791212 L25.4836004,7.71791212 L24.5895986,2.57263737 L16.2201854,2.57263737 C14.1356288,2.57263737 12.0917996,3.0143232 10.2165193,3.85041233 Z" id="SUV" fill="#EEEEEE" fill-rule="nonzero"></path>
                            <path d="M45.6643134,27.0126924 C42.46745,27.0126924 39.8758793,24.4211217 39.8758793,21.2242583 C39.8758793,18.0273949 42.46745,15.4358242 45.6643134,15.4358242 C48.8611768,15.4358242 51.4527475,18.0273949 51.4527475,21.2242583 C51.4527475,24.4211217 48.8611768,27.0126924 45.6643134,27.0126924 Z M45.6643134,24.4400551 C47.4403491,24.4400551 48.8801101,23.000294 48.8801101,21.2242583 C48.8801101,19.4482227 47.4403491,18.0084616 45.6643134,18.0084616 C43.8882778,18.0084616 42.4485167,19.4482227 42.4485167,21.2242583 C42.4485167,23.000294 43.8882778,24.4400551 45.6643134,24.4400551 Z" id="Combined-Shape" fill="#E0E0E0"></path>
                            <path d="M13.5063462,27.0126924 C10.3094828,27.0126924 7.71791212,24.4211217 7.71791212,21.2242583 C7.71791212,18.0273949 10.3094828,15.4358242 13.5063462,15.4358242 C16.7032096,15.4358242 19.2947803,18.0273949 19.2947803,21.2242583 C19.2947803,24.4211217 16.7032096,27.0126924 13.5063462,27.0126924 Z M13.5063462,24.4400551 C15.2823819,24.4400551 16.7221429,23.000294 16.7221429,21.2242583 C16.7221429,19.4482227 15.2823819,18.0084616 13.5063462,18.0084616 C11.7303106,18.0084616 10.2905495,19.4482227 10.2905495,21.2242583 C10.2905495,23.000294 11.7303106,24.4400551 13.5063462,24.4400551 Z" id="Combined-Shape" fill="#E0E0E0"></path>
                        </g>
                        <rect id="Rectangle" fill="#EEEEEE" opacity="0.5" x="7.71791212" y="43.7348354" width="9.00423081" height="2.57263737" rx="1"></rect>
                        <rect id="Rectangle" fill="#EEEEEE" opacity="0.5" x="78.4654399" y="32.1579672" width="9.00423081" height="2.57263737" rx="1"></rect>
                        <rect id="Rectangle" fill="#EEEEEE" opacity="0.5" x="7.71791212" y="48.8801101" width="6.43159344" height="2.57263737" rx="1"></rect>
                        <rect id="Rectangle" fill="#EEEEEE" opacity="0.5" x="83.6107147" y="37.3032419" width="3.85895606" height="2.57263737" rx="1"></rect>
                        <g id="check" transform="translate(11.576868, 78.465440)">
                            <rect id="Rectangle" fill="#EEEEEE" x="11.5768682" y="2.57263737" width="36.0169232" height="2.57263737" rx="1"></rect>
                            <polygon id="Shape" fill="#09BB07" fill-rule="nonzero" points="7.99030902 1.27118553 6.7191235 0 3.08716485 3.63195865 1.27118553 1.81597932 0 3.08716485 3.08716485 6.1743297"></polygon>
                            <rect id="Rectangle" fill="#EEEEEE" x="11.5768682" y="12.8631869" width="18.0084616" height="2.57263737" rx="1"></rect>
                            <polygon id="Shape" fill="#09BB07" fill-rule="nonzero" points="7.99030902 11.561735 6.7191235 10.2905495 3.08716485 13.9225081 1.27118553 12.1065288 0 13.3777143 3.08716485 16.4648792"></polygon>
                            <rect id="Rectangle" fill="#EEEEEE" x="11.5768682" y="23.1537364" width="29.5853298" height="2.57263737" rx="1"></rect>
                            <polygon id="Shape" fill="#09BB07" fill-rule="nonzero" points="7.99030902 21.8522845 6.7191235 20.581099 3.08716485 24.2130576 1.27118553 22.3970783 0 23.6682638 3.08716485 26.7554287"></polygon>
                        </g>
                        <g id="pass" transform="translate(75.317432, 98.455989) rotate(-35.000000) translate(-75.317432, -98.455989) translate(59.817432, 87.955989)">
                            <circle id="Oval-4" stroke="#EEEEEE" cx="15.4358242" cy="10.2905495" r="9.7905495"></circle>
                            <rect id="Rectangle-7" fill="#FFFFFF" x="0" y="3.85895606" width="30.8716485" height="11.5768682"></rect>
                            <text id="PASS" font-family=".AppleSystemUIFont" font-size="8" font-weight="normal" fill="#EEEEEE">
                                <tspan x="4.69558987" y="14.4881091">PASS</tspan>
                            </text>
                        </g>
                    </g>
                    <g id="paper" transform="translate(10.290549, 2.572637)">
                        <g id="Rectangle-4">
                            <use fill="black" fill-opacity="1" filter="url(#filter-10)" xlink:href="#path-9"></use>
                            <rect stroke="url(#linearGradient-8)" stroke-width="3" stroke-linejoin="square" fill="#FFFFFF" fill-rule="evenodd" x="1.5" y="1.5" width="93.4739016" height="115.341319"></rect>
                        </g>
                        <rect id="Rectangle-9" fill="#353535" x="84.8970334" y="21.8674177" width="2.57263737" height="2.57263737"></rect>
                        <g id="suv" transform="translate(20.581099, 39.875879)">
                            <path d="M21.8674177,23.1537364 L37.3032419,23.1537364 C38.0136565,23.1537364 38.5895606,22.5778322 38.5895606,21.8674177 C38.5895606,21.1570032 38.0136565,20.581099 37.3032419,20.581099 L21.8674177,20.581099 C21.1570032,20.581099 20.581099,21.1570032 20.581099,21.8674177 C20.581099,22.5778322 21.1570032,23.1537364 21.8674177,23.1537364 Z M43.3453689,7.71791212 L41.0918364,6.21555621 C37.5287851,3.84018996 33.3423451,2.57263737 29.0600912,2.57263737 L27.2007818,2.57263737 L28.0947836,7.71791212 L43.3453689,7.71791212 Z M47.5029207,10.2905392 C47.5011418,10.2905456 47.4993628,10.2905495 47.4975825,10.2905495 L27.0344518,10.2905495 C27.0188925,10.2908325 27.0033743,10.2908299 26.9879051,10.2905495 L14.4034622,10.2905495 C12.7839496,10.2905495 11.2589507,9.52804937 10.2872424,8.2324396 L7.94729619,5.11251093 C7.49001504,5.42252402 7.0486225,5.75929512 6.62555872,6.12192122 L3.02183144,9.21083032 C2.73672405,9.45520771 2.57263737,9.8119682 2.57263737,10.1874768 L2.57263737,11.5768682 L5.04899122,11.5768682 C5.75940445,11.5768682 6.33530991,12.1527724 6.33530991,12.8631869 C6.33530991,13.5736014 5.75940445,14.1495056 5.04899122,14.1495056 L2.57263737,14.1495056 L2.57263737,19.2947803 C2.57263737,20.0051948 3.14854155,20.581099 3.85895606,20.581099 L5.14527475,20.581099 C5.85568927,20.581099 6.43159344,21.1570032 6.43159344,21.8674177 C6.43159344,22.5778322 5.85568927,23.1537364 5.14527475,23.1537364 L3.85895606,23.1537364 C1.7277138,23.1537364 0,21.4260226 0,19.2947803 L0,10.1874768 C0,9.06095103 0.492258726,7.99067214 1.3475809,7.25753867 L4.95130947,4.16862828 C8.08965179,1.47862076 12.0867443,0 16.2201854,0 L29.0600912,0 C33.8502481,0 38.5332276,1.41789237 42.5188783,4.07499329 L47.9074654,7.66738424 C48.0396051,7.75547778 48.1869156,7.81833888 48.3419453,7.85279036 C54.061232,9.12389447 56.9373094,9.76347913 56.9701774,9.77154306 C59.0377855,10.2884451 60.2948816,12.3836061 59.7779796,14.4512142 L58.3331054,20.2307148 C57.9036344,21.9485947 56.3601176,23.1537364 54.5893674,23.1537364 L54.0253849,23.1537364 C53.3149704,23.1537364 52.7390662,22.5778322 52.7390662,21.8674177 C52.7390662,21.1570032 53.3149704,20.581099 54.0253849,20.581099 L54.5893674,20.581099 C55.1796179,20.581099 55.6941235,20.1793855 55.8372805,19.6067589 L57.2015938,14.1495056 L54.9224249,14.1495056 C54.2120104,14.1495056 53.6361062,13.5736014 53.6361062,12.8631869 C53.6361062,12.4163468 53.8639467,12.022723 54.2097902,11.7921503 L47.7838617,10.3641655 C47.6891925,10.3431278 47.5954817,10.3185591 47.5029207,10.2905392 Z M10.2165193,3.85041233 L12.3453523,6.68885717 C12.8312064,7.3366627 13.5937053,7.71791212 14.4034622,7.71791212 L25.4836004,7.71791212 L24.5895986,2.57263737 L16.2201854,2.57263737 C14.1356288,2.57263737 12.0917996,3.0143232 10.2165193,3.85041233 Z" id="SUV" fill="#EEEEEE" fill-rule="nonzero"></path>
                            <path d="M45.6643134,27.0126924 C42.46745,27.0126924 39.8758793,24.4211217 39.8758793,21.2242583 C39.8758793,18.0273949 42.46745,15.4358242 45.6643134,15.4358242 C48.8611768,15.4358242 51.4527475,18.0273949 51.4527475,21.2242583 C51.4527475,24.4211217 48.8611768,27.0126924 45.6643134,27.0126924 Z M45.6643134,24.4400551 C47.4403491,24.4400551 48.8801101,23.000294 48.8801101,21.2242583 C48.8801101,19.4482227 47.4403491,18.0084616 45.6643134,18.0084616 C43.8882778,18.0084616 42.4485167,19.4482227 42.4485167,21.2242583 C42.4485167,23.000294 43.8882778,24.4400551 45.6643134,24.4400551 Z" id="Combined-Shape" fill="#E0E0E0"></path>
                            <path d="M13.5063462,27.0126924 C10.3094828,27.0126924 7.71791212,24.4211217 7.71791212,21.2242583 C7.71791212,18.0273949 10.3094828,15.4358242 13.5063462,15.4358242 C16.7032096,15.4358242 19.2947803,18.0273949 19.2947803,21.2242583 C19.2947803,24.4211217 16.7032096,27.0126924 13.5063462,27.0126924 Z M13.5063462,24.4400551 C15.2823819,24.4400551 16.7221429,23.000294 16.7221429,21.2242583 C16.7221429,19.4482227 15.2823819,18.0084616 13.5063462,18.0084616 C11.7303106,18.0084616 10.2905495,19.4482227 10.2905495,21.2242583 C10.2905495,23.000294 11.7303106,24.4400551 13.5063462,24.4400551 Z" id="Combined-Shape" fill="#E0E0E0"></path>
                        </g>
                        <rect id="Rectangle" fill="#EEEEEE" opacity="0.5" x="7.71791212" y="43.7348354" width="9.00423081" height="2.57263737" rx="1"></rect>
                        <rect id="Rectangle" fill="#EEEEEE" opacity="0.5" x="78.4654399" y="32.1579672" width="9.00423081" height="2.57263737" rx="1"></rect>
                        <rect id="Rectangle" fill="#EEEEEE" opacity="0.5" x="7.71791212" y="48.8801101" width="6.43159344" height="2.57263737" rx="1"></rect>
                        <rect id="Rectangle" fill="#EEEEEE" opacity="0.5" x="83.6107147" y="37.3032419" width="3.85895606" height="2.57263737" rx="1"></rect>
                        <g id="check" transform="translate(11.576868, 78.465440)">
                            <rect id="Rectangle" fill="#EEEEEE" x="11.5768682" y="2.57263737" width="36.0169232" height="2.57263737" rx="1"></rect>
                            <polygon id="Shape" fill="#E0E0E0" fill-rule="nonzero" points="7.99030902 1.27118553 6.7191235 0 3.08716485 3.63195865 1.27118553 1.81597932 0 3.08716485 3.08716485 6.1743297"></polygon>
                            <rect id="Rectangle" fill="#EEEEEE" x="11.5768682" y="12.8631869" width="18.0084616" height="2.57263737" rx="1"></rect>
                            <polygon id="Shape" fill="#E0E0E0" fill-rule="nonzero" points="7.99030902 11.561735 6.7191235 10.2905495 3.08716485 13.9225081 1.27118553 12.1065288 0 13.3777143 3.08716485 16.4648792"></polygon>
                            <rect id="Rectangle" fill="#EEEEEE" x="11.5768682" y="23.1537364" width="29.5853298" height="2.57263737" rx="1"></rect>
                            <polygon id="Shape" fill="#E0E0E0" fill-rule="nonzero" points="7.99030902 21.8522845 6.7191235 20.581099 3.08716485 24.2130576 1.27118553 22.3970783 0 23.6682638 3.08716485 26.7554287"></polygon>
                        </g>
                        <text id="Function" font-family="SFUIDisplay-Semibold, SF UI Display" font-size="17" font-weight="500" fill="#353535">
                            <tspan x="12.4403435" y="22.8954303">Function</tspan>
                        </text>
                    </g>
                    <g id="success" transform="translate(70.747528, 84.897033)">
                        <path d="M14.1495056,0 C6.33544112,0 0,6.33544112 0,14.1495056 C0,21.96357 6.33544112,28.2990111 14.1495056,28.2990111 C21.96357,28.2990111 28.2990111,21.96357 28.2990111,14.1495056 C28.2990111,6.33544112 21.96357,0 14.1495056,0 Z" id="Shape" fill="#80D839" fill-rule="nonzero"></path>
                        <g id="icons/success" transform="translate(7.717912, 7.717912)" fill="#FFFFFF">
                            <path d="M7,11.2 L3.5,11.2 L3.5,8.4 L7,8.4 L7,8.37222338 L7,-8.52651283e-14 L9.8,-8.52651283e-14 L9.8,11.2 L7,11.2 Z" id="Combined-Shape" transform="translate(6.650000, 5.600000) rotate(45.000000) translate(-6.650000, -5.600000) "></path>
                        </g>
                    </g>
                </g>
            </g>
        </g>
    </g>
</svg>