<?xml version="1.0" encoding="UTF-8"?>
<svg width="24px" height="20px" viewBox="0 0 24 20" version="1.1" xmlns="http://www.w3.org/2000/svg" xmlns:xlink="http://www.w3.org/1999/xlink">
    <!-- Generator: Sketch 50.2 (55047) - http://www.bohemiancoding.com/sketch -->
    <title>Group 15</title>
    <desc>Created with Sketch.</desc>
    <defs></defs>
    <g id="Page-1" stroke="none" stroke-width="1" fill="none" fill-rule="evenodd">
        <g id="注册-手机新用户" transform="translate(-80.000000, -619.000000)" fill="#09BB07" fill-rule="nonzero">
            <g id="内容" transform="translate(15.000000, 368.000000)">
                <g id="按钮-确认" transform="translate(65.000000, 250.000000)">
                    <g id="Group-15" transform="translate(0.000000, 1.000000)">
                        <path d="M8.704,0 C3.774,0 0,3.346 0,6.994 C0,10.642 3.258,12.755 3.258,12.755 L2.728,14.762 C2.658,15.027 2.941,15.245 3.179,15.11 L5.559,13.761 C6.611,14.096 8.845,14.203 9.062,14.213 C8.907,13.672 8.83,13.139 8.83,12.641 C8.83,9.826 11.281,5.861 16.729,5.861 C16.853,5.861 16.977,5.864 17.101,5.869 C16.377,2.4 12.774,0 8.704,0 Z M5.459,5.811 C4.862,5.811 4.377,5.327 4.377,4.729 C4.377,4.131 4.861,3.647 5.459,3.647 C6.057,3.647 6.541,4.131 6.541,4.729 C6.541,5.327 6.057,5.811 5.459,5.811 Z M11.748,5.811 C11.151,5.811 10.666,5.327 10.666,4.729 C10.666,4.131 11.15,3.647 11.748,3.647 C12.345,3.647 12.83,4.131 12.83,4.729 C12.83,5.327 12.346,5.811 11.748,5.811 Z" id="Shape"></path>
                        <path d="M24,12.201 C24,9.006 20.252,6.666 16.73,6.666 C11.749,6.666 9.636,10.263 9.636,12.641 C9.636,15.023 11.749,18.616 16.73,18.616 C17.832,18.616 18.802,18.458 19.645,18.178 L21.518,19.367 C21.666,19.461 21.853,19.328 21.814,19.158 L21.389,17.313 C23.158,16.08 24,14.137 24,12.201 Z M14.452,11.594 C13.924,11.594 13.496,11.166 13.496,10.638 C13.496,10.11 13.924,9.682 14.452,9.682 C14.98,9.682 15.408,10.11 15.408,10.638 C15.408,11.166 14.98,11.594 14.452,11.594 Z M19.232,11.594 C18.704,11.594 18.276,11.166 18.276,10.638 C18.276,10.11 18.704,9.682 19.232,9.682 C19.76,9.682 20.188,10.11 20.188,10.638 C20.188,11.166 19.76,11.594 19.232,11.594 Z" id="Shape"></path>
                    </g>
                </g>
            </g>
        </g>
    </g>
</svg>