<?xml version="1.0" encoding="UTF-8"?>
<svg width="35px" height="35px" viewBox="0 0 35 35" version="1.1" xmlns="http://www.w3.org/2000/svg" xmlns:xlink="http://www.w3.org/1999/xlink">
    <!-- Generator: Sketch 49.3 (51167) - http://www.bohemiancoding.com/sketch -->
    <title>bg_coupon</title>
    <desc>Created with Sketch.</desc>
    <defs>
        <path d="M0,0 L33,0 C34.1045695,-2.02906125e-16 35,0.8954305 35,2 L35,35 L0,35 L0,0 Z" id="path-1"></path>
    </defs>
    <g id="Symbols" stroke="none" stroke-width="1" fill="none" fill-rule="evenodd">
        <g id="bg_coupon">
            <g id="券-+-Oval-2-Mask">
                <mask id="mask-2" fill="white">
                    <use xlink:href="#path-1"></use>
                </mask>
                <use id="Mask" fill="#FFFFFF" opacity="0" xlink:href="#path-1"></use>
                <path d="M22.296,15.5 L18.796,15.5 L18.796,14.044 C17.452,15.052 16.024,15.92 14.456,16.676 L13,14.436 C15.688,13.288 17.928,11.776 19.748,9.872 L13.924,9.872 L13.924,7.464 L21.68,7.464 C22.212,6.652 22.688,5.812 23.108,4.944 L15.464,4.944 L15.464,2.592 L19.524,2.592 C18.908,1.22 18.236,0.016 17.564,-1.048 L19.86,-1.804 C20.588,-0.628 21.232,0.604 21.792,1.92 L20.336,2.592 L24.06,2.592 C24.536,1.136 24.9,-0.376 25.152,-2 L27.784,-1.664 C27.504,-0.152 27.168,1.248 26.748,2.592 L31.704,2.592 L30.472,1.92 C31.34,0.8 32.04,-0.46 32.6,-1.916 L34.812,-1.132 C34.224,0.268 33.524,1.528 32.712,2.592 L36.632,2.592 L36.632,4.944 L25.88,4.944 C25.488,5.812 25.068,6.652 24.62,7.464 L38.172,7.464 L38.172,9.872 L32.656,9.872 C34.028,11.524 36.184,13.008 39.096,14.352 L37.36,16.508 C35.96,15.696 34.728,14.856 33.664,13.988 C33.58,16.228 33.44,18.048 33.272,19.504 C33.048,21.128 32.656,22.248 32.124,22.892 C31.592,23.508 30.752,23.872 29.632,23.928 L25.152,23.928 L24.452,21.436 C25.852,21.492 27.14,21.548 28.344,21.548 C29.408,21.548 30.08,21.156 30.416,20.428 C30.752,19.644 31.004,18.02 31.116,15.5 L24.788,15.5 C24.228,17.488 23.472,19.084 22.548,20.26 C21.344,21.716 19.552,23.004 17.172,24.152 L15.492,22.052 C17.62,21.128 19.216,20.12 20.336,19.028 C21.176,18.132 21.82,16.956 22.296,15.5 Z M22.996,9.872 C22.1,11.02 21.092,12.084 20.028,13.036 L32.572,13.036 C31.452,12 30.556,10.936 29.884,9.872 L22.996,9.872 Z" id="券" fill="#F86A4B" opacity="0.3" mask="url(#mask-2)"></path>
                <path d="M26.5,35 C13.5213084,35 3,24.4786916 3,11.5 C3,-1.47869162 13.5213084,-12 26.5,-12 C39.4786916,-12 50,-1.47869162 50,11.5 C50,24.4786916 39.4786916,35 26.5,35 Z M26.5,32 C37.8218374,32 47,22.8218374 47,11.5 C47,0.178162629 37.8218374,-9 26.5,-9 C15.1781626,-9 6,0.178162629 6,11.5 C6,22.8218374 15.1781626,32 26.5,32 Z" id="Oval-2" fill="#F86A4B" fill-rule="nonzero" opacity="0.3" mask="url(#mask-2)"></path>
            </g>
        </g>
    </g>
</svg>