<?xml version="1.0" encoding="UTF-8"?>
<svg width="10px" height="10px" viewBox="0 0 10 10" version="1.1" xmlns="http://www.w3.org/2000/svg" xmlns:xlink="http://www.w3.org/1999/xlink">
    <!-- Generator: Sketch 48.2 (47327) - http://www.bohemiancoding.com/sketch -->
    <title>icon_play_s 1</title>
    <desc>Created with Sketch.</desc>
    <defs></defs>
    <g id="施工录像" stroke="none" stroke-width="1" fill="none" fill-rule="evenodd" transform="translate(-159.000000, -158.000000)">
        <g id="list1" transform="translate(15.000000, 79.000000)" fill="#D1D1D1">
            <g id="icon_play_s" transform="translate(143.000000, 78.000000)">
                <g transform="translate(1.000000, 1.000000)" id="Shape">
                    <path d="M9.375,0 L0.625,0 C0.25,0 0,0.25 0,0.625 L0,9.375 C0,9.75 0.25,10 0.625,10 L9.375,10 C9.75,10 10,9.75 10,9.375 L10,0.625 C10,0.25 9.75,0 9.375,0 Z M6.625,5.5 L4.125,7.375 C3.75,7.6875 3.125,7.375 3.125,6.875 L3.125,3.125 C3.125,2.625 3.6875,2.3125 4.125,2.625 L6.625,4.5 C6.9375,4.75 6.9375,5.25 6.625,5.5 Z" fill-rule="nonzero"></path>
                </g>
            </g>
        </g>
    </g>
</svg>